<?xml version="1.0" encoding="iso-8859-1"?>
<!-- Generator: Adobe Illustrator 19.0.0, SVG Export Plug-In . SVG Version: 6.00 Build 0)  -->
<svg version="1.1" id="Layer_1" xmlns="http://www.w3.org/2000/svg" xmlns:xlink="http://www.w3.org/1999/xlink" x="0px" y="0px"
	 viewBox="0 0 512 512" style="enable-background:new 0 0 512 512;" xml:space="preserve">
<g>
	<g>
		<path style="fill:#FEDB41;" d="M386.499,93.301L317.8,24.3C301.601,8.101,278.8,0,256,0s-45.601,8.101-61.8,24.3l-68.699,69.001
			c-4.501,4.199-5.7,10.499-3.301,16.199c2.401,5.7,7.8,9.3,13.801,9.3h240c6,0,11.4-3.6,13.801-9.3
			C392.199,103.801,391,97.5,386.499,93.301z"/>
	</g>
	<path style="fill:#FCBF29;" d="M376,118.801H256V0c22.8,0,45.601,8.101,61.8,24.3l68.699,69.001
		c4.501,4.199,5.7,10.499,3.301,16.199C387.4,115.201,382,118.801,376,118.801z"/>
	<g>
		<path style="fill:#D78878;" d="M106,361H91c-33.091,0-60-26.909-60-60s26.909-60,60-60h15c8.291,0,15,6.709,15,15v90
			C121,354.291,114.291,361,106,361z"/>
	</g>
	<g>
		<path style="fill:#CA6E59;" d="M421,361h-15c-8.291,0-15-6.709-15-15v-90c0-8.291,6.709-15,15-15h15c33.091,0,60,26.909,60,60
			S454.091,361,421,361z M421,331h0.293H421z"/>
	</g>
	<path style="fill:#EB9C8D;" d="M421,196v150c0,90.901-74.099,166-165,166S91,436.901,91,346V196c0-8.401,6.599-15,15-15h300
		C414.401,181,421,187.599,421,196z"/>
	<path style="fill:#D78878;" d="M421,196v150c0,90.901-74.099,166-165,166V181h150C414.401,181,421,187.599,421,196z"/>
	<g>
		<path style="fill:#CA6E59;" d="M309.101,399.101C295,413.2,276.099,421,256,421s-39-7.8-53.101-21.899c-5.7-6-5.7-15.3,0-21.301
			c6-5.7,15.3-5.7,21.301,0c8.399,8.401,20.099,12.9,31.8,12.9s23.401-4.499,31.8-12.9c6-5.7,15.3-5.7,21.301,0
			C314.801,383.8,314.801,393.1,309.101,399.101z"/>
	</g>
	<g>
		<g>
			<circle style="fill:#3C3A41;" cx="196" cy="256" r="15"/>
		</g>
	</g>
	<g>
		<g>
			<g>
				<circle style="fill:#2B292C;" cx="316" cy="256" r="15"/>
			</g>
		</g>
	</g>
	<g>
		<path style="fill:#FD3C65;" d="M497,91H15c-8.401,0-15,6.599-15,15c0,57.9,48.1,105,106,105h300c57.9,0,106-47.1,106-105
			C512,97.599,505.401,91,497,91z"/>
	</g>
	<g>
		<path style="fill:#57555C;" d="M166,512c-8.291,0-15-6.709-15-15V376c0-41.353,33.647-75,75-75c8.291,0,15,6.709,15,15
			s-6.709,15-15,15c-24.814,0-45,20.186-45,45v121C181,505.291,174.291,512,166,512z"/>
	</g>
	<g>
		<g>
			<g>
				<path style="fill:#3C3A41;" d="M346,512c-8.291,0-15-6.709-15-15V376c0-24.814-20.186-45-45-45c-8.291,0-15-6.709-15-15
					s6.709-15,15-15c41.353,0,75,33.647,75,75v121C361,505.291,354.291,512,346,512z"/>
			</g>
		</g>
	</g>
	<path style="fill:#A44F3E;" d="M309.101,377.8c5.7,6,5.7,15.3,0,21.301C295,413.2,276.099,421,256,421v-30.3
		c11.7,0,23.401-4.499,31.8-12.9C293.8,372.1,303.1,372.1,309.101,377.8z"/>
	<path style="fill:#FD003A;" d="M512,106c0,57.9-48.1,105-106,105H256V91h241C505.401,91,512,97.599,512,106z"/>
	<g>
		<path style="fill:#FEA832;" d="M106,151c-8.291,0-15-6.709-15-15V91h30v45C121,144.291,114.291,151,106,151z"/>
	</g>
	<g>
		<path style="fill:#FEA832;" d="M166,151c-8.291,0-15-6.709-15-15V91h30v45C181,144.291,174.291,151,166,151z"/>
	</g>
	<g>
		<path style="fill:#FEA832;" d="M226,151c-8.291,0-15-6.709-15-15V91h30v45C241,144.291,234.291,151,226,151z"/>
	</g>
	<g>
		<g>
			<path style="fill:#FE9923;" d="M286,151c-8.291,0-15-6.709-15-15V91h30v45C301,144.291,294.291,151,286,151z"/>
		</g>
	</g>
	<g>
		<g>
			<path style="fill:#FE9923;" d="M346,151c-8.291,0-15-6.709-15-15V91h30v45C361,144.291,354.291,151,346,151z"/>
		</g>
	</g>
	<g>
		<g>
			<path style="fill:#FE9923;" d="M406,151c-8.291,0-15-6.709-15-15V91h30v45C421,144.291,414.291,151,406,151z"/>
		</g>
	</g>
</g>
<g>
</g>
<g>
</g>
<g>
</g>
<g>
</g>
<g>
</g>
<g>
</g>
<g>
</g>
<g>
</g>
<g>
</g>
<g>
</g>
<g>
</g>
<g>
</g>
<g>
</g>
<g>
</g>
<g>
</g>
</svg>
