<?xml version="1.0" encoding="iso-8859-1"?>
<!-- Generator: Adobe Illustrator 19.0.0, SVG Export Plug-In . SVG Version: 6.00 Build 0)  -->
<svg version="1.1" id="Layer_1" xmlns="http://www.w3.org/2000/svg" xmlns:xlink="http://www.w3.org/1999/xlink" x="0px" y="0px"
	 viewBox="0 0 512 512" style="enable-background:new 0 0 512 512;" xml:space="preserve">
<g>
	<g>
		<path style="fill:#FF9870;" d="M106,331H91c-33.091,0-60-26.909-60-60s26.909-60,60-60h15c8.291,0,15,6.709,15,15v90
			C121,324.291,114.291,331,106,331z"/>
	</g>
	<path style="fill:#B35C4B;" d="M421,122.701v65.999l-29.399,13.9L343.599,153.9C316.601,169.2,286.3,177.001,256,177.001
		s-60.601-7.8-87.599-23.101l-45,45.7L91,188.699v-65.999c0-31.201,22.8-57.001,52.5-61.8c11.7-21,36.301-33.602,60.3-30.3
		C214.3,12.001,234.101,0,256,0s41.7,12.001,52.2,30.601c24-3.301,48.6,9.3,60.3,30.3C398.2,65.7,421,91.5,421,122.701z"/>
	<path style="fill:#A24F3D;" d="M421,122.701v65.999l-29.399,13.9L343.599,153.9C316.601,169.2,286.3,177.001,256,177.001V0
		c21.899,0,41.7,12.001,52.2,30.601c24-3.301,48.6,9.3,60.3,30.3C398.2,65.7,421,91.5,421,122.701z"/>
	<path style="fill:#B35C4B;" d="M420.099,362c-7.5,84-78.3,150-164.099,150S99.401,446,91.901,362l30.298-31h39.3
		c28.5-17.999,61.501-26.7,94.501-26.7s66,8.701,94.501,26.7H388.9L420.099,362z"/>
	<path style="fill:#A24F3D;" d="M420.099,362c-7.5,84-78.3,150-164.099,150V304.3c32.999,0,66,8.701,94.501,26.7H388.9L420.099,362z
		"/>
	<g>
		<path style="fill:#FD6244;" d="M309.101,400.101C295,414.2,276.099,422,256,422s-39-7.8-53.101-21.899c-5.7-6-5.7-15.3,0-21.301
			c6-5.7,15.3-5.7,21.301,0c8.399,8.401,20.099,12.9,31.8,12.9s23.401-4.499,31.8-12.9c6-5.7,15.3-5.7,21.301,0
			C314.801,384.8,314.801,394.1,309.101,400.101z"/>
	</g>
	<g>
		<path style="fill:#FFC5AD;" d="M356.499,124.501c-4.799-5.101-12.9-6-18.9-2.1c-24.598,16.199-53.099,24.6-81.599,24.6
			s-57.001-8.401-81.599-24.6c-6-3.9-14.101-3.001-18.9,2.1L91,188.699V347c0,5.099,0.3,10.201,0.901,15H166
			c2.999,0,5.7-0.901,8.401-2.401c24.598-16.199,53.099-24.6,81.599-24.6s57.001,8.401,81.599,24.6
			c2.701,1.5,5.402,2.401,8.401,2.401h74.099c0.601-4.799,0.901-9.901,0.901-15V188.699L356.499,124.501z"/>
	</g>
	<g>
		<g>
			<path style="fill:#F28155;" d="M481,271c0,33.091-26.909,60-60,60h-15c-8.291,0-15-6.709-15-15v-90c0-8.291,6.709-15,15-15h15
				C454.091,211,481,237.909,481,271z M421,301h0.293H421z"/>
		</g>
	</g>
	<path style="fill:#FD4E26;" d="M309.101,378.8c5.7,6,5.7,15.3,0,21.301C295,414.2,276.099,422,256,422v-30.3
		c11.7,0,23.401-4.499,31.8-12.9C293.8,373.1,303.1,373.1,309.101,378.8z"/>
	<path style="fill:#FFAC8C;" d="M421,188.699V347c0,5.099-0.3,10.201-0.901,15H346c-2.999,0-5.7-0.901-8.401-2.401
		c-24.598-16.199-53.099-24.6-81.599-24.6V147.001c28.5,0,57.001-8.401,81.599-24.6c6-3.9,14.101-3.001,18.9,2.1L421,188.699z"/>
	<g>
		<circle style="fill:#787780;" cx="196" cy="256" r="15"/>
	</g>
	<g>
		<circle style="fill:#57555C;" cx="316" cy="256" r="15"/>
	</g>
</g>
<g>
</g>
<g>
</g>
<g>
</g>
<g>
</g>
<g>
</g>
<g>
</g>
<g>
</g>
<g>
</g>
<g>
</g>
<g>
</g>
<g>
</g>
<g>
</g>
<g>
</g>
<g>
</g>
<g>
</g>
</svg>
