<?xml version="1.0" encoding="iso-8859-1"?>
<!-- Generator: Adobe Illustrator 19.0.0, SVG Export Plug-In . SVG Version: 6.00 Build 0)  -->
<svg version="1.1" id="Layer_1" xmlns="http://www.w3.org/2000/svg" xmlns:xlink="http://www.w3.org/1999/xlink" x="0px" y="0px"
	 viewBox="0 0 512 512" style="enable-background:new 0 0 512 512;" xml:space="preserve">
<g>
	<path style="fill:#FFC5AD;" d="M421,321.899l-16.8,7.2l16.199,25.8C415.6,441.299,343.599,512,256,512
		c-90.901,0-165-76.101-165-167V194.7c0-8.101,6.599-15,15-15h300c8.401,0,15,6.899,15,15V321.899z"/>
	<path style="fill:#FFAC8C;" d="M421,321.899l-16.8,7.2l16.199,25.8C415.6,441.299,343.599,512,256,512V179.7h150
		c8.401,0,15,6.899,15,15V321.899z"/>
	<g>
		<circle style="fill:#57555C;" cx="196" cy="285" r="15"/>
	</g>
	<g>
		<path style="fill:#FD6244;" d="M309.101,400.099C295,414.2,276.099,422,256,422s-39-7.8-53.101-21.901
			c-5.7-5.999-5.7-15.298,0-21.299c6-5.7,15.3-5.7,21.301,0c8.399,8.399,20.099,12.9,31.8,12.9s23.401-4.501,31.8-12.9
			c6-5.7,15.3-5.7,21.301,0C314.801,384.8,314.801,394.1,309.101,400.099z"/>
	</g>
	<g>
		<g>
			<g>
				<path style="fill:#3C3A41;" d="M301.601,280.499c-3.6,7.5-12.601,10.501-20.101,6.899L256,275.099l-92.701-45
					c-7.5-3.6-10.499-12.599-6.899-20.099s12.599-10.501,20.099-6.901L256,241.5l38.699,18.9
					C302.199,264,305.2,272.999,301.601,280.499z"/>
			</g>
		</g>
	</g>
	<g>
		<g>
			<g>
				<path style="fill:#2B292C;" d="M421,321.899V345c0,3.3,0,6.599-0.601,9.899L335.501,313.5
					c-7.5-3.602-10.801-12.601-7.202-19.801c3.9-7.5,12.601-10.8,20.101-7.2L421,321.899z"/>
			</g>
		</g>
	</g>
	<path style="fill:#2B292C;" d="M281.499,287.399L256,275.099v-33.6l38.699,18.9c7.5,3.6,10.501,12.599,6.901,20.099
		S288.999,291,281.499,287.399z"/>
	<path style="fill:#FD4E26;" d="M309.101,400.099C295,414.2,276.099,422,256,422v-30.3c11.7,0,23.401-4.501,31.8-12.9
		c6-5.7,15.3-5.7,21.301,0C314.801,384.8,314.801,394.1,309.101,400.099z"/>
	<g>
		<path style="fill:#57555C;" d="M487.7,62.999C444.5,89.099,388.299,80.7,355,43.5C330.399,15.901,294.401,0,256,0
			c-38.101,0-74.399,15.601-98.699,43.2C123.701,80.4,67.2,88.801,22.8,62.1C12.599,56.1,0,63.3,0,75v52.8
			C0,189.6,51.4,240,113.2,240c31.5,0,49.2-11.4,83.101-28.5c2.1-0.901,4.499-1.5,6.899-1.5H308.8c2.401,0,4.799,0.599,6.899,1.5
			c31.201,15.601,50.4,28.5,83.101,28.5c61.8,0,113.2-50.4,113.2-112.2V75C512,65.099,499.1,56.1,487.7,62.999z"/>
	</g>
	<path style="fill:#3C3A41;" d="M512,75v52.8c0,61.8-51.4,112.2-113.2,112.2c-32.701,0-51.899-12.9-83.101-28.5
		c-2.1-0.901-4.499-1.5-6.899-1.5H256V0c38.401,0,74.399,15.901,99,43.5c33.3,37.2,89.5,45.599,132.7,19.499
		C499.1,56.1,512,65.099,512,75z"/>
	<path style="fill:#F0EDEA;" d="M296.499,124.499c6,5.7,6,15.3,0,21c-5.7,6-15.298,6-20.999,0L256,126.299l-19.501,19.2
		c-5.7,6-15.298,6-20.999,0c-6-5.7-6-15.3,0-21L234.699,105l-19.199-19.501c-6-5.7-6-15.298,0-20.999c5.7-6,15.298-6,20.999,0
		L256,83.699l19.501-19.199c5.7-6,15.298-6,20.999,0c6,5.7,6,15.298,0,20.999L277.301,105L296.499,124.499z"/>
	<path style="fill:#E8E4D9;" d="M275.501,145.499L256,126.299V83.699l19.501-19.199c5.7-6,15.298-6,20.999,0
		c6,5.7,6,15.298,0,20.999L277.301,105l19.199,19.499c6,5.7,6,15.3,0,21C290.799,151.5,281.201,151.5,275.501,145.499z"/>
	<g>
		<g>
			<path style="fill:#3C3A41;" d="M316,330c-24.814,0-45-20.186-45-45s20.186-45,45-45s45,20.186,45,45S340.814,330,316,330z"/>
		</g>
	</g>
</g>
<g>
</g>
<g>
</g>
<g>
</g>
<g>
</g>
<g>
</g>
<g>
</g>
<g>
</g>
<g>
</g>
<g>
</g>
<g>
</g>
<g>
</g>
<g>
</g>
<g>
</g>
<g>
</g>
<g>
</g>
</svg>
