<?xml version="1.0" encoding="iso-8859-1"?>
<!-- Generator: Adobe Illustrator 19.0.0, SVG Export Plug-In . SVG Version: 6.00 Build 0)  -->
<svg version="1.1" id="Layer_1" xmlns="http://www.w3.org/2000/svg" xmlns:xlink="http://www.w3.org/1999/xlink" x="0px" y="0px"
	 viewBox="0 0 512 512" style="enable-background:new 0 0 512 512;" xml:space="preserve">
<g>
	<g>
		<path style="fill:#FCBF29;" d="M451,360c-33.091,0-60-26.909-60-60c0-6.841,1.157-13.564,3.413-19.995
			c2.769-7.793,11.309-11.865,19.146-9.155c7.808,2.769,11.909,11.338,9.155,19.146C421.571,293.203,421,296.572,421,300
			c0,16.538,13.462,30,30,30s30-13.462,30-30c0-13.506-9.082-25.4-22.09-28.945c-7.998-2.183-12.715-10.415-10.532-18.413
			s10.488-12.715,18.413-10.532C492.821,249.199,512,273.003,512,300C512,333.091,484.091,360,451,360z"/>
	</g>
	<g>
		<path style="fill:#FEDB41;" d="M60,360c-33.091,0-60-26.909-60-60c0-26.997,18.179-50.801,44.209-57.891
			c7.939-2.197,16.23,2.52,18.413,10.532c2.183,7.998-2.534,16.23-10.532,18.413C39.082,274.6,30,286.494,30,300
			c0,16.538,13.462,30,30,30s30-13.462,30-30c0-3.428-0.571-6.797-1.714-10.005c-2.754-7.808,1.348-16.377,9.155-19.146
			c7.822-2.695,16.392,1.362,19.146,9.155C118.843,286.436,120,293.159,120,300C120,333.091,93.091,360,60,360z"/>
	</g>
	<g>
		<path style="fill:#FF9870;" d="M105,300H90c-33.091,0-60-26.909-60-60s26.909-60,60-60h15c8.291,0,15,6.709,15,15v90
			C120,293.291,113.291,300,105,300z"/>
	</g>
	<path style="fill:#4C5CE1;" d="M406,512H106c-8.401,0-15-6.601-15-15V255l32.701,25.199C135.399,342.599,190.3,390,256,390
		c10.201,0,19.799-1.201,29.7-3.3c8.101-1.802,16.201,3.3,18.001,11.398c9.3,42.301,43.2,75.5,84.899,82.402L406,512z"/>
	<path style="fill:#3D4EE0;" d="M406,512H256V390c10.201,0,19.799-1.201,29.7-3.3c8.101-1.802,16.201,3.3,18.001,11.398
		c9.3,42.301,43.2,75.5,84.899,82.402L406,512z"/>
	<g>
		<g>
			<path style="fill:#F28155;" d="M422,300h-15c-8.291,0-15-6.709-15-15v-90c0-8.291,6.709-15,15-15h15c33.091,0,60,26.909,60,60
				S455.091,300,422,300z M422,270h0.293H422z"/>
		</g>
	</g>
	<path style="fill:#FFC5AD;" d="M301.901,409.2c-2.401,3.6-5.7,5.999-9.6,6.899C280.3,418.799,268.299,420,256,420
		c-90.901,0-165-74.101-165-165v-90c0-5.101,0.3-10.201,0.901-15L127,117.9c30.599-6,56.1-25.501,70.8-51.899H241v39
		c0,13.2,5.7,25.199,15,33.3c7.8,7.2,18.3,11.7,30,11.7c8.401,0,15,6.599,15,15v210c0,8.399,0.901,15.899,2.701,22.8
		C304.6,401.7,303.999,405.899,301.901,409.2z"/>
	<path style="fill:#FFAC8C;" d="M301.901,409.2c-2.401,3.6-5.7,5.999-9.6,6.899C280.3,418.799,268.299,420,256,420V138.3
		c7.8,7.2,18.3,11.7,30,11.7c8.401,0,15,6.599,15,15v210c0,8.399,0.901,15.899,2.701,22.8
		C304.6,401.7,303.999,405.899,301.901,409.2z"/>
	<path d="M187.353,32.353"/>
	<path style="fill:#6E77E5;" d="M211,6.299C153.1,22.5,107.199,69.899,94.6,131.1c-0.3,0.3-0.3,0.601-0.3,0.899
		C93.401,135,92.199,146.4,91.901,150H109.3C150.7,149.099,187,129.3,211,99.3l17.529-16.124l4.942-48.47L211,6.299z"/>
	<g>
		<circle style="fill:#57555C;" cx="196" cy="195" r="15"/>
	</g>
	<g>
		<path style="fill:#FD6244;" d="M293.5,320.099C282.1,326.4,269.2,330,256,330c-20.099,0-39-7.8-53.101-21.901
			c-5.7-5.999-5.7-15.298,0-21.299c6-5.7,15.3-5.7,21.301,0c8.399,8.399,20.099,12.9,31.8,12.9c7.8,0.3,15.601-1.8,22.5-5.7
			c7.2-4.2,16.199-1.8,20.4,5.4S300.7,315.899,293.5,320.099z"/>
	</g>
	<path style="fill:#FD4E26;" d="M293.5,320.099C282.1,326.4,269.2,330,256,330v-30.3c7.8,0.3,15.601-1.8,22.5-5.7
		c7.2-4.2,16.199-1.8,20.4,5.4S300.7,315.899,293.5,320.099z"/>
	<path style="fill:#7986E8;" d="M421,165v332c0,8.399-6.599,15-15,15c-63.6,0-117.9-45.2-131.7-107.3c-2.1-8.699-3.3-18.9-3.3-29.7
		V178.5c-5.099-0.901-10.201-2.701-15-4.801c-26.4-11.4-45-37.8-45-68.699V6.299C225.399,2.1,240.399,0,256,0
		c12.001,0,23.699,1.199,35.099,3.9C365.2,19.799,421,86.1,421,165z"/>
	<path style="fill:#6E77E5;" d="M421,165v332c0,8.399-6.599,15-15,15c-63.6,0-117.9-45.2-131.7-107.3c-2.1-8.699-3.3-18.9-3.3-29.7
		V178.5c-5.099-0.901-10.201-2.701-15-4.801V0c12.001,0,23.699,1.199,35.099,3.9C365.2,19.799,421,86.1,421,165z"/>
</g>
<g>
</g>
<g>
</g>
<g>
</g>
<g>
</g>
<g>
</g>
<g>
</g>
<g>
</g>
<g>
</g>
<g>
</g>
<g>
</g>
<g>
</g>
<g>
</g>
<g>
</g>
<g>
</g>
<g>
</g>
</svg>
