<?xml version="1.0" encoding="iso-8859-1"?>
<!-- Generator: Adobe Illustrator 19.0.0, SVG Export Plug-In . SVG Version: 6.00 Build 0)  -->
<svg version="1.1" id="Layer_1" xmlns="http://www.w3.org/2000/svg" xmlns:xlink="http://www.w3.org/1999/xlink" x="0px" y="0px"
	 viewBox="0 0 512 512" style="enable-background:new 0 0 512 512;" xml:space="preserve">
<g>
	<g>
		<path style="fill:#EA9B58;" d="M452,391c-33.091,0-60-26.909-60-60c0-6.841,1.157-13.564,3.413-19.995
			c2.769-7.793,11.309-11.836,19.146-9.155c7.808,2.769,11.909,11.338,9.155,19.146C422.571,324.203,422,327.572,422,331
			c0,16.538,13.462,30,30,30s30-13.462,30-30c0-13.506-9.082-25.4-22.09-28.945c-7.998-2.183-12.715-10.415-10.532-18.413
			c2.183-7.983,10.488-12.729,18.413-10.532C493.821,280.199,512,304.003,512,331C512,364.091,485.091,391,452,391z"/>
	</g>
	<g>
		<path style="fill:#FFBD86;" d="M60,391c-33.091,0-60-26.909-60-60c0-26.997,18.179-50.801,44.209-57.891
			c7.939-2.212,16.23,2.52,18.413,10.532c2.183,7.998-2.534,16.23-10.532,18.413C39.082,305.6,30,317.494,30,331
			c0,16.538,13.462,30,30,30s30-13.462,30-30c0-3.428-0.571-6.797-1.714-10.005c-2.754-7.808,1.348-16.377,9.155-19.146
			c7.822-2.666,16.392,1.362,19.146,9.155C118.843,317.436,120,324.159,120,331C120,364.091,93.091,391,60,391z"/>
	</g>
	<g>
		<path style="fill:#883F2E;" d="M482,271c0,33.091-26.909,60-60,60h-15c-8.291,0-15-6.709-15-15v-90c0-8.291,6.709-15,15-15h15
			C455.091,211,482,237.909,482,271z M422,301h0.293H422z"/>
	</g>
	<g>
		<path style="fill:#A44F3E;" d="M120,316c0,8.291-6.709,15-15,15H90c-33.091,0-60-26.909-60-60s26.909-60,60-60h15
			c8.291,0,15,6.709,15,15V316z"/>
	</g>
	<path style="fill:#BB5D4C;" d="M421,241v105c0,90.899-74.099,166-165,166S91,436.899,91,346V241l41.1-30
		c66.899,0,108.9-50.7,108.9-105c0-8.401,6.599-15,15-15s15,6.599,15,15c0,57.9,47.1,105,105,105h14.099L421,241z"/>
	<path style="fill:#A44F3E;" d="M421,241v105c0,90.899-74.099,166-165,166V91c8.401,0,15,6.599,15,15c0,57.9,47.1,105,105,105
		h14.099L421,241z"/>
	<path style="fill:#D8884C;" d="M391,0c-48.838,0-88.345,38.218-89.941,86.997c-0.278,8.291,6.211,15.22,14.487,15.483
		l62.974,62.974c0.264,8.101,6.914,14.502,14.971,14.502c0.176,0,0.337,0,0.513-0.015C442.782,178.345,481,138.838,481,90
		C481,40.371,440.629,0,391,0z"/>
	<path style="fill:#EA9B58;" d="M121,0C71.371,0,31,40.371,31,90c0,48.838,38.218,88.345,86.997,89.941
		c0.176,0.015,0.337,0.015,0.513,0.015c8.057,0,14.707-6.401,14.971-14.502l62.974-62.974c8.276-0.264,14.766-7.192,14.487-15.483
		C209.345,38.218,169.838,0,121,0z"/>
	<path style="fill:#FFBD86;" d="M421,225.099V241h-45c-52.5,0-97.8-30.601-120-74.401C233.8,210.399,188.5,241,136,241H91v-15
		c0-90.901,74.099-165,165-165c43.801,0,85.499,17.1,116.7,47.999C403.599,140.499,420.7,181.599,421,225.099z"/>
	<path style="fill:#EA9B58;" d="M421,225.099V241h-45c-52.5,0-97.8-30.601-120-74.401V61c43.801,0,85.499,17.1,116.7,47.999
		C403.599,140.499,420.7,181.599,421,225.099z"/>
	<g>
		<path style="fill:#990405;" d="M309.101,399.099C295,413.2,276.099,421,256,421s-39-7.8-53.101-21.901
			c-5.7-5.999-5.7-15.298,0-21.299c6-5.7,15.3-5.7,21.301,0c8.399,8.399,20.099,12.9,31.8,12.9s23.401-4.501,31.8-12.9
			c6-5.7,15.3-5.7,21.301,0C314.801,383.8,314.801,393.1,309.101,399.099z"/>
	</g>
	<g>
		<circle style="fill:#3C3A41;" cx="196" cy="286" r="15"/>
	</g>
	<g>
		<g>
			<g>
				<circle style="fill:#2B292C;" cx="316" cy="286" r="15"/>
			</g>
		</g>
	</g>
</g>
<path style="fill:#590602;" d="M309.101,399.099c5.7-5.999,5.7-15.298,0-21.299c-6-5.7-15.3-5.7-21.301,0
	c-8.399,8.399-20.099,12.9-31.8,12.9V421C276.099,421,295,413.2,309.101,399.099z"/>
<g>
</g>
<g>
</g>
<g>
</g>
<g>
</g>
<g>
</g>
<g>
</g>
<g>
</g>
<g>
</g>
<g>
</g>
<g>
</g>
<g>
</g>
<g>
</g>
<g>
</g>
<g>
</g>
<g>
</g>
</svg>
