<?xml version="1.0" encoding="iso-8859-1"?>
<!-- Generator: Adobe Illustrator 19.0.0, SVG Export Plug-In . SVG Version: 6.00 Build 0)  -->
<svg version="1.1" id="Layer_1" xmlns="http://www.w3.org/2000/svg" xmlns:xlink="http://www.w3.org/1999/xlink" x="0px" y="0px"
	 viewBox="0 0 512 512" style="enable-background:new 0 0 512 512;" xml:space="preserve">
<g>
	<g>
		<g>
			<path style="fill:#FF9870;" d="M75,301H60c-33.091,0-60-26.909-60-60s26.909-60,60-60h15c8.291,0,15,6.709,15,15v90
				C90,294.291,83.291,301,75,301z"/>
		</g>
	</g>
	<g>
		<g>
			<path style="fill:#F28155;" d="M452,301h-15c-8.291,0-15-6.709-15-15v-90c0-8.291,6.709-15,15-15h15c33.091,0,60,26.909,60,60
				S485.091,301,452,301z M452,271h0.293H452z"/>
		</g>
	</g>
	<g>
		<path style="fill:none;stroke:#000000;stroke-width:30;stroke-linecap:round;stroke-linejoin:round;stroke-miterlimit:10;" d="
			M436,256"/>
	</g>
	<path style="fill:#FCBF29;" d="M420.099,90L379.9,120H346c-32.999,0-63.9-9.6-90-27.001c-18.3-11.7-34.501-27.299-46.8-45.899
		l10.201-43.2c0.298,0,0.298,0,0.599,0C231.4,1.5,243.401,0,256,0c52.2,0,101.4,20.4,137.999,57.299
		C404.2,67.5,412.899,78.3,420.099,90z"/>
	<path style="fill:#FCBF29;" d="M445.3,362C425.2,449.599,347.5,512,256,512S86.8,449.599,66.7,362l24.901-30h69.899
		c29.101-18.001,61.8-28.301,94.501-28.301s65.4,10.3,94.501,28.301h69L445.3,362z"/>
	<path style="fill:#FE9923;" d="M420.099,90L379.9,120H346c-32.999,0-63.9-9.6-90-27.001V0c52.2,0,101.4,20.4,137.999,57.299
		C404.2,67.5,412.899,78.3,420.099,90z"/>
	<path style="fill:#FE9923;" d="M445.3,362C425.2,449.599,347.5,512,256,512V303.699c32.701,0,65.4,10.3,94.501,28.301h69L445.3,362
		z"/>
	<path style="fill:#FFC5AD;" d="M451,211l-15.901,11.999L451,241v76c0,10.199-0.601,20.099-2.701,29.7c0,1.199,0,2.1-0.298,2.999
		c-0.601,4.2-1.501,8.401-2.701,12.301H346c-2.999,0-5.7-0.901-8.401-2.401c-24.598-16.5-53.099-24.6-81.599-24.6
		s-57.001,8.101-81.599,24.6C171.7,361.099,168.999,362,166,362H66.7c-1.199-3.9-2.1-8.101-2.701-12.301
		c-0.298-0.899-0.298-1.8-0.298-2.999c-2.1-9.6-2.701-19.501-2.701-29.7v-76l15.3-10.8L61,211v-15
		c0-89.101,60.3-167.8,146.7-189.701L219.699,3.3L220,3.9l4.801,10.199c7.798,16.201,18.6,30,31.199,41.4
		C280,77.399,311.8,90,346,90h74.099c1.802,2.399,3.301,4.799,4.801,7.5C442,126.899,451,161.499,451,196V211z"/>
	<path style="fill:#FFAC8C;" d="M451,211l-15.901,11.999L451,241v76c0,10.199-0.601,20.099-2.701,29.7c0,1.199,0,2.1-0.298,2.999
		c-0.601,4.2-1.501,8.401-2.701,12.301H346c-2.999,0-5.7-0.901-8.401-2.401c-24.598-16.5-53.099-24.6-81.599-24.6v-279.5
		C280,77.399,311.8,90,346,90h74.099c1.802,2.399,3.301,4.799,4.801,7.5C442,126.899,451,161.499,451,196V211z"/>
	<path style="fill:#57555C;" d="M301,226c0,8.399-6.599,15-15,15h-60c-8.401,0-15-6.601-15-15c0-8.401,6.599-15,15-15h60
		C294.401,211,301,217.599,301,226z"/>
	<path style="fill:#57555C;" d="M166,301c-41.353,0-75-33.647-75-75s33.647-75,75-75s75,33.647,75,75S207.353,301,166,301z"/>
	<path style="fill:#F0EDEA;" d="M166,271c-24.814,0-45-20.186-45-45s20.186-45,45-45s45,20.186,45,45S190.814,271,166,271z"/>
	<path style="fill:#3C3A41;" d="M346,301c-41.353,0-75-33.647-75-75s33.647-75,75-75s75,33.647,75,75S387.353,301,346,301z"/>
	<path style="fill:#E8E4D9;" d="M346,271c-24.814,0-45-20.186-45-45s20.186-45,45-45s45,20.186,45,45S370.814,271,346,271z"/>
	<g>
		<g>
			<path style="fill:#3C3A41;" d="M451,211v30h-45c-8.401,0-15-6.601-15-15c0-8.401,6.599-15,15-15H451z"/>
		</g>
	</g>
	<path style="fill:#3C3A41;" d="M286,241h-30v-30h30c8.401,0,15,6.599,15,15C301,234.399,294.401,241,286,241z"/>
	<g>
		<path style="fill:#57555C;" d="M121,226c0,8.399-6.599,15-15,15H61v-30h45C114.401,211,121,217.599,121,226z"/>
	</g>
	<g>
		<path style="fill:#FD6244;" d="M309.101,400.099C295,414.2,276.099,422,256,422s-39-7.8-53.101-21.901
			c-5.7-5.999-5.7-15.298,0-21.299c6-5.7,15.3-5.7,21.301,0c8.399,8.399,20.099,12.9,31.8,12.9s23.401-4.501,31.8-12.9
			c6-5.7,15.3-5.7,21.301,0C314.801,384.8,314.801,394.1,309.101,400.099z"/>
	</g>
	<path style="fill:#FD4E26;" d="M309.101,378.8c5.7,6,5.7,15.3,0,21.299C295,414.2,276.099,422,256,422v-30.3
		c11.7,0,23.401-4.501,31.8-12.9C293.8,373.1,303.1,373.1,309.101,378.8z"/>
</g>
<g>
</g>
<g>
</g>
<g>
</g>
<g>
</g>
<g>
</g>
<g>
</g>
<g>
</g>
<g>
</g>
<g>
</g>
<g>
</g>
<g>
</g>
<g>
</g>
<g>
</g>
<g>
</g>
<g>
</g>
</svg>
