<?xml version="1.0" encoding="iso-8859-1"?>
<!-- Generator: Adobe Illustrator 19.0.0, SVG Export Plug-In . SVG Version: 6.00 Build 0)  -->
<svg version="1.1" id="Layer_1" xmlns="http://www.w3.org/2000/svg" xmlns:xlink="http://www.w3.org/1999/xlink" x="0px" y="0px"
	 viewBox="0 0 512 512" style="enable-background:new 0 0 512 512;" xml:space="preserve">
<g>
	<g>
		<path style="fill:#883F2E;" d="M106,362H91c-33.091,0-60-26.909-60-60s26.909-60,60-60h15c8.291,0,15,6.709,15,15v90
			C121,355.291,114.291,362,106,362z"/>
	</g>
	<g>
		<path style="fill:#6D3326;" d="M421,362h-15c-8.291,0-15-6.709-15-15v-90c0-8.291,6.709-15,15-15h15c33.091,0,60,26.909,60,60
			S454.091,362,421,362z"/>
	</g>
	<path style="fill:#A44F3E;" d="M421,200.6V347c0,90.899-74.099,165-165,165S91,437.899,91,347V200.6c0,0,23.401-11.201,42.299-19.6
		H374.5L421,200.6z"/>
	<path style="fill:#883F2E;" d="M421,200.6V347c0,90.899-74.099,165-165,165V181h118.5L421,200.6z"/>
	<path style="fill:#17ACE8;" d="M481,90c0,30-31.199,44.7-60,55.499l-13.5,18.6h-300l-16.5-18.6C62.199,134.7,31,120,31,90
		C31,31.5,146.8,0,256,0S481,31.5,481,90z"/>
	<path style="fill:#1689FC;" d="M481,90c0,30-31.199,44.7-60,55.499l-13.5,18.6H256V0C365.2,0,481,31.5,481,90z"/>
	<polygon style="fill:#1689FC;" points="421,145.499 421,200.6 396.099,212 115.3,212 91,200.6 91,145.499 	"/>
	<polygon style="fill:#136EF1;" points="421,145.499 421,200.6 396.099,212 256,212 256,145.499 	"/>
	<g>
		<path style="fill:#990405;" d="M309.101,400.099C295,414.2,276.099,422,256,422s-39-7.8-53.101-21.901
			c-5.7-5.999-5.7-15.298,0-21.299c6-5.7,15.3-5.7,21.301,0c8.399,8.399,20.099,12.9,31.8,12.9s23.401-4.501,31.8-12.9
			c6-5.7,15.3-5.7,21.301,0C314.801,384.8,314.801,394.1,309.101,400.099z"/>
	</g>
	<g>
		<circle style="fill:#3C3A41;" cx="196" cy="317" r="15"/>
	</g>
	<g>
		<circle style="fill:#2B292C;" cx="316" cy="317" r="15"/>
	</g>
	<path style="fill:#57555C;" d="M421,200.6c-2.1,4.2-3.6,7.8-6.599,11.4c-21.601,37.2-61.802,60-105.601,60H203.2
		c-45.601,0-86.7-24.3-107.999-64.2c-2.1-2.701-2.401-3.3-4.2-7.2H421z"/>
	<path style="fill:#3C3A41;" d="M256,200.6h165c-2.1,4.2-3.6,7.8-6.599,11.4c-21.601,37.2-61.802,60-105.601,60H256V200.6z"/>
	<path style="fill:#590602;" d="M309.101,400.099C295,414.2,276.099,422,256,422v-30.3c11.7,0,23.401-4.501,31.8-12.9
		c6-5.7,15.3-5.7,21.301,0C314.801,384.8,314.801,394.1,309.101,400.099z"/>
</g>
<g>
</g>
<g>
</g>
<g>
</g>
<g>
</g>
<g>
</g>
<g>
</g>
<g>
</g>
<g>
</g>
<g>
</g>
<g>
</g>
<g>
</g>
<g>
</g>
<g>
</g>
<g>
</g>
<g>
</g>
</svg>
