<?xml version="1.0" encoding="iso-8859-1"?>
<!-- Generator: Adobe Illustrator 19.0.0, SVG Export Plug-In . SVG Version: 6.00 Build 0)  -->
<svg version="1.1" id="Layer_1" xmlns="http://www.w3.org/2000/svg" xmlns:xlink="http://www.w3.org/1999/xlink" x="0px" y="0px"
	 viewBox="0 0 512.001 512.001" style="enable-background:new 0 0 512.001 512.001;" xml:space="preserve">
<g>
	<g>
		<g>
			<path style="fill:#E50027;" d="M277.739,79.586c-0.864,0-1.743-0.073-2.622-0.234c-8.159-1.436-13.608-9.214-12.158-17.373
				c7.178-40.723,46.04-68.042,86.88-60.82c8.159,1.436,13.608,9.214,12.158,17.373c-1.436,8.159-9.214,13.667-17.373,12.158
				c-24.595-4.204-47.813,12.07-52.134,36.504C291.215,74.473,284.887,79.586,277.739,79.586z"/>
		</g>
	</g>
	<path style="fill:#FF9870;" d="M106,361.001H91c-33.091,0-60-26.909-60-60s26.909-60,60-60h15c8.291,0,15,6.709,15,15v90
		C121,354.292,114.291,361.001,106,361.001z"/>
	<path style="fill:#FFC5AD;" d="M408.1,225.799L256,203.6l-147.9-21.299c-4.2-0.601-8.699,0.599-12.001,3.3
		C92.8,188.6,91,192.5,91,197.001v150c0,90.899,74.099,165,165,165s165-74.101,165-165V240.799
		C421,233.299,415.6,227.001,408.1,225.799z"/>
	<path style="fill:#F28155;" d="M421,361.001h-15c-8.291,0-15-6.709-15-15v-90c0-8.291,6.709-15,15-15h15c33.091,0,60,26.909,60,60
		S454.091,361.001,421,361.001z"/>
	<path style="fill:#FFAC8C;" d="M421,240.799v106.201c0,90.899-74.099,165-165,165V203.6l152.1,22.2
		C415.6,227.001,421,233.299,421,240.799z"/>
	<g>
		<path style="fill:#FD3C65;" d="M426.7,116.8c-20.7-29.7-51.899-49.2-87.299-55.499L256,46.599L221.201,40.3
			C148.001,27.401,77.8,76.599,64.9,149.799c-2.1,12.001,0.601,24.001,7.5,33.6c6.899,9.901,17.1,16.501,29.099,18.602L256,229.3
			l140.7,24.901c2.701,0.3,5.4,0.599,8.101,0.599c9,0,17.999-2.699,25.499-8.099c9.901-6.901,16.5-17.1,18.6-29.101
			C455.201,182.2,447.4,146.2,426.7,116.8z"/>
	</g>
	<path style="fill:#FD003A;" d="M448.9,217.6c-2.1,12.001-8.699,22.2-18.6,29.101c-7.5,5.4-16.5,8.099-25.499,8.099
		c-2.701,0-5.4-0.298-8.101-0.599L256,229.3V46.599l83.401,14.702C374.801,67.6,406,87.1,426.7,116.8
		C447.4,146.2,455.201,182.2,448.9,217.6z"/>
	<g>
		<path style="fill:#FD003A;" d="M336.1,167.2c-1.5,7.2-7.8,12.301-15,12.301h-2.399c-8.401-1.501-13.801-9.3-12.301-17.401
			c7.2-40.201-7.2-77.401-31.199-81.601c-6.301-1.199-12.9,0-19.2,3.6C238.6,92.8,223.001,117.1,217.9,146.5
			c-1.5,8.101-9.3,13.5-17.399,12.001c-8.101-1.5-13.801-9-12.301-17.401c8.101-46.5,35.7-81.301,67.8-89.399
			c8.101-1.8,16.199-2.401,24.3-0.901C321.7,57.999,346.301,109.3,336.1,167.2z"/>
	</g>
	<path style="fill:#E50027;" d="M336.1,167.2c-1.5,7.2-7.8,12.301-15,12.301h-2.399c-8.401-1.501-13.801-9.3-12.301-17.401
		c7.2-40.201-7.2-77.401-31.199-81.601c-6.301-1.199-12.9,0-19.2,3.6V51.701c8.101-1.8,16.199-2.401,24.3-0.901
		C321.7,57.999,346.301,109.3,336.1,167.2z"/>
	<path style="fill:#FD6244;" d="M309.101,399.099C295,413.2,276.1,421.001,256,421.001s-39-7.8-53.101-21.901
		c-5.7-5.999-5.7-15.298,0-21.299c6-5.7,15.3-5.7,21.301,0c8.399,8.399,20.099,12.9,31.8,12.9c11.7,0,23.401-4.501,31.8-12.9
		c6-5.7,15.3-5.7,21.301,0C314.801,383.801,314.801,393.101,309.101,399.099z"/>
	<circle style="fill:#57555C;" cx="196" cy="286.001" r="15"/>
	<circle style="fill:#3C3A41;" cx="316" cy="286.001" r="15"/>
	<path style="fill:#FD4E26;" d="M309.101,377.801c5.7,6,5.7,15.3,0,21.299C295,413.2,276.1,421.001,256,421.001v-30.3
		c11.7,0,23.401-4.501,31.8-12.9C293.801,372.1,303.1,372.1,309.101,377.801z"/>
</g>
<g>
</g>
<g>
</g>
<g>
</g>
<g>
</g>
<g>
</g>
<g>
</g>
<g>
</g>
<g>
</g>
<g>
</g>
<g>
</g>
<g>
</g>
<g>
</g>
<g>
</g>
<g>
</g>
<g>
</g>
</svg>
