<?xml version="1.0" encoding="iso-8859-1"?>
<!-- Generator: Adobe Illustrator 19.0.0, SVG Export Plug-In . SVG Version: 6.00 Build 0)  -->
<svg version="1.1" id="Layer_1" xmlns="http://www.w3.org/2000/svg" xmlns:xlink="http://www.w3.org/1999/xlink" x="0px" y="0px"
	 viewBox="0 0 512 512" style="enable-background:new 0 0 512 512;" xml:space="preserve">
<g>
	<g>
		<g>
			<path style="fill:#FFC5AD;" d="M397.276,174.2l-131.7-110.9c-2.701-2.1-6.301-3.3-9.6-3.3c-2.999,0-6,0.899-8.699,2.699
				l-127.202,94.1c-3.898,2.701-6.299,7.2-6.299,12.001v227.699c0,2.701,0.899,5.7,2.401,8.101
				c30.298,48.3,82.5,77.401,139.799,77.401s109.501-29.101,139.799-77.401c1.501-2.401,2.401-5.099,2.401-7.8l4.801-210.599
				C402.976,181.399,400.876,177.199,397.276,174.2z"/>
		</g>
	</g>
	<path style="fill:#FFAC8C;" d="M402.976,186.2l-4.801,210.599c0,2.701-0.899,5.4-2.401,7.8
		c-30.298,48.3-82.5,77.401-139.799,77.401V60c3.3,0,6.899,1.199,9.6,3.3l131.7,110.9
		C400.876,177.199,402.976,181.399,402.976,186.2z"/>
	<path style="fill:#B35C4B;" d="M450.675,116.999C449.476,52.2,396.375,0,330.975,0c-27.599,0-53.699,9.3-75,26.4
		C234.675,9.3,208.575,0,180.975,0c-65.4,0-118.5,52.2-119.7,116.999c-0.3,0.901-0.3,1.8-0.3,3.001v107c0,8.399,6.599,15,15,15h30
		c66.599,0,123.9-39.6,150-96.301c26.1,56.7,83.401,96.301,150,96.301h30c8.401,0,15-6.601,15-15V120
		C450.975,118.799,450.975,117.9,450.675,116.999z"/>
	<path style="fill:#A24F3D;" d="M450.975,120v107c0,8.399-6.599,15-15,15h-30c-66.599,0-123.9-39.6-150-96.301V26.4
		c21.301-17.1,47.401-26.4,75-26.4c65.4,0,118.5,52.2,119.7,116.999C450.975,117.9,450.975,118.799,450.975,120z"/>
	<g>
		<path style="fill:#A24F3D;" d="M105.975,302c-24.814,0-45-20.186-45-45s20.186-45,45-45s45,20.186,45,45S130.79,302,105.975,302z"
			/>
	</g>
	<g>
		<g>
			<path style="fill:#B35C4B;" d="M105.975,362c-24.814,0-45-20.186-45-45s20.186-45,45-45s45,20.186,45,45S130.79,362,105.975,362z
				"/>
		</g>
	</g>
	<g>
		<path style="fill:#A24F3D;" d="M105.975,422c-24.814,0-45-20.186-45-45s20.186-45,45-45s45,20.186,45,45S130.79,422,105.975,422z"
			/>
	</g>
	<g>
		<g>
			<g>
				<g>
					<path style="fill:#8B432D;" d="M405.975,302c-24.814,0-45-20.186-45-45s20.186-45,45-45s45,20.186,45,45
						S430.79,302,405.975,302z"/>
				</g>
			</g>
		</g>
	</g>
	<g>
		<g>
			<path style="fill:#A24F3D;" d="M405.975,362c-24.814,0-45-20.186-45-45s20.186-45,45-45s45,20.186,45,45S430.79,362,405.975,362z
				"/>
		</g>
	</g>
	<g>
		<path style="fill:#8B432D;" d="M405.975,422c-24.814,0-45-20.186-45-45s20.186-45,45-45s45,20.186,45,45S430.79,422,405.975,422z"
			/>
	</g>
	<g>
		<path style="fill:#B35C4B;" d="M105.975,512h-0.015c-5.376,0-10.327-2.886-12.993-7.544l-27.466-47.915
			c-3.252-7.178-4.526-13.271-4.526-19.541c0-24.814,20.186-45,45-45s45,20.186,45,45c0,7.339-1.816,14.619-5.244,21.079
			L118.968,504.5C116.288,509.144,111.337,512,105.975,512z"/>
	</g>
	<g>
		<g>
			<path style="fill:#A24F3D;" d="M405.975,512h-0.015c-5.376,0-10.327-2.886-12.993-7.544l-27.466-47.915
				C350.727,423.932,374.87,392,405.975,392c33.727,0,55.678,36.072,39.756,66.079L418.968,504.5
				C416.288,509.144,411.337,512,405.975,512z"/>
		</g>
	</g>
	<g>
		<path style="fill:#FD6244;" d="M309.076,370.099C294.975,384.2,276.075,392,255.975,392s-39-7.8-53.101-21.901
			c-5.7-5.999-5.7-15.298,0-21.299c6-5.7,15.3-5.7,21.301,0c8.399,8.399,20.099,12.9,31.8,12.9s23.401-4.501,31.8-12.9
			c6-5.7,15.3-5.7,21.301,0C314.776,354.8,314.776,364.1,309.076,370.099z"/>
	</g>
	<g>
		<circle style="fill:#57555C;" cx="195.975" cy="257" r="15"/>
	</g>
	<g>
		<g>
			<g>
				<circle style="fill:#3C3A41;" cx="315.975" cy="257" r="15"/>
			</g>
		</g>
	</g>
	<path style="fill:#FD4E26;" d="M309.076,348.8c5.7,6,5.7,15.3,0,21.299C294.975,384.2,276.075,392,255.975,392v-30.3
		c11.7,0,23.401-4.501,31.8-12.9C293.775,343.1,303.075,343.1,309.076,348.8z"/>
</g>
<g>
</g>
<g>
</g>
<g>
</g>
<g>
</g>
<g>
</g>
<g>
</g>
<g>
</g>
<g>
</g>
<g>
</g>
<g>
</g>
<g>
</g>
<g>
</g>
<g>
</g>
<g>
</g>
<g>
</g>
</svg>
