<?xml version="1.0" encoding="iso-8859-1"?>
<!-- Generator: Adobe Illustrator 19.0.0, SVG Export Plug-In . SVG Version: 6.00 Build 0)  -->
<svg version="1.1" id="Layer_1" xmlns="http://www.w3.org/2000/svg" xmlns:xlink="http://www.w3.org/1999/xlink" x="0px" y="0px"
	 viewBox="0 0 512 512" style="enable-background:new 0 0 512 512;" xml:space="preserve">
<g>
	<path style="fill:#FEDB41;" d="M512,227v75l-30-0.601C481.399,285.2,468.199,272,452,272h-15c-55.201,0-108.401-17.999-151-48.9
		c-35.7-26.1-64.501-63.199-82.8-104.599c-2.699-5.7-5.099-11.7-7.2-17.701c-5.7-15.899-9.3-32.1-11.7-48.9l27.001-39
		C235.3,4.2,260.2,0,286,0C410.2,0,512,102.8,512,227z"/>
	<path style="fill:#FCBF29;" d="M150,347c0-0.086-0.048-0.157-0.049-0.244L60,312.078C23.716,329.305,0,366.204,0,407
		c0,57.891,47.109,105,105,105c35.464,0,69.628-18.105,89.711-48.428c1.626-2.446,2.49-5.332,2.49-8.276v-0.293
		c0-4.087-1.67-7.998-4.629-10.825C165.766,418.484,150,383.973,150,347z"/>
	<path style="fill:#FCBF29;" d="M219.101,74.099c-5.101-19.799-7.5-40.199-7.8-61.199c-6.899,2.401-13.801,5.4-20.7,8.699h-0.3
		C104.491,64.556,60,146.447,60,227v75l31.8-8.401C95.4,281.3,106.5,272,120,272h15c8.401,0,15-6.599,15-15v-30
		c0-42.299,20.2-83,53.2-108.5c2.34-1.871,4.984-3.437,7.485-5.147L219.101,74.099z"/>
	<g>
		<g>
			<path style="fill:#FF9870;" d="M135,362h-15c-33.091,0-60-26.909-60-60s26.909-60,60-60h15c8.291,0,15,6.709,15,15v90
				C150,355.291,143.291,362,135,362z"/>
		</g>
	</g>
	<path style="fill:#FFC5AD;" d="M452,242v105c0,90.901-75.099,165-166,165c-42.599,0-84.101-16.199-115.3-45.901
		c-0.601-0.599-1.199-1.199-1.5-1.8c-31.8-31.5-49.2-72.9-49.2-117.299V227c0-64.2,39.101-126.2,99.101-152.901
		c1.5,5.7,3.3,11.102,5.099,16.501c12.9,35.999,34.2,67.5,61.8,92.1C326.201,218.699,380.3,242,437,242H452z"/>
	<path style="fill:#FCBF29;" d="M512,227v75l-30-0.601C481.399,285.2,468.199,272,452,272h-15c-55.201,0-108.401-17.999-151-48.9V0
		C410.2,0,512,102.8,512,227z"/>
	<path style="fill:#F28155;" d="M452,242l-31,43.189V347c0,8.291,7.709,15,16,15h15c33.091,0,60-26.909,60-60S485.091,242,452,242z"
		/>
	<path style="fill:#FFAC8C;" d="M452,242v105c0,90.901-75.099,165-166,165V182.701C326.201,218.699,380.3,242,437,242H452z"/>
	<g>
		<circle style="fill:#57555C;" cx="226" cy="287" r="15"/>
	</g>
	<g>
		<circle style="fill:#3C3A41;" cx="346" cy="287" r="15"/>
	</g>
	<g>
		<path style="fill:#FD6244;" d="M339.101,400.101C325,414.2,306.099,422,286,422s-39-7.8-53.101-21.899c-5.7-6-5.7-15.3,0-21.301
			c6-5.7,15.3-5.7,21.301,0c8.399,8.401,20.099,12.9,31.8,12.9s23.401-4.499,31.8-12.9c6-5.7,15.3-5.7,21.301,0
			C344.801,384.8,344.801,394.1,339.101,400.101z"/>
	</g>
	<path style="fill:#FD4E26;" d="M339.101,378.8c5.7,6,5.7,15.3,0,21.301C325,414.2,306.099,422,286,422v-30.3
		c11.7,0,23.401-4.499,31.8-12.9C323.8,373.1,333.1,373.1,339.101,378.8z"/>
</g>
<g>
</g>
<g>
</g>
<g>
</g>
<g>
</g>
<g>
</g>
<g>
</g>
<g>
</g>
<g>
</g>
<g>
</g>
<g>
</g>
<g>
</g>
<g>
</g>
<g>
</g>
<g>
</g>
<g>
</g>
</svg>
