<?xml version="1.0" encoding="iso-8859-1"?>
<!-- Generator: Adobe Illustrator 19.0.0, SVG Export Plug-In . SVG Version: 6.00 Build 0)  -->
<svg version="1.1" id="Layer_1" xmlns="http://www.w3.org/2000/svg" xmlns:xlink="http://www.w3.org/1999/xlink" x="0px" y="0px"
	 viewBox="0 0 512 512" style="enable-background:new 0 0 512 512;" xml:space="preserve">
<g>
	<path style="fill:#FD3C65;" d="M481,225v272c0,8.401-6.599,15-15,15H46c-8.401,0-15-6.599-15-15V225C31,100.8,131.8,0,256,0
		c60,0,116.7,23.401,159,66C457.599,108.3,481,165,481,225z"/>
	<path style="fill:#FD003A;" d="M481,225v272c0,8.401-6.599,15-15,15H256V0c60,0,116.7,23.401,159,66C457.599,108.3,481,165,481,225
		z"/>
	<path style="fill:#57555C;" d="M402.7,150L377.8,180H132.7L109.3,150c27.9-55.201,84.6-90,146.7-90
		C321.099,60,377.8,97.8,402.7,150z"/>
	<path style="fill:#B35C4B;" d="M419.801,301C412.599,385,341.8,451,256,451S99.401,385,91.901,301l30-30h265.8L419.801,301z"/>
	<path style="fill:#3C3A41;" d="M377.8,180H256V60c65.099,0,121.8,37.8,146.7,90L377.8,180z"/>
	<path style="fill:#A24F3D;" d="M419.801,301C412.599,385,341.8,451,256,451V271h131.7L419.801,301z"/>
	<path style="fill:#FFC5AD;" d="M421,225v61c-0.3,5.7-0.3,9.901-1.199,15h-327.9C91.3,296.201,91,291.099,91,286v-61
		c0-30,9-59.7,18.3-75H402.7C412,165.3,421,195,421,225z"/>
	<path style="fill:#FFAC8C;" d="M421,225v61c-0.3,5.7-0.3,9.901-1.199,15H256V150h146.7C412,165.3,421,195,421,225z"/>
	<g>
		<path style="fill:#FD6244;" d="M309.101,354.101C295,368.2,276.099,376,256,376s-39-7.8-53.101-21.899c-5.7-6-5.7-15.3,0-21.301
			c6-5.7,15.3-5.7,21.301,0c8.399,8.401,20.099,12.9,31.8,12.9s23.401-4.499,31.8-12.9c6-5.7,15.3-5.7,21.301,0
			C314.801,338.8,314.801,348.1,309.101,354.101z"/>
	</g>
	<path style="fill:#FD4E26;" d="M309.101,332.8c5.7,6,5.7,15.3,0,21.301C295,368.2,276.099,376,256,376v-30.3
		c11.7,0,23.401-4.499,31.8-12.9C293.8,327.1,303.1,327.1,309.101,332.8z"/>
	<g>
		<circle style="fill:#57555C;" cx="196" cy="225" r="15"/>
	</g>
	<g>
		<g>
			<g>
				<circle style="fill:#3C3A41;" cx="316" cy="225" r="15"/>
			</g>
		</g>
	</g>
</g>
<g>
</g>
<g>
</g>
<g>
</g>
<g>
</g>
<g>
</g>
<g>
</g>
<g>
</g>
<g>
</g>
<g>
</g>
<g>
</g>
<g>
</g>
<g>
</g>
<g>
</g>
<g>
</g>
<g>
</g>
</svg>
