<?xml version="1.0" encoding="iso-8859-1"?>
<!-- Generator: Adobe Illustrator 19.0.0, SVG Export Plug-In . SVG Version: 6.00 Build 0)  -->
<svg version="1.1" id="Layer_1" xmlns="http://www.w3.org/2000/svg" xmlns:xlink="http://www.w3.org/1999/xlink" x="0px" y="0px"
	 viewBox="0 0 512 512" style="enable-background:new 0 0 512 512;" xml:space="preserve">
<g>
	<g>
		<g>
			<path style="fill:#FF9870;" d="M121,317c0,8.291-6.709,15-15,15H91c-33.091,0-60-26.909-60-60s26.909-60,60-60h15
				c8.291,0,15,6.709,15,15V317z"/>
		</g>
	</g>
	<path style="fill:#B35C4B;" d="M421,45v113.699l-26.1,16.5L343.599,123.9C316.601,139.2,286.3,146.999,256,146.999
		s-60.601-7.798-87.599-23.099L115.3,176.7L91,158.699V45c0-24.901,20.099-45,45-45c11.4,0,21.899,4.499,30,11.4
		c15.901-14.101,44.099-14.101,60,0c7.8-7.2,18.9-10.501,30-10.501S278.2,4.2,286,11.4c15.901-14.101,44.099-14.101,60,0
		C354.101,4.499,364.6,0,376,0C400.901,0,421,20.099,421,45z"/>
	<path style="fill:#A24F3D;" d="M421,45v113.699l-26.1,16.5L343.599,123.9C316.601,139.2,286.3,146.999,256,146.999V0.899
		c11.1,0,22.2,3.301,30,10.501c15.901-14.101,44.099-14.101,60,0C354.101,4.499,364.6,0,376,0C400.901,0,421,20.099,421,45z"/>
	<g>
		<g>
			<path style="fill:#FFC5AD;" d="M356.499,94.499c-4.799-5.099-12.9-5.999-18.9-2.1c-24.598,16.201-53.099,24.6-81.599,24.6
				s-57.001-8.399-81.599-24.6c-6-3.898-14.101-2.999-18.9,2.1L91,158.699V347c0,90.899,74.099,165,165,165s165-74.101,165-165
				V158.699L356.499,94.499z"/>
		</g>
	</g>
	<g>
		<g>
			<g>
				<g>
					<path style="fill:#F28155;" d="M481,272c0,33.091-26.909,60-60,60h-15c-8.291,0-15-6.709-15-15v-90c0-8.291,6.709-15,15-15h15
						C454.091,212,481,238.909,481,272z M421,302h0.293H421z"/>
				</g>
			</g>
		</g>
	</g>
	<path style="fill:#FFAC8C;" d="M421,158.699V347c0,90.899-74.099,165-165,165V116.999c28.5,0,57.001-8.399,81.599-24.6
		c6-3.898,14.101-2.999,18.9,2.1L421,158.699z"/>
	<g>
		<path style="fill:#FD6244;" d="M309.101,400.099C295,414.2,276.099,422,256,422s-39-7.8-53.101-21.901
			c-5.7-5.999-5.7-15.298,0-21.299c6-5.7,15.3-5.7,21.301,0c8.399,8.399,20.099,12.9,31.8,12.9s23.401-4.501,31.8-12.9
			c6-5.7,15.3-5.7,21.301,0C314.801,384.8,314.801,394.1,309.101,400.099z"/>
	</g>
	<g>
		<circle style="fill:#57555C;" cx="196" cy="257" r="15"/>
	</g>
	<g>
		<g>
			<g>
				<circle style="fill:#3C3A41;" cx="316" cy="257" r="15"/>
			</g>
		</g>
	</g>
	<path style="fill:#FD4E26;" d="M309.101,378.8c5.7,6,5.7,15.3,0,21.299C295,414.2,276.099,422,256,422v-30.3
		c11.7,0,23.401-4.501,31.8-12.9C293.8,373.1,303.1,373.1,309.101,378.8z"/>
</g>
<g>
</g>
<g>
</g>
<g>
</g>
<g>
</g>
<g>
</g>
<g>
</g>
<g>
</g>
<g>
</g>
<g>
</g>
<g>
</g>
<g>
</g>
<g>
</g>
<g>
</g>
<g>
</g>
<g>
</g>
</svg>
