<?xml version="1.0" encoding="iso-8859-1"?>
<!-- Generator: Adobe Illustrator 19.0.0, SVG Export Plug-In . SVG Version: 6.00 Build 0)  -->
<svg version="1.1" id="Layer_1" xmlns="http://www.w3.org/2000/svg" xmlns:xlink="http://www.w3.org/1999/xlink" x="0px" y="0px"
	 viewBox="0 0 512 512" style="enable-background:new 0 0 512 512;" xml:space="preserve">
<g>
	<g>
		<path style="fill:#FED2A4;" d="M106,332H91c-33.091,0-60-26.909-60-60s26.909-60,60-60h15c8.291,0,15,6.709,15,15v90
			C121,325.291,114.291,332,106,332z"/>
	</g>
	<path style="fill:#FFE5C2;" d="M421,197v150c0,90.899-74.099,165-165,165S91,437.899,91,347V197c0-8.401,6.599-15,15-15h300
		C414.401,182,421,188.599,421,197z"/>
	<g>
		<path style="fill:#FFBD86;" d="M421,332h-15c-8.291,0-15-6.709-15-15v-90c0-8.291,6.709-15,15-15h15c33.091,0,60,26.909,60,60
			S454.091,332,421,332z"/>
	</g>
	<path style="fill:#FED2A4;" d="M421,197v150c0,90.899-74.099,165-165,165V182h150C414.401,182,421,188.599,421,197z"/>
	<g>
		<path style="fill:#FEDB41;" d="M506,184.999l-241-182c-2.699-1.8-6-2.999-9-2.999s-6.301,1.199-9,2.999l-241,182
			C-5.4,193.7,0.601,212,15,212h482C511.399,212,517.4,193.7,506,184.999z"/>
	</g>
	<path style="fill:#FCBF29;" d="M497,212H256V0c2.999,0,6.301,1.199,9,2.999l241,182C517.4,193.7,511.399,212,497,212z"/>
	<g>
		<path style="fill:#FD6244;" d="M309.101,400.099C295,414.2,276.099,422,256,422s-39-7.8-53.101-21.901
			c-5.7-5.999-5.7-15.298,0-21.299c6-5.7,15.3-5.7,21.301,0c8.399,8.399,20.099,12.9,31.8,12.9s23.401-4.501,31.8-12.9
			C301.901,364.699,323.2,386,309.101,400.099z"/>
	</g>
	<g>
		<circle style="fill:#57555C;" cx="196" cy="257" r="15"/>
	</g>
	<g>
		<g>
			<g>
				<circle style="fill:#3C3A41;" cx="316" cy="257" r="15"/>
			</g>
		</g>
	</g>
	<g>
		<g>
			<g>
				<path style="fill:#3C3A41;" d="M305.395,357.605l-30-30c-5.859-5.859-5.859-15.352,0-21.211s15.352-5.859,21.211,0l30,30
					c5.859,5.859,5.859,15.352,0,21.211C320.746,363.465,311.254,363.465,305.395,357.605z"/>
			</g>
		</g>
	</g>
	<g>
		<path style="fill:#57555C;" d="M185.395,357.605c-5.859-5.859-5.859-15.352,0-21.211l30-30c5.859-5.859,15.352-5.859,21.211,0
			s5.859,15.352,0,21.211l-30,30C200.746,363.465,191.254,363.465,185.395,357.605z"/>
	</g>
	<path style="fill:#FD4E26;" d="M309.101,400.099C295,414.2,276.099,422,256,422v-30.3c11.7,0,23.401-4.501,31.8-12.9
		C301.901,364.699,323.2,386,309.101,400.099z"/>
</g>
<g>
</g>
<g>
</g>
<g>
</g>
<g>
</g>
<g>
</g>
<g>
</g>
<g>
</g>
<g>
</g>
<g>
</g>
<g>
</g>
<g>
</g>
<g>
</g>
<g>
</g>
<g>
</g>
<g>
</g>
</svg>
