<?xml version="1.0" encoding="iso-8859-1"?>
<!-- Generator: Adobe Illustrator 19.0.0, SVG Export Plug-In . SVG Version: 6.00 Build 0)  -->
<svg version="1.1" id="Layer_1" xmlns="http://www.w3.org/2000/svg" xmlns:xlink="http://www.w3.org/1999/xlink" x="0px" y="0px"
	 viewBox="0 0 512.009 512.009" style="enable-background:new 0 0 512.009 512.009;" xml:space="preserve">
<g>
	<g>
		<g>
			<g>
				<g>
					<path style="fill:#2B292C;" d="M503.71,391.591c6.226,3.12,9.492,10.093,7.896,16.86c-1.611,6.768-7.646,11.558-14.604,11.558
						H342.998c-6.504,0-12.261-4.189-14.268-10.371L221.68,79.96c-1.172-3.618-0.923-7.573,0.703-11.016
						C245.454,19.93,297.017-7.096,350.952,1.62c57.041,9.243,100.049,61.802,100.049,122.256v184.043
						C451.001,343.588,471.82,375.638,503.71,391.591z"/>
				</g>
			</g>
		</g>
	</g>
	<g>
		<path style="fill:#A44F3E;" d="M90.001,346.009c0,8.291-6.709,15-15,15h-15c-33.091,0-60-26.909-60-60s26.909-60,60-60h15
			c8.291,0,15,6.709,15,15V346.009z"/>
	</g>
	<g>
		<path style="fill:#883F2E;" d="M391.001,361.009h-15c-8.291,0-15-6.709-15-15v-90c0-8.291,6.709-15,15-15h15
			c33.091,0,60,26.909,60,60S424.092,361.009,391.001,361.009z"/>
	</g>
	<path style="fill:#BB5D4C;" d="M391.001,226.009v120c0,22.8-4.501,45-13.5,66c-26.7,60.298-86.1,100-151.5,100
		c-90.901,0-165-75.101-165-166v-105l39-30h66c21.599,0,42.001-5.101,60-14.401c34.501-17.098,60.601-48.6,70.499-87.299
		l32.701-11.4C367.9,128.509,391.001,175.907,391.001,226.009z"/>
	<path style="fill:#A44F3E;" d="M391.001,226.009v120c0,22.8-4.501,45-13.5,66c-26.7,60.298-86.1,100-151.5,100V196.607
		c34.501-17.098,60.601-48.6,70.499-87.299l32.701-11.4C367.9,128.509,391.001,175.907,391.001,226.009z"/>
	<path style="fill:#57555C;" d="M329.201,97.908c-7.8,61.199-48.9,110.7-103.2,131.7c-18.9,7.5-39,11.4-60,11.4h-105v-15
		c0-43.801,17.1-85.501,47.999-116.7c31.501-31.199,73.2-48.3,117.001-48.3c34.501,0,67.8,10.8,96,30.899
		C324.402,93.708,326.801,95.507,329.201,97.908z"/>
	<path style="fill:#3C3A41;" d="M226.001,229.608v-168.6c34.501,0,67.8,10.8,96,30.899c2.401,1.8,4.799,3.6,7.2,6
		C321.401,159.107,280.301,208.608,226.001,229.608z"/>
	<g>
		<path style="fill:#990405;" d="M279.102,399.107c-14.101,14.101-33.001,21.901-53.101,21.901s-39-7.8-53.101-21.901
			c-5.7-5.999-5.7-15.298,0-21.299c6-5.7,15.3-5.7,21.301,0c8.399,8.399,20.099,12.9,31.8,12.9s23.401-4.501,31.8-12.9
			c6-5.7,15.3-5.7,21.301,0C284.802,383.809,284.802,393.109,279.102,399.107z"/>
	</g>
	<g>
		<circle style="fill:#2B292C;" cx="286.001" cy="286.009" r="15"/>
	</g>
	<g>
		<circle style="fill:#3C3A41;" cx="166.001" cy="286.009" r="15"/>
	</g>
	<path style="fill:#590602;" d="M279.102,377.808c5.7,6,5.7,15.3,0,21.299c-14.101,14.101-33.001,21.901-53.101,21.901v-30.3
		c11.7,0,23.401-4.501,31.8-12.9C263.801,372.108,273.101,372.108,279.102,377.808z"/>
</g>
<g>
</g>
<g>
</g>
<g>
</g>
<g>
</g>
<g>
</g>
<g>
</g>
<g>
</g>
<g>
</g>
<g>
</g>
<g>
</g>
<g>
</g>
<g>
</g>
<g>
</g>
<g>
</g>
<g>
</g>
</svg>
