<?xml version="1.0" encoding="iso-8859-1"?>
<!-- Generator: Adobe Illustrator 19.0.0, SVG Export Plug-In . SVG Version: 6.00 Build 0)  -->
<svg version="1.1" id="Layer_1" xmlns="http://www.w3.org/2000/svg" xmlns:xlink="http://www.w3.org/1999/xlink" x="0px" y="0px"
	 viewBox="0 0 512 512" style="enable-background:new 0 0 512 512;" xml:space="preserve">
<g>
	<g>
		<path style="fill:#57555C;" d="M256,0C115.3,0,0,114.3,0,255v242c0,8.399,6.599,15,15,15h482c8.401,0,15-6.601,15-15V255
			C512,114.3,396.7,0,256,0z"/>
	</g>
	<path style="fill:#3C3A41;" d="M512,255v242c0,8.399-6.599,15-15,15H256V0C396.7,0,512,114.3,512,255z"/>
	<path style="fill:#FFC5AD;" d="M421,240v107c0,90.899-74.099,165-165,165S91,437.899,91,347V240l32.401-30h255.599L421,240z"/>
	<path style="fill:#FFAC8C;" d="M421,240v107c0,90.899-74.099,165-165,165V210h122.999L421,240z"/>
	<g>
		<path style="fill:#FD6244;" d="M309.101,400.099C295,414.2,276.099,422,256,422s-39-7.8-53.101-21.901
			c-5.7-5.999-5.7-15.298,0-21.299c6-5.7,15.3-5.7,21.301,0c8.399,8.399,20.099,12.9,31.8,12.9s23.401-4.501,31.8-12.9
			c6-5.7,15.3-5.7,21.301,0C314.801,384.8,314.801,394.1,309.101,400.099z"/>
	</g>
	<g>
		<g>
			<circle style="fill:#3C3A41;" cx="316" cy="285" r="15"/>
		</g>
	</g>
	<g>
		<circle style="fill:#57555C;" cx="196" cy="285" r="15"/>
	</g>
	<path style="fill:#F0EDEA;" d="M301,105c0,8.399-6.599,15-15,15h-15v45c0,8.399-6.599,15-15,15s-15-6.601-15-15v-45h-15
		c-8.401,0-15-6.601-15-15c0-8.401,6.599-15,15-15h15V75c0-8.401,6.599-15,15-15s15,6.599,15,15v15h15
		C294.401,90,301,96.599,301,105z"/>
	<path style="fill:#E8E4D9;" d="M256,180V60c8.401,0,15,6.599,15,15v15h15c8.401,0,15,6.599,15,15c0,8.399-6.599,15-15,15h-15v45
		C271,173.399,264.401,180,256,180z"/>
	<path style="fill:#FD4E26;" d="M309.101,400.099C295,414.2,276.099,422,256,422v-30.3c11.7,0,23.401-4.501,31.8-12.9
		c6-5.7,15.3-5.7,21.301,0C314.801,384.8,314.801,394.1,309.101,400.099z"/>
	<g>
		<path style="fill:#F0EDEA;" d="M406,150H106c-8.401,0-15,6.599-15,15v75h330v-75C421,156.599,414.401,150,406,150z"/>
	</g>
	<path style="fill:#E8E4D9;" d="M421,165v75H256v-90h150C414.401,150,421,156.599,421,165z"/>
</g>
<g>
</g>
<g>
</g>
<g>
</g>
<g>
</g>
<g>
</g>
<g>
</g>
<g>
</g>
<g>
</g>
<g>
</g>
<g>
</g>
<g>
</g>
<g>
</g>
<g>
</g>
<g>
</g>
<g>
</g>
</svg>
