<?xml version="1.0" encoding="iso-8859-1"?>
<!-- Generator: Adobe Illustrator 19.0.0, SVG Export Plug-In . SVG Version: 6.00 Build 0)  -->
<svg version="1.1" id="Layer_1" xmlns="http://www.w3.org/2000/svg" xmlns:xlink="http://www.w3.org/1999/xlink" x="0px" y="0px"
	 viewBox="0 0 512 512" style="enable-background:new 0 0 512 512;" xml:space="preserve">
<g>
	<path style="fill:#F28155;" d="M421,241h-18.003c-8.291,0-15,6.709-15,15L391,346c0,8.291,6.709,15,15,15h15
		c33.091,0,60-26.909,60-60S454.091,241,421,241z"/>
	<path style="fill:#FF9870;" d="M109.003,241H91c-33.091,0-60,26.909-60,60s26.909,60,60,60h15c8.291,0,15-6.709,15-15l3.003-90
		C124.003,247.709,117.294,241,109.003,241z"/>
	<path style="fill:#994C0F;" d="M391,75c0,24.899-20.099,45-45,45s-45-20.101-45-45c0-8.401,6.599-15,15-15s15,6.599,15,15
		c0,8.399,6.599,15,15,15s15-6.601,15-15c0-24.901-20.099-45-45-45s-45,20.099-45,45v60c0,8.399-6.599,15-15,15s-15-6.601-15-15V75
		c0-16.8,5.4-32.401,15-44.7C269.5,11.999,291.4,0,316,0C357.4,0,391,33.6,391,75z"/>
	<path style="fill:#713708;" d="M391,75c0,24.899-20.099,45-45,45s-45-20.101-45-45c0-8.401,6.599-15,15-15s15,6.599,15,15
		c0,8.399,6.599,15,15,15s15-6.601,15-15c0-24.901-20.099-45-45-45s-45,20.099-45,45v60c0,8.399-6.599,15-15,15V30.3
		C269.5,11.999,291.4,0,316,0C357.4,0,391,33.6,391,75z"/>
	<path style="fill:#FFC5AD;" d="M256,121c-90.901,0-165,74.099-165,165v90c0,74.399,60.601,136,135,136h60
		c74.399,0,135-61.601,135-136v-90C421,195.099,346.901,121,256,121z"/>
	<path style="fill:#FFAC8C;" d="M421,286v90c0,74.399-60.601,136-135,136h-30V121C346.901,121,421,195.099,421,286z"/>
	<path style="fill:#FD6244;" d="M309.101,399.099C295,413.2,276.099,421,256,421s-39-7.8-53.101-21.901
		c-5.7-5.999-5.7-15.298,0-21.299c6-5.7,15.3-5.7,21.301,0c8.399,8.399,20.099,12.9,31.8,12.9s23.401-4.501,31.8-12.9
		c6-5.7,15.3-5.7,21.301,0C314.801,383.8,314.801,393.1,309.101,399.099z"/>
	<circle style="fill:#3C3A41;" cx="316" cy="286" r="15"/>
	<circle style="fill:#57555C;" cx="196" cy="286" r="15"/>
	<path style="fill:#FD4E26;" d="M309.101,377.8c5.7,6,5.7,15.3,0,21.299C295,413.2,276.099,421,256,421v-30.3
		c11.7,0,23.401-4.501,31.8-12.9C293.8,372.1,303.1,372.1,309.101,377.8z"/>
</g>
<g>
</g>
<g>
</g>
<g>
</g>
<g>
</g>
<g>
</g>
<g>
</g>
<g>
</g>
<g>
</g>
<g>
</g>
<g>
</g>
<g>
</g>
<g>
</g>
<g>
</g>
<g>
</g>
<g>
</g>
</svg>
