<?xml version="1.0" encoding="iso-8859-1"?>
<!-- Generator: Adobe Illustrator 19.0.0, SVG Export Plug-In . SVG Version: 6.00 Build 0)  -->
<svg version="1.1" id="Layer_1" xmlns="http://www.w3.org/2000/svg" xmlns:xlink="http://www.w3.org/1999/xlink" x="0px" y="0px"
	 viewBox="0 0 512.061 512.061" style="enable-background:new 0 0 512.061 512.061;" xml:space="preserve">
<g>
	<g>
		<path style="fill:#57555C;" d="M466.03,151.03h-420c-8.401,0-15,6.599-15,15v331c0,8.399,6.599,15,15,15h420
			c8.401,0,15-6.601,15-15v-331C481.03,157.63,474.431,151.03,466.03,151.03z"/>
	</g>
	<path style="fill:#3C3A41;" d="M481.03,166.03v331c0,8.399-6.599,15-15,15h-210v-361h210
		C474.431,151.03,481.03,157.63,481.03,166.03z"/>
	<path style="fill:#D78878;" d="M91.03,242.03c-33.091,0-60,26.909-60,60s26.909,60,60,60h15c8.291,0,15-6.709,15-15v-58.742
		L91.03,242.03z"/>
	<path style="fill:#CA6E59;" d="M421.03,242.03l-30,45.297v59.703c0,8.291,6.709,15,15,15h15c33.091,0,60-26.909,60-60
		S454.121,242.03,421.03,242.03z"/>
	<g>
		<path style="fill:#EB9C8D;" d="M380.83,242.03c-50.099,0-94.499-33.1-110.7-80.801c-2.098-5.999-8.099-9.3-14.099-9.3
			s-12.001,3.301-14.099,9.3c-16.201,47.701-60.601,80.801-110.7,80.801H91.03v105c0,90.899,74.099,165,165,165s165-74.101,165-165
			v-105H380.83z"/>
	</g>
	<path style="fill:#D78878;" d="M421.03,242.03v105c0,90.899-74.099,165-165,165V151.93c6,0,12.001,3.301,14.099,9.3
		c16.201,47.701,60.601,80.801,110.7,80.801H421.03z"/>
	<g>
		<path style="fill:#FEDB41;" d="M505.131,153.429l-241-151c-2.701-1.8-5.4-2.399-8.101-2.399s-5.4,0.599-8.101,2.399l-241,151
			c-12.599,7.8-6.899,27.601,8.101,27.601h482C512.03,181.03,517.731,161.229,505.131,153.429z"/>
	</g>
	<path style="fill:#FCBF29;" d="M497.03,181.03h-241v-181c2.701,0,5.4,0.599,8.101,2.399l241,151
		C517.731,161.229,512.03,181.03,497.03,181.03z"/>
	<g>
		<path style="fill:#CA6E59;" d="M309.131,400.129C295.03,414.23,276.13,422.03,256.03,422.03s-39-7.8-53.101-21.901
			c-5.7-5.999-5.7-15.298,0-21.299c6-5.7,15.3-5.7,21.301,0c8.399,8.399,20.099,12.9,31.8,12.9s23.401-4.501,31.8-12.9
			c6-5.7,15.3-5.7,21.301,0C314.831,384.831,314.831,394.131,309.131,400.129z"/>
	</g>
	<g>
		<circle style="fill:#3C3A41;" cx="196.03" cy="287.03" r="15"/>
	</g>
	<g>
		<g>
			<g>
				<circle style="fill:#2B292C;" cx="316.03" cy="287.03" r="15"/>
			</g>
		</g>
	</g>
	<path style="fill:#A44F3E;" d="M309.131,378.83c5.7,6,5.7,15.3,0,21.299C295.03,414.23,276.13,422.03,256.03,422.03v-30.3
		c11.7,0,23.401-4.501,31.8-12.9C293.831,373.13,303.131,373.13,309.131,378.83z"/>
</g>
<g>
</g>
<g>
</g>
<g>
</g>
<g>
</g>
<g>
</g>
<g>
</g>
<g>
</g>
<g>
</g>
<g>
</g>
<g>
</g>
<g>
</g>
<g>
</g>
<g>
</g>
<g>
</g>
<g>
</g>
</svg>
