<?xml version="1.0" encoding="iso-8859-1"?>
<!-- Generator: Adobe Illustrator 19.0.0, SVG Export Plug-In . SVG Version: 6.00 Build 0)  -->
<svg version="1.1" id="Layer_1" xmlns="http://www.w3.org/2000/svg" xmlns:xlink="http://www.w3.org/1999/xlink" x="0px" y="0px"
	 viewBox="0 0 512.016 512.016" style="enable-background:new 0 0 512.016 512.016;" xml:space="preserve">
<g>
	<g>
		<g>
			<path style="fill:#F28155;" d="M421.008,361.016h-15c-8.291,0-15-6.709-15-15v-90c0-8.291,6.709-15,15-15h15
				c33.091,0,60,26.909,60,60S454.099,361.016,421.008,361.016z"/>
		</g>
	</g>
	<g>
		<path style="fill:#FF9870;" d="M106.008,361.016h-15c-33.091,0-60-26.909-60-60s26.909-60,60-60h15c8.291,0,15,6.709,15,15v90
			C121.008,354.307,114.299,361.016,106.008,361.016z"/>
	</g>
	<path style="fill:#F0EDEA;" d="M421.008,228.116v117.9c0,90.899-74.099,166-165,166s-165-75.101-165-166v-120
		c0-13.801,2.1-28.301,5.4-41.501l128.101-98.099l31.5,22.5L421.008,228.116z"/>
	<path style="fill:#E8E4D9;" d="M421.008,228.116v117.9c0,90.899-74.099,166-165,166v-403.1L421.008,228.116z"/>
	<g>
		<path style="fill:#FD003A;" d="M309.109,399.115c-14.101,14.101-33.001,21.901-53.101,21.901s-39-7.8-53.101-21.901
			c-5.7-5.999-5.7-15.298,0-21.299c6-5.7,15.3-5.7,21.301,0c8.399,8.399,20.099,12.9,31.8,12.9s23.401-4.501,31.8-12.9
			c6-5.7,15.3-5.7,21.301,0C314.809,383.816,314.809,393.116,309.109,399.115z"/>
	</g>
	<g>
		<circle style="fill:#57555C;" cx="196.008" cy="256.016" r="15"/>
	</g>
	<g>
		<g>
			<circle style="fill:#3C3A41;" cx="316.008" cy="256.016" r="15"/>
		</g>
	</g>
	<g>
		<path style="fill:#FD003A;" d="M256.008,271.016c-24.901,0-45,20.099-45,45c0,24.899,20.099,45,45,45s45-20.101,45-45
			C301.008,291.115,280.908,271.016,256.008,271.016z"/>
	</g>
	<path style="fill:#FD003A;" d="M432.108,147.315l-11.1,80.801c-1.199,7.5-7.5,12.9-15,12.9c-59.099,0-113.401-27.4-150-70
		c-21.599-25.201-37.2-55.801-44.099-90l-0.601-3.001c-1.5-7.8,2.999-15.3,10.499-17.401l34.2-9.899l44.399-12.601l32.401,22.202
		c7.2,33.9,36.899,59.399,72.299,59.7L432.108,147.315z"/>
	<path style="fill:#E50027;" d="M256.008,361.016v-90c24.901,0,45,20.099,45,45C301.008,340.915,280.908,361.016,256.008,361.016z"
		/>
	<path style="fill:#E50027;" d="M309.109,377.816c5.7,6,5.7,15.3,0,21.299c-14.101,14.101-33.001,21.901-53.101,21.901v-30.3
		c11.7,0,23.401-4.501,31.8-12.9C293.808,372.116,303.108,372.116,309.109,377.816z"/>
	<path style="fill:#E50027;" d="M432.108,147.315l-11.1,80.801c-1.199,7.5-7.5,12.9-15,12.9c-59.099,0-113.401-27.4-150-70v-120.3
		l44.399-12.601l32.401,22.202c7.2,33.9,36.899,59.399,72.299,59.7L432.108,147.315z"/>
	<g>
		<path style="fill:#19DEC1;" d="M121.008,210.016c-33.091,0-60-26.909-60-60c0-10.679,2.812-20.859,8.203-30
			c-5.391-9.141-8.203-19.321-8.203-30c0-33.091,26.909-60,60-60c10.679,0,20.859,2.813,30,8.203c9.141-5.391,19.321-8.203,30-8.203
			c33.091,0,60,26.909,60,60s-26.909,60-60,60C181.008,183.107,154.099,210.016,121.008,210.016z M181.008,150.016h0.293H181.008z"
			/>
	</g>
	<g>
		<g>
			<path style="fill:#FCBF29;" d="M406.008,150.016c-56.045,0-102.158-43.945-104.985-100.034l-0.6-11.921L431.892,0.587
				c4.893-1.421,10.151-0.22,13.989,3.135c3.823,3.34,5.698,8.394,4.98,13.418l-18.689,130.201l-11.091,1.606
				C416.174,149.664,411.267,150.016,406.008,150.016z"/>
		</g>
	</g>
</g>
<g>
</g>
<g>
</g>
<g>
</g>
<g>
</g>
<g>
</g>
<g>
</g>
<g>
</g>
<g>
</g>
<g>
</g>
<g>
</g>
<g>
</g>
<g>
</g>
<g>
</g>
<g>
</g>
<g>
</g>
</svg>
