<?xml version="1.0" encoding="iso-8859-1"?>
<!-- Generator: Adobe Illustrator 19.0.0, SVG Export Plug-In . SVG Version: 6.00 Build 0)  -->
<svg version="1.1" id="Layer_1" xmlns="http://www.w3.org/2000/svg" xmlns:xlink="http://www.w3.org/1999/xlink" x="0px" y="0px"
	 viewBox="0 0 512 512" style="enable-background:new 0 0 512 512;" xml:space="preserve">
<g>
	<g>
		<path style="fill:#FCBF29;" d="M452,422c-33.091,0-60-26.909-60-60c0-6.841,1.157-13.564,3.413-19.995
			c2.754-7.808,11.338-11.851,19.146-9.155c7.808,2.769,11.909,11.338,9.155,19.146C422.571,355.203,422,358.572,422,362
			c0,16.538,13.462,30,30,30s30-13.462,30-30c0-13.506-9.082-25.4-22.09-28.945c-7.998-2.183-12.715-10.415-10.532-18.413
			s10.474-12.773,18.413-10.532C493.821,311.199,512,335.003,512,362C512,395.091,485.091,422,452,422z"/>
	</g>
	<g>
		<path style="fill:#FEDB41;" d="M60,422c-33.091,0-60-26.909-60-60c0-26.997,18.179-50.801,44.209-57.891
			c8.013-2.256,16.245,2.534,18.413,10.532c2.183,7.998-2.534,16.23-10.532,18.413C39.082,336.6,30,348.494,30,362
			c0,16.538,13.462,30,30,30s30-13.462,30-30c0-3.428-0.571-6.797-1.714-10.005c-2.754-7.808,1.348-16.377,9.155-19.146
			c7.866-2.681,16.377,1.348,19.146,9.155C118.843,348.436,120,355.159,120,362C120,395.091,93.091,422,60,422z"/>
	</g>
	<g>
		<path style="fill:#CA6E59;" d="M120,347c0,8.291-6.709,15-15,15H90c-33.091,0-60-26.909-60-60s26.909-61,60-61h15
			c8.291,0,15,6.709,15,15V347z"/>
	</g>
	<g>
		<path style="fill:#BB5D4C;" d="M482,302c0,33.091-26.909,60-60,60h-15c-8.291,0-15-6.709-15-15v-91c0-8.291,6.709-15,15-15h15
			C455.091,241,482,268.909,482,302z M422,332h0.293H422z"/>
	</g>
	<path style="fill:#D78878;" d="M421,240.099V347c0,90.901-74.099,165-165,165S91,437.901,91,347V241l26.7-30.901
		c43.5-3.6,83.099-28.499,105.3-66.899c2.098-3.9,5.7-6.299,10.199-7.2l22.8-4.2l13.5-2.699c6.599-1.201,13.2,2.1,16.199,7.8
		C306.4,178.299,346,205,391,210.099l29.399,30.3L421,240.099z"/>
	<path style="fill:#CA6E59;" d="M421,240.099V347c0,90.901-74.099,165-165,165V131.8l13.5-2.699c6.599-1.201,13.2,2.1,16.199,7.8
		C306.4,178.299,346,205,391,210.099l29.399,30.3L421,240.099z"/>
	<path style="fill:#3C3A41;" d="M331,75c0,5.099-0.601,10.201-1.5,15c-1.5,6.899-7.8,12.001-14.7,12.001c-0.901,0-1.8,0-3.001-0.3
		H200.2c-8.101,1.5-16.201-3.6-17.701-11.7c-0.899-4.799-1.5-9.901-1.5-15c0-41.4,33.6-75,75-75S331,33.6,331,75z"/>
	<path style="fill:#2B292C;" d="M331,75c0,5.099-0.601,10.201-1.5,15c-1.5,6.899-7.8,12.001-14.7,12.001c-0.901,0-1.8,0-3.001-0.3
		H256V0C297.4,0,331,33.6,331,75z"/>
	<g>
		<path style="fill:#57555C;" d="M372.7,108.999C341.499,78.1,299.801,61,256,61c-90.901,0-165,74.099-165,165v15h15
			c56.4,0,109.2-29.399,139.2-76.8l10.8-2.1l8.401-1.5c32.098,54,91.8,85.199,155.999,79.799
			C424.6,191.201,407.199,144.101,372.7,108.999z"/>
	</g>
	<path style="fill:#3C3A41;" d="M420.399,240.399c-64.199,5.4-123.9-25.8-155.999-79.799L256,162.1V61
		c43.801,0,85.499,17.1,116.7,47.999C407.199,144.101,424.6,191.201,420.399,240.399z"/>
	<g>
		<circle style="fill:#3C3A41;" cx="196" cy="287" r="15"/>
	</g>
	<g>
		<g>
			<g>
				<circle style="fill:#2B292C;" cx="316" cy="287" r="15"/>
			</g>
		</g>
	</g>
	<g>
		<path style="fill:#990405;" d="M309.101,400.101C295,414.2,276.099,422,256,422s-39-7.8-53.101-21.899c-5.7-6-5.7-15.3,0-21.301
			c6-5.7,15.3-5.7,21.301,0c8.399,8.401,20.099,12.9,31.8,12.9s23.401-4.499,31.8-12.9c6-5.7,15.3-5.7,21.301,0
			C314.801,384.8,314.801,394.1,309.101,400.101z"/>
	</g>
	<g>
		<path style="fill:#FD6244;" d="M333.999,136c-8.099-14.099-22.798-22.5-39.3-21.899C286.901,100,272.5,91,256,91
			s-30.901,9-38.699,23.101c-17.1-0.901-31.201,7.8-39.3,21.899c-8.101,14.099-7.5,31.5,0.599,45c-8.099,13.5-8.699,30.901-0.599,45
			c8.099,14.099,22.2,21.899,39.3,21.899C225.099,262,239.5,272,256,272s30.901-10,38.699-24.101c16.501-0.3,31.201-7.8,39.3-21.899
			c8.101-14.099,7.5-31.5-0.599-45C341.499,167.5,342.1,150.099,333.999,136z"/>
	</g>
	<path style="fill:#590602;" d="M309.101,378.8c5.7,6,5.7,15.3,0,21.301C295,414.2,276.099,422,256,422v-30.3
		c11.7,0,23.401-4.499,31.8-12.9C293.8,373.1,303.1,373.1,309.101,378.8z"/>
	<path style="fill:#FD4E26;" d="M333.401,181c8.099,13.5,8.699,30.901,0.599,45c-8.099,14.099-22.798,21.599-39.3,21.899
		C286.901,262,272.5,272,256,272V91c16.5,0,30.901,9,38.699,23.101c16.501-0.601,31.201,7.8,39.3,21.899
		C342.1,150.099,341.499,167.5,333.401,181z"/>
	<g>
		<path style="fill:#FEDB41;" d="M271,181c0,8.401-6.599,15-15,15s-15-6.599-15-15s6.599-15,15-15S271,172.599,271,181z"/>
	</g>
	<path style="fill:#FCBF29;" d="M256,196v-30c8.401,0,15,6.599,15,15S264.401,196,256,196z"/>
</g>
<g>
</g>
<g>
</g>
<g>
</g>
<g>
</g>
<g>
</g>
<g>
</g>
<g>
</g>
<g>
</g>
<g>
</g>
<g>
</g>
<g>
</g>
<g>
</g>
<g>
</g>
<g>
</g>
<g>
</g>
</svg>
