<?xml version="1.0" encoding="iso-8859-1"?>
<!-- Generator: Adobe Illustrator 19.0.0, SVG Export Plug-In . SVG Version: 6.00 Build 0)  -->
<svg version="1.1" id="Layer_1" xmlns="http://www.w3.org/2000/svg" xmlns:xlink="http://www.w3.org/1999/xlink" x="0px" y="0px"
	 viewBox="0 0 512 512" style="enable-background:new 0 0 512 512;" xml:space="preserve">
<g>
	<g>
		<path style="fill:#FCBF29;" d="M452,391c-33.091,0-60-26.909-60-60c0-6.841,1.157-13.564,3.413-19.995
			c2.754-7.793,11.338-11.88,19.146-9.155c7.808,2.769,11.909,11.338,9.155,19.146C422.571,324.203,422,327.572,422,331
			c0,16.538,13.462,30,30,30s30-13.462,30-30c0-13.506-9.082-25.4-22.09-28.945c-7.998-2.183-12.715-10.415-10.532-18.413
			s10.474-12.715,18.413-10.532C493.821,280.199,512,304.003,512,331C512,364.091,485.091,391,452,391z"/>
	</g>
	<g>
		<path style="fill:#F28155;" d="M422,331h-15c-8.291,0-15-6.709-15-15v-90c0-8.291,6.709-15,15-15h15c33.091,0,60,26.909,60,60
			S455.091,331,422,331z M422,301h0.293H422z"/>
	</g>
	<path style="fill:#FFC5AD;" d="M421,196v120c0,90.901-74.099,165-165,165c-70.201,0-132.9-44.399-156-111
		c-1.5-4.499-0.899-9.3,1.8-13.5c5.7-8.099,19.2-30.298,19.2-55.499c0-35.4-25.8-64.799-26.1-65.099
		c-3.9-4.2-5.099-10.501-2.701-15.901c2.401-5.4,7.8-9,13.801-9h25.201c42.9,0,81.299-23.401,101.999-60
		c3.3-6.301,6.301-12.9,8.701-19.799c1.8-6,7.798-10.201,14.099-10.201h130.201c11.398,12.001,28.2,30,28.2,30
		C418.9,165.399,421,180.399,421,196z"/>
	<path style="fill:#FFAC8C;" d="M421,196v120c0,90.901-74.099,165-165,165V121h130.201c11.398,12.001,28.2,30,28.2,30
		C418.9,165.399,421,180.399,421,196z"/>
	<g>
		<circle style="fill:#57555C;" cx="196" cy="256" r="15"/>
	</g>
	<g>
		<g>
			<g>
				<circle style="fill:#3C3A41;" cx="316" cy="256" r="15"/>
			</g>
		</g>
	</g>
	<g>
		<path style="fill:#FD6244;" d="M309.101,369.101C295,383.2,276.099,391,256,391s-39-7.8-53.101-21.899c-5.7-6-5.7-15.3,0-21.301
			c6-5.7,15.3-5.7,21.301,0c8.399,8.401,20.099,12.9,31.8,12.9s23.401-4.499,31.8-12.9c6-5.7,15.3-5.7,21.301,0
			C314.801,353.8,314.801,363.1,309.101,369.101z"/>
	</g>
	<path style="fill:#57555C;" d="M270.099,140.799c-1.199,3.301-2.399,6.901-3.898,10.201c-3.001,6.899-6.301,13.801-10.201,20.099
		C229.9,213.999,182.8,241,131.201,241H106c-8.401,0-15-6.599-15-15v-30c0-15.601,2.1-30.601,6.599-45c0,0,30-19.799,45-30H256
		c4.799,0,9.3,2.401,12.299,6.301C271,131.201,271.901,136.3,270.099,140.799z"/>
	<path style="fill:#FD003A;" d="M110.962,242.86L105,211C47.109,211,0,258.109,0,316v30c0,8.291,6.709,15,15,15
		c26.88,0,53.306-10.605,72.495-29.092c3.647-3.516,5.273-8.613,4.336-13.594C90.806,312.895,90,306.947,90,301
		C90,275.878,103.323,253.614,110.962,242.86z"/>
	<path style="fill:#3C3A41;" d="M270.099,140.799c-1.199,3.301-2.399,6.901-3.898,10.201c-3.001,6.899-6.301,13.801-10.201,20.099
		V121c4.799,0,9.3,2.401,12.299,6.301C271,131.201,271.901,136.3,270.099,140.799z"/>
	<path style="fill:#FD4E26;" d="M309.101,369.101C295,383.2,276.099,391,256,391v-30.3c11.7,0,23.401-4.499,31.8-12.9
		c6-5.7,15.3-5.7,21.301,0C314.801,353.8,314.801,363.1,309.101,369.101z"/>
	<g>
		<path style="fill:#FD3C65;" d="M407.199,130c-26.4-60.3-85.8-99-151.199-99s-124.799,38.699-151.199,99
			c-3.001,6.901-5.4,13.801-7.202,21h316.802C412.599,143.8,410.2,136.901,407.199,130z"/>
	</g>
	<path style="fill:#FD003A;" d="M414.401,151H256V31c65.4,0,124.799,38.699,151.199,99C410.2,136.901,412.599,143.8,414.401,151z"/>
	<g>
		<path style="fill:#FD3C65;" d="M105.029,390.956c-0.073,0-0.146,0-0.22,0c-4.219-0.059-8.247-1.86-11.045-5.024
			c-0.952-1.069-23.32-26.675-31.289-61.494C60.776,315.473,60,307.987,60,301c0-46.582,32.432-83.438,33.809-84.99
			c5.684-6.387,16.699-6.387,22.383,0C117.568,217.563,150,254.418,150,301c0,32.622-15.41,59.604-24.595,72.773
			c-5.083,7.808-9.39,12.407-9.39,12.407C113.174,389.213,109.175,390.956,105.029,390.956z"/>
	</g>
</g>
<g>
</g>
<g>
</g>
<g>
</g>
<g>
</g>
<g>
</g>
<g>
</g>
<g>
</g>
<g>
</g>
<g>
</g>
<g>
</g>
<g>
</g>
<g>
</g>
<g>
</g>
<g>
</g>
<g>
</g>
</svg>
