<?xml version="1.0" encoding="iso-8859-1"?>
<!-- Generator: Adobe Illustrator 19.0.0, SVG Export Plug-In . SVG Version: 6.00 Build 0)  -->
<svg version="1.1" id="Layer_1" xmlns="http://www.w3.org/2000/svg" xmlns:xlink="http://www.w3.org/1999/xlink" x="0px" y="0px"
	 viewBox="0 0 512.3 512.3" style="enable-background:new 0 0 512.3 512.3;" xml:space="preserve">
<g>
	<g>
		<path style="fill:#E8E4D9;" d="M461.649,170.099c3.301-19.799-0.298-39.901-10.499-57.299
			c-9.901-17.701-25.8-30.901-44.399-38.101c-7.2-18.6-20.4-34.499-38.101-44.399c-17.401-10.201-37.5-13.801-57.299-10.499
			C295.15,6.601,275.651,0,256.15,0s-39,6.601-55.201,19.801C181.45,16.5,161.051,20.099,143.65,30.3
			c-17.701,9.901-30.901,25.8-38.101,44.399c-18.6,7.2-34.499,20.4-44.399,38.101c-10.201,17.399-13.801,37.5-10.499,57.299
			c-26.4,32.1-26.4,78.3,0,110.4C49.75,285,49.45,289.501,49.45,294c0,8.401,6.601,15,15,15h383.401c8.399,0,15-6.599,15-15
			c0-4.499-0.3-9-1.201-13.5C488.05,248.399,488.05,202.2,461.649,170.099z"/>
	</g>
	<path style="fill:#D9D5CB;" d="M461.649,280.499c0.901,4.501,1.201,9.001,1.201,13.5c0,8.401-6.601,15-15,15h-191.7V0
		c19.501,0,39,6.601,55.201,19.801C331.15,16.5,351.25,20.099,368.65,30.3c17.701,9.901,30.901,25.8,38.101,44.399
		c18.6,7.2,34.499,20.4,44.399,38.101c10.201,17.399,13.801,37.5,10.499,57.299C488.05,202.2,488.05,248.399,461.649,280.499z"/>
	<g>
		<g>
			<path style="fill:#FF9870;" d="M106.15,390.3h-15c-33.091,0-60-26.909-60-60s26.909-60,60-60h15c8.291,0,15,6.709,15,15v90
				C121.15,383.591,114.441,390.3,106.15,390.3z"/>
		</g>
	</g>
	<path style="fill:#F28155;" d="M421.15,270.3l-30,31.82v73.18c0,8.291,6.709,15,15,15h15c33.091,0,60-26.909,60-60
		S454.241,270.3,421.15,270.3z"/>
	<path style="fill:#FFC5AD;" d="M421.15,270.3v137c0,57.9-47.1,105-105,105h-120c-57.9,0-105-47.1-105-105v-122
		c0-68.401,41.1-128.701,105-153.6c8.401-3.9,17.999,1.8,19.799,9.899C223.151,167.1,237.25,189,256.15,205.8
		c24,21.601,55.8,34.501,90,34.501h45C407.65,240.3,421.15,253.801,421.15,270.3z"/>
	<path style="fill:#FFAC8C;" d="M421.15,270.3v137c0,57.9-47.1,105-105,105h-60V205.8c24,21.601,55.8,34.501,90,34.501h45
		C407.65,240.3,421.15,253.801,421.15,270.3z"/>
	<g>
		<path style="fill:#FD6244;" d="M309.251,430.399C295.15,444.5,276.25,452.3,256.15,452.3s-39-7.8-53.101-21.901
			c-5.7-5.999-5.7-15.298,0-21.299c6-5.7,15.3-5.7,21.301,0c8.399,8.399,20.099,12.9,31.8,12.9s23.401-4.501,31.8-12.9
			c6-5.7,15.3-5.7,21.301,0C314.951,415.101,314.951,424.401,309.251,430.399z"/>
	</g>
	<path style="fill:#57555C;" d="M166.15,390.3c-41.353,0-75-33.647-75-75s33.647-75,75-75s75,33.647,75,75
		S207.503,390.3,166.15,390.3z"/>
	<path style="fill:#F0EDEA;" d="M166.15,360.3c-24.814,0-45-20.186-45-45s20.186-45,45-45s45,20.186,45,45
		S190.965,360.3,166.15,360.3z"/>
	<path style="fill:#3C3A41;" d="M346.15,390.3c-41.353,0-75-33.647-75-75s33.647-75,75-75s75,33.647,75,75
		S387.503,390.3,346.15,390.3z"/>
	<path style="fill:#E8E4D9;" d="M346.15,360.3c-24.814,0-45-20.186-45-45s20.186-45,45-45s45,20.186,45,45
		S370.965,360.3,346.15,360.3z"/>
	<g>
		<path style="fill:#57555C;" d="M301.15,315.3c0,8.399-6.599,15-15,15h-60c-8.401,0-15-6.601-15-15c0-8.401,6.599-15,15-15h60
			C294.551,300.3,301.15,306.899,301.15,315.3z"/>
	</g>
	<path style="fill:#3C3A41;" d="M286.15,330.3h-30v-30h30c8.401,0,15,6.599,15,15C301.15,323.699,294.551,330.3,286.15,330.3z"/>
	<path style="fill:#FD4E26;" d="M309.251,430.399C295.15,444.5,276.25,452.3,256.15,452.3V422c11.7,0,23.401-4.501,31.8-12.9
		c6-5.7,15.3-5.7,21.301,0C314.951,415.101,314.951,424.401,309.251,430.399z"/>
</g>
<g>
</g>
<g>
</g>
<g>
</g>
<g>
</g>
<g>
</g>
<g>
</g>
<g>
</g>
<g>
</g>
<g>
</g>
<g>
</g>
<g>
</g>
<g>
</g>
<g>
</g>
<g>
</g>
<g>
</g>
</svg>
