<?xml version="1.0" encoding="iso-8859-1"?>
<!-- Generator: Adobe Illustrator 19.0.0, SVG Export Plug-In . SVG Version: 6.00 Build 0)  -->
<svg version="1.1" id="Layer_1" xmlns="http://www.w3.org/2000/svg" xmlns:xlink="http://www.w3.org/1999/xlink" x="0px" y="0px"
	 viewBox="0 0 512 512" style="enable-background:new 0 0 512 512;" xml:space="preserve">
<g>
	<path style="fill:#FE73B1;" d="M496.7,301c9.901-12.9,15.3-29.801,15.3-46c0-24.6-12.299-47.401-32.1-61.201
		C464.299,82.8,368.8,0,256,0S47.701,82.8,32.1,193.799C12.299,207.599,0,230.4,0,255c0,16.199,5.4,33.1,15.3,46
		C5.4,313.9,0,330.799,0,347c0,16.199,5.4,32.1,15.3,45C5.4,404.9,0,420.799,0,437c0,41.4,33.6,75,75,75h362c41.4,0,75-33.6,75-75
		c0-16.201-5.4-32.1-15.3-45c9.901-12.9,15.3-28.801,15.3-45C512,330.799,506.6,313.9,496.7,301z"/>
	<path style="fill:#FE52A2;" d="M512,347c0,16.199-5.4,32.1-15.3,45c9.901,12.9,15.3,28.799,15.3,45c0,41.4-33.6,75-75,75H256V0
		c112.8,0,208.299,82.8,223.9,193.799C499.701,207.599,512,230.4,512,255c0,16.199-5.4,33.1-15.3,46
		C506.6,313.9,512,330.799,512,347z"/>
	<path style="fill:#FFC5AD;" d="M418.7,221.999c-1.5-6.899-7.5-11.999-14.7-11.999c-62.1,0-116.801-42.001-131.801-102.301
		l-1.8-6.299c-1.8-6.601-8.099-10.201-14.399-10.201s-12.599,3.6-14.399,10.201l-1.8,6.599c-15,60-69.701,102.001-131.801,102.001
		c-7.2,0-13.2,5.099-14.7,11.999C91.199,232.8,90,243.9,90,255v62c0,74.399,61.601,135,136,135h60c74.399,0,136-60.601,136-135v-62
		C422,243.9,420.801,232.8,418.7,221.999z"/>
	<path style="fill:#FFAC8C;" d="M422,255v62c0,74.399-61.601,135-136,135h-30V91.199c6.301,0,12.599,3.6,14.399,10.201l1.8,6.299
		c15,60.3,69.701,102.301,131.801,102.301c7.2,0,13.2,5.099,14.7,11.999C420.801,232.8,422,243.9,422,255z"/>
	<path style="fill:#FD6244;" d="M309.101,370.099C295,384.2,276.099,392,256,392s-39-7.8-53.101-21.901
		c-5.7-5.999-5.7-15.298,0-21.299c6-5.7,15.3-5.7,21.301,0c8.399,8.399,20.099,12.9,31.8,12.9s23.401-4.501,31.8-12.9
		c6-5.7,15.3-5.7,21.301,0C314.801,354.8,314.801,364.1,309.101,370.099z"/>
	<circle style="fill:#57555C;" cx="196" cy="255" r="15"/>
	<circle style="fill:#3C3A41;" cx="316" cy="255" r="15"/>
	<path style="fill:#FD4E26;" d="M309.101,370.099C295,384.2,276.099,392,256,392v-30.3c11.7,0,23.401-4.501,31.8-12.9
		c6-5.7,15.3-5.7,21.301,0C314.801,354.8,314.801,364.1,309.101,370.099z"/>
</g>
<g>
</g>
<g>
</g>
<g>
</g>
<g>
</g>
<g>
</g>
<g>
</g>
<g>
</g>
<g>
</g>
<g>
</g>
<g>
</g>
<g>
</g>
<g>
</g>
<g>
</g>
<g>
</g>
<g>
</g>
</svg>
