<?xml version="1.0" encoding="iso-8859-1"?>
<!-- Generator: Adobe Illustrator 19.0.0, SVG Export Plug-In . SVG Version: 6.00 Build 0)  -->
<svg version="1.1" id="Layer_1" xmlns="http://www.w3.org/2000/svg" xmlns:xlink="http://www.w3.org/1999/xlink" x="0px" y="0px"
	 viewBox="0 0 512 512" style="enable-background:new 0 0 512 512;" xml:space="preserve">
<g>
	<g>
		<g>
			<path style="fill:#F28155;" d="M496,210c0,33.091-26.909,60-60,60h-15c-8.291,0-15-6.709-15-15v-90c0-8.291,6.709-15,15-15h15
				C469.091,150,496,176.909,496,210z M436,240h0.293H436z"/>
		</g>
	</g>
	<g>
		<path style="fill:#E50027;" d="M136,497c0,8.291-6.709,15-15,15H31c-8.291,0-15-6.709-15-15V273.296
			c0-75.615,39.588-143.11,96.738-180.82C122.731,85.93,136,93.104,136,105V497z"/>
	</g>
	<path style="fill:#FFC5AD;" d="M436,180v107c0,90.899-74.099,165-165,165s-165-74.101-165-165V180l45-30h242.999L436,180z"/>
	<path style="fill:#FFAC8C;" d="M436,180v107c0,90.899-74.099,165-165,165V150h122.999L436,180z"/>
	<path style="fill:#FD003A;" d="M433.299,55.8L412,93.3l-141,42.299L148.299,172.5L106,153.9V75c0-41.4,33.6-75,75-75h180
		C395.799,0,424.9,23.699,433.299,55.8z"/>
	<path style="fill:#E50027;" d="M433.299,55.8L412,93.3l-141,42.299V0h90C395.799,0,424.9,23.699,433.299,55.8z"/>
	<g>
		<circle style="fill:#57555C;" cx="211" cy="225" r="15"/>
	</g>
	<g>
		<g>
			<g>
				<circle style="fill:#3C3A41;" cx="331" cy="225" r="15"/>
			</g>
		</g>
	</g>
	<g>
		<path style="fill:#FD6244;" d="M324.101,340.099C310,354.2,291.099,362,271,362s-39-7.8-53.101-21.901
			c-5.7-5.999-5.7-15.298,0-21.299c6-5.7,15.3-5.7,21.301,0c8.399,8.399,20.099,12.9,31.8,12.9s23.401-4.501,31.8-12.9
			c6-5.7,15.3-5.7,21.301,0C329.801,324.8,329.801,334.1,324.101,340.099z"/>
	</g>
	<g>
		<path style="fill:#FD3C65;" d="M433.299,55.8L271,104.399L118.9,150l-12.9,3.9V180h330V75C436,68.399,435.099,61.8,433.299,55.8z"
			/>
	</g>
	<path style="fill:#FD4E26;" d="M324.101,318.8c5.7,6,5.7,15.3,0,21.299C310,354.2,291.099,362,271,362v-30.3
		c11.7,0,23.401-4.501,31.8-12.9C308.8,313.1,318.1,313.1,324.101,318.8z"/>
	<path style="fill:#FD003A;" d="M436,75v105H271v-75.601l162.299-48.6C435.099,61.8,436,68.399,436,75z"/>
</g>
<g>
</g>
<g>
</g>
<g>
</g>
<g>
</g>
<g>
</g>
<g>
</g>
<g>
</g>
<g>
</g>
<g>
</g>
<g>
</g>
<g>
</g>
<g>
</g>
<g>
</g>
<g>
</g>
<g>
</g>
</svg>
