<?xml version="1.0" encoding="iso-8859-1"?>
<!-- Generator: Adobe Illustrator 19.0.0, SVG Export Plug-In . SVG Version: 6.00 Build 0)  -->
<svg version="1.1" id="Layer_1" xmlns="http://www.w3.org/2000/svg" xmlns:xlink="http://www.w3.org/1999/xlink" x="0px" y="0px"
	 viewBox="0 0 512 512" style="enable-background:new 0 0 512 512;" xml:space="preserve">
<g>
	<g>
		<path style="fill:#57555C;" d="M391,45c0,8.399-6.599,15-15,15H136c-8.401,0-15-6.601-15-15c0-8.401,6.599-15,15-15h240
			C384.401,30,391,36.599,391,45z"/>
	</g>
	<path style="fill:#3C3A41;" d="M376,60H256V30h120c8.401,0,15,6.599,15,15C391,53.399,384.401,60,376,60z"/>
	<g>
		<path style="fill:#57555C;" d="M307,65.099c-0.901-0.3-2.1-0.3-3.001-0.3H256l-51,0.3C86.8,89.099,0,196.099,0,317
			c0,41.4,34.6,75,76,75h360c41.4,0,76-33.6,76-75C512,196.099,425.2,89.099,307,65.099z"/>
	</g>
	<path style="fill:#3C3A41;" d="M512,317c0,41.4-34.6,75-76,75H256V64.799h47.999c0.901,0,2.1,0,3.001,0.3
		C425.2,89.099,512,196.099,512,317z"/>
	<path style="fill:#FFE5C2;" d="M316,182H196c-57.9,0-105,47.1-105,105v60c0,90.899,74.099,165,165,165s165-74.101,165-165v-60
		C421,229.1,373.9,182,316,182z"/>
	<path style="fill:#FED2A4;" d="M421,287v60c0,90.899-74.099,165-165,165V182h60C373.9,182,421,229.1,421,287z"/>
	<g>
		<path style="fill:#FD003A;" d="M309.101,400.099C295,414.2,276.099,422,256,422s-39-7.8-53.101-21.901
			c-5.7-5.999-5.7-15.298,0-21.299c6-5.7,15.3-5.7,21.301,0c8.399,8.399,20.099,12.9,31.8,12.9s23.401-4.501,31.8-12.9
			c6-5.7,15.3-5.7,21.301,0C314.801,384.8,314.801,394.1,309.101,400.099z"/>
	</g>
	<g>
		<g>
			<g>
				<circle style="fill:#3C3A41;" cx="316" cy="287" r="15"/>
			</g>
		</g>
	</g>
	<g>
		<circle style="fill:#57555C;" cx="196" cy="287" r="15"/>
	</g>
	<g>
		<path style="fill:#FD003A;" d="M317.199,60.899l-10.199-30C301,12.299,283.9,0,264.401,0h-16.802C228.1,0,211,12.299,205,30.899
			l-10.199,30C185.2,90,206.8,120,237.7,120H274.3C305.2,120,326.8,90,317.199,60.899z"/>
	</g>
	<path style="fill:#E50027;" d="M309.101,378.8c5.7,6,5.7,15.3,0,21.299C295,414.2,276.099,422,256,422v-30.3
		c11.7,0,23.401-4.501,31.8-12.9C293.8,373.1,303.1,373.1,309.101,378.8z"/>
	<path style="fill:#E50027;" d="M274.3,120H256V0h8.401C283.9,0,301,12.299,307,30.899l10.199,30C326.8,90,305.2,120,274.3,120z"/>
</g>
<g>
</g>
<g>
</g>
<g>
</g>
<g>
</g>
<g>
</g>
<g>
</g>
<g>
</g>
<g>
</g>
<g>
</g>
<g>
</g>
<g>
</g>
<g>
</g>
<g>
</g>
<g>
</g>
<g>
</g>
</svg>
