<?xml version="1.0" encoding="iso-8859-1"?>
<!-- Generator: Adobe Illustrator 19.0.0, SVG Export Plug-In . SVG Version: 6.00 Build 0)  -->
<svg version="1.1" id="Layer_1" xmlns="http://www.w3.org/2000/svg" xmlns:xlink="http://www.w3.org/1999/xlink" x="0px" y="0px"
	 viewBox="0 0 512 512" style="enable-background:new 0 0 512 512;" xml:space="preserve">
<g>
	<g>
		<g>
			<path style="fill:#C1001F;" d="M496,135c0,41.353-33.647,75-75,75h-30c-8.291,0-15-6.709-15-15v-30c0-41.353,33.647-75,75-75h30
				c8.291,0,15,6.709,15,15V135z"/>
		</g>
	</g>
	<g>
		<path style="fill:#E50027;" d="M496,285c0,8.291-6.709,15-15,15h-30c-41.353,0-75-33.647-75-75v-30c0-8.291,6.709-15,15-15h30
			c41.353,0,75,33.647,75,75V285z"/>
	</g>
	<polygon style="fill:#FFC5AD;" points="406,210 406,301 360.399,331 59.5,331 16,301 16,210 47.8,180 376.601,180 	"/>
	<polygon style="fill:#FFAC8C;" points="406,210 406,301 360.399,331 211,331 211,180 376.601,180 	"/>
	<path style="fill:#57555C;" d="M390.7,120c-0.3,0.3-19.499,15.899-36.599,30H53.2L31.3,120C61,47.699,131.8,0,211,0
		c52.2,0,101.4,20.4,137.999,57.299C367,75,381.099,96.599,390.7,120z"/>
	<path style="fill:#3C3A41;" d="M354.101,150H211V0c52.2,0,101.4,20.4,137.999,57.299C367,75,381.099,96.599,390.7,120
		C390.399,120.3,371.201,135.899,354.101,150z"/>
	<g>
		<circle style="fill:#57555C;" cx="151" cy="255" r="15"/>
	</g>
	<g>
		<g>
			<circle style="fill:#3C3A41;" cx="271" cy="255" r="15"/>
		</g>
	</g>
	<g>
		<path style="fill:#FD003A;" d="M390.7,120H31.3c-1.5,3.3-2.701,6.599-3.9,10.199C19.9,150.899,16,172.8,16,195v15h390v-15
			c0-0.3,0-0.3,0-0.601C406,168.6,400.901,143.099,390.7,120z"/>
	</g>
	<path style="fill:#E50027;" d="M406,194.399c0,0.3,0,0.3,0,0.601v15H211v-90h179.7C400.901,143.099,406,168.6,406,194.399z"/>
	<g>
		<path style="fill:#E8E4D9;" d="M126.7,120l45,90h78.6l45-90H126.7z"/>
	</g>
	<polygon style="fill:#D9D5CB;" points="250.3,210 211,210 211,120 295.3,120 	"/>
	<g>
		<path style="fill:#57555C;" d="M16,301v15c0,107.399,87.599,196,195,196s195-88.601,195-196v-15H16z"/>
	</g>
	<path style="fill:#3C3A41;" d="M406,301v15c0,107.399-87.599,196-195,196V301H406z"/>
</g>
<g>
</g>
<g>
</g>
<g>
</g>
<g>
</g>
<g>
</g>
<g>
</g>
<g>
</g>
<g>
</g>
<g>
</g>
<g>
</g>
<g>
</g>
<g>
</g>
<g>
</g>
<g>
</g>
<g>
</g>
</svg>
