<?xml version="1.0" encoding="iso-8859-1"?>
<!-- Generator: Adobe Illustrator 19.0.0, SVG Export Plug-In . SVG Version: 6.00 Build 0)  -->
<svg version="1.1" id="Layer_1" xmlns="http://www.w3.org/2000/svg" xmlns:xlink="http://www.w3.org/1999/xlink" x="0px" y="0px"
	 viewBox="0 0 512 512" style="enable-background:new 0 0 512 512;" xml:space="preserve">
<g>
	<g>
		<g>
			<g>
				<g>
					<path style="fill:#3C3A41;" d="M422,361h-15c-8.291,0-15-6.709-15-15v-38.101c0-5.332,2.827-10.269,7.441-12.949
						C413.563,286.703,422,272.143,422,256v-58.506c0-4.512,2.036-8.789,5.537-11.646c3.516-2.813,8.174-3.97,12.524-3.032
						C482.425,191.664,512,227.919,512,271C512,320.629,471.629,361,422,361z M422,331h0.293H422z"/>
				</g>
			</g>
		</g>
	</g>
	<path style="fill:#57555C;" d="M112.559,294.95C98.438,286.703,90,272.143,90,256v-58.506c0-4.512-2.036-8.789-5.537-11.646
		c-3.501-2.813-8.115-3.97-12.524-3.032C29.575,191.664,0,227.919,0,271c0,25.838,11.217,49.448,30.24,66.539
		c-0.048,0.07-0.24,0.361-0.24,0.361l16.875,37.474L60,355.899l-0.037-0.183C69.569,359.11,79.724,361,90,361h15
		c8.291,0,15-6.709,15-15v-38.101C120,302.567,117.173,297.631,112.559,294.95z"/>
	<path style="fill:#57555C;" d="M451,196v25.499L420.099,217c-1.5-5.402-5.999-9.6-11.699-10.501C356.8,198.1,306.4,193.9,256,193.9
		s-100.8,4.2-152.401,12.599c-5.4,0.901-9.6,4.501-11.4,9.3L61,221.499V196C61,88.599,148.599,0,256,0S451,88.599,451,196z"/>
	<path style="fill:#3C3A41;" d="M451,196v25.499L420.099,217c-1.5-5.402-5.999-9.6-11.699-10.501C356.8,198.1,306.4,193.9,256,193.9
		V0C363.401,0,451,88.599,451,196z"/>
	<g>
		<path style="fill:#FFC5AD;" d="M413.5,295c-4.799-2.701-10.499-2.701-15,0c-6.599,3.9-14.7,6-22.5,6h-77.701
			c-3.898,0-7.798-1.8-10.499-4.2l-21.301-21.301C263.8,272.5,259.9,271,256,271s-7.8,1.5-10.499,4.499L224.2,296.8
			c-2.701,2.401-6.601,4.2-10.499,4.2H136c-7.8,0-15.901-2.1-22.5-6c-4.501-2.701-10.201-2.701-15,0c-4.501,2.701-7.5,7.5-7.5,12.9
			V346c0,36.299,11.4,70.499,32.999,99C155.2,486.4,204.401,512,256,512c90.901,0,165-75.101,165-166v-38.101
			C421,302.5,418.001,297.7,413.5,295z"/>
	</g>
	<path style="fill:#FFAC8C;" d="M421,307.899V346c0,90.899-74.099,166-165,166V271c3.9,0,7.8,1.5,10.499,4.499L287.8,296.8
		c2.701,2.401,6.601,4.2,10.499,4.2H376c7.8,0,15.901-2.1,22.5-6c4.501-2.701,10.201-2.701,15,0
		C418.001,297.7,421,302.5,421,307.899z"/>
	<path style="fill:#3C3A41;" d="M413.2,177.1c-53.101-8.701-105-12.9-157.2-12.9s-104.099,4.199-157.2,12.9
		C76.901,180.7,61,199.3,61,221.499V256c0,26.999,14.099,51.299,37.5,64.799C109.9,327.4,122.8,331,136,331h77.701
		c11.699,0,23.399-4.801,31.5-13.2l10.8-10.501l10.8,10.501c8.101,8.399,19.801,13.2,31.5,13.2H376c13.2,0,26.1-3.6,37.5-10.201
		c23.401-13.5,37.5-37.8,37.5-64.799v-34.501C451,199.3,435.099,180.7,413.2,177.1z"/>
	<path style="fill:#2B292C;" d="M451,221.499V256c0,26.999-14.099,51.299-37.5,64.799C402.1,327.4,389.2,331,376,331h-77.701
		c-11.699,0-23.399-4.801-31.5-13.2L256,307.299V164.2c52.2,0,104.099,4.199,157.2,12.9C435.099,180.7,451,199.3,451,221.499z"/>
	<g>
		<path style="fill:#FD6244;" d="M309.101,399.099C295,413.2,276.099,421,256,421s-39-7.8-53.101-21.901
			c-5.7-5.999-5.7-15.298,0-21.299c6-5.7,15.3-5.7,21.301,0c8.399,8.399,20.099,12.9,31.8,12.9s23.401-4.501,31.8-12.9
			c6-5.7,15.3-5.7,21.301,0C314.801,383.8,314.801,393.1,309.101,399.099z"/>
	</g>
	<path style="fill:#F0EDEA;" d="M421,221.499V256c0,16.199-8.401,30.599-22.5,39c-6.899,3.9-14.7,6-22.5,6h-77.701
		c-3.898,0-7.798-1.5-10.499-4.2l-31.8-32.1l-31.8,32.1c-2.701,2.701-6.601,4.2-10.499,4.2H136c-7.8,0-15.601-2.1-22.5-6
		c-14.099-8.401-22.5-22.8-22.5-39v-34.501c0-7.5,5.099-13.799,12.599-15C155.501,198.1,205.3,193.9,256,193.9
		s100.499,4.2,152.401,12.599C415.901,207.7,421,213.999,421,221.499z"/>
	<g>
		<g>
			<path style="fill:#3C3A41;" d="M210,436c0,8.399-6.599,15-15,15H75c-24.901,0-45-20.101-45-45v-68.101c1.8,1.8,3.9,3.6,6,5.099
				c7.2,5.4,15.3,9.901,24,12.9V406c0,8.399,6.599,15,15,15h120C203.401,421,210,427.599,210,436z"/>
		</g>
	</g>
	<path style="fill:#FD4E26;" d="M309.101,377.8c5.7,6,5.7,15.3,0,21.299C295,413.2,276.099,421,256,421v-30.3
		c11.7,0,23.401-4.501,31.8-12.9C293.8,372.1,303.1,372.1,309.101,377.8z"/>
	<path style="fill:#E8E4D9;" d="M421,221.499V256c0,16.199-8.401,30.599-22.5,39c-6.899,3.9-14.7,6-22.5,6h-77.701
		c-3.898,0-7.798-1.5-10.499-4.2l-31.8-32.1v-70.8c50.7,0,100.499,4.2,152.401,12.599C415.901,207.7,421,213.999,421,221.499z"/>
</g>
<g>
</g>
<g>
</g>
<g>
</g>
<g>
</g>
<g>
</g>
<g>
</g>
<g>
</g>
<g>
</g>
<g>
</g>
<g>
</g>
<g>
</g>
<g>
</g>
<g>
</g>
<g>
</g>
<g>
</g>
</svg>
