<?xml version="1.0" encoding="iso-8859-1"?>
<!-- Generator: Adobe Illustrator 19.0.0, SVG Export Plug-In . SVG Version: 6.00 Build 0)  -->
<svg version="1.1" id="Layer_1" xmlns="http://www.w3.org/2000/svg" xmlns:xlink="http://www.w3.org/1999/xlink" x="0px" y="0px"
	 viewBox="0 0 512 512" style="enable-background:new 0 0 512 512;" xml:space="preserve">
<g>
	<g>
		<path style="fill:#FE318F;" d="M256,0c-41.4,0-75,33.6-75,75c0,5.099,0.601,10.199,1.5,15c1.5,6.899,7.5,11.999,14.7,11.999
			h117.601c7.2,0,13.2-5.099,14.7-11.999c0.899-4.801,1.5-9.901,1.5-15C331,33.6,297.4,0,256,0z"/>
	</g>
	<g>
		<path style="fill:#FE318F;" d="M416.499,335.499C413.8,332.5,409.9,331,406,331H106c-3.9,0-7.8,1.5-10.499,4.499
			C53.8,376.899,31,433.1,31,491.899V497c0,8.399,6.599,15,15,15h420c8.401,0,15-6.601,15-15v-5.101
			C481,433.1,458.2,376.899,416.499,335.499z"/>
	</g>
	<path style="fill:#FE73B1;" d="M421,226v23.699l-30.901,11.7l-46.5-46.5C316.601,230.2,286.3,237.999,256,237.999
		s-60.601-7.798-87.599-23.099l-49.2,48.9L91,249.699V226c0-90.901,74.099-165,165-165S421,135.099,421,226z"/>
	<path style="fill:#FD0F7F;" d="M331,75c0,5.099-0.601,10.199-1.5,15c-1.5,6.899-7.5,11.999-14.7,11.999H256V0
		C297.4,0,331,33.6,331,75z"/>
	<path style="fill:#FE52A2;" d="M421,226v23.699l-30.901,11.7l-46.5-46.5C316.601,230.2,286.3,237.999,256,237.999V61
		C346.901,61,421,135.099,421,226z"/>
	<path style="fill:#FD0F7F;" d="M481,491.899V497c0,8.399-6.599,15-15,15H256V331h150c3.9,0,7.8,1.5,10.499,4.499
		C458.2,376.899,481,433.1,481,491.899z"/>
	<g>
		<g>
			<path style="fill:#FF9870;" d="M121,346c0,8.291-6.709,15-15,15H91c-33.091,0-60-26.909-60-60s26.909-60,60-60h15
				c8.291,0,15,6.709,15,15V346z"/>
		</g>
	</g>
	<g>
		<path style="fill:#F28155;" d="M481,301c0,33.091-26.909,60-60,60h-15c-8.291,0-15-6.709-15-15v-90c0-8.291,6.709-15,15-15h15
			C454.091,241,481,267.909,481,301z M421,331h0.293H421z"/>
	</g>
	<g>
		<path style="fill:#FFC5AD;" d="M356.499,185.499c-4.799-5.099-12.9-5.999-18.9-2.1c-24.598,16.201-53.099,24.6-81.599,24.6
			s-57.001-8.399-81.599-24.6c-6-3.898-14.101-2.999-18.9,2.1L91,249.699V346c0,90.899,74.099,166,165,166s165-75.101,165-166
			v-96.301L356.499,185.499z"/>
	</g>
	<path style="fill:#FFAC8C;" d="M421,249.699V346c0,90.899-74.099,166-165,166V207.999c28.5,0,57.001-8.399,81.599-24.6
		c6-3.898,14.101-2.999,18.9,2.1L421,249.699z"/>
	<g>
		<path style="fill:#FD6244;" d="M309.101,399.099C295,413.2,276.099,421,256,421s-39-7.8-53.101-21.901
			c-5.7-5.999-5.7-15.298,0-21.299c6-5.7,15.3-5.7,21.301,0c8.399,8.399,20.099,12.9,31.8,12.9s23.401-4.501,31.8-12.9
			c6-5.7,15.3-5.7,21.301,0C314.801,383.8,314.801,393.1,309.101,399.099z"/>
	</g>
	<g>
		<circle style="fill:#787780;" cx="196" cy="286" r="15"/>
	</g>
	<g>
		<g>
			<circle style="fill:#57555C;" cx="316" cy="286" r="15"/>
		</g>
	</g>
	<path style="fill:#FD4E26;" d="M309.101,377.8c5.7,6,5.7,15.3,0,21.299C295,413.2,276.099,421,256,421v-30.3
		c11.7,0,23.401-4.501,31.8-12.9C293.8,372.1,303.1,372.1,309.101,377.8z"/>
</g>
<g>
</g>
<g>
</g>
<g>
</g>
<g>
</g>
<g>
</g>
<g>
</g>
<g>
</g>
<g>
</g>
<g>
</g>
<g>
</g>
<g>
</g>
<g>
</g>
<g>
</g>
<g>
</g>
<g>
</g>
</svg>
