<?xml version="1.0" encoding="iso-8859-1"?>
<!-- Generator: Adobe Illustrator 19.0.0, SVG Export Plug-In . SVG Version: 6.00 Build 0)  -->
<svg version="1.1" id="Layer_1" xmlns="http://www.w3.org/2000/svg" xmlns:xlink="http://www.w3.org/1999/xlink" x="0px" y="0px"
	 viewBox="0 0 512.009 512.009" style="enable-background:new 0 0 512.009 512.009;" xml:space="preserve">
<g>
	<path style="fill:#B35C4B;" d="M420.103,362.009c-7.5,84-78.3,150-164.099,150s-156.599-66-164.099-150l25.499-30h44.099
		c28.5-18.001,61.501-26.7,94.501-26.7s66,8.699,94.501,26.7h30L420.103,362.009z"/>
	<path style="fill:#A24F3D;" d="M380.505,332.009l39.598,30c-7.5,84-78.3,150-164.099,150v-206.7c32.999,0,66,8.699,94.501,26.7
		H380.505z"/>
	<g>
		<path style="fill:#FD6244;" d="M309.105,400.107c-14.101,14.101-33.001,21.901-53.101,21.901s-39-7.8-53.101-21.901
			c-5.7-5.999-5.7-15.298,0-21.299c6-5.7,15.3-5.7,21.301,0c8.399,8.399,20.099,12.9,31.8,12.9c11.7,0,23.401-4.501,31.8-12.9
			c6-5.7,15.3-5.7,21.301,0C314.805,384.809,314.805,394.109,309.105,400.107z"/>
	</g>
	<g>
		<g>
			<g>
				<g>
					<path style="fill:#FF9870;" d="M121.004,347.009c0,8.291-6.709,15-15,15h-15c-33.091,0-60-26.909-60-60s26.909-60,60-60h15
						c8.291,0,15,6.709,15,15V347.009z"/>
				</g>
			</g>
		</g>
	</g>
	<g>
		<path style="fill:#F28155;" d="M481.004,302.009c0,33.091-26.909,60-60,60h-15c-8.291,0-15-6.709-15-15v-90
			c0-8.291,6.709-15,15-15h15C454.095,242.009,481.004,268.918,481.004,302.009z"/>
	</g>
	<path style="fill:#8B432D;" d="M512.004,15.009c0-6.606-4.321-12.437-10.649-14.355c-6.343-1.934-13.169,0.527-16.831,6.035
		c-23.511,35.259-58.696,61.743-99.082,74.561c-7.896,2.505-12.261,10.942-9.756,18.838l16.318,64.922c0,8.291,6.709,15,15,15
		c57.891,0,105-47.109,105-105V15.009z"/>
	<path style="fill:#A24F3D;" d="M126.567,81.249C86.181,68.432,50.996,41.947,27.485,6.688C23.808,1.181,16.982-1.28,10.654,0.653
		C4.326,2.572,0.004,8.402,0.004,15.009v60c0,57.891,47.109,105,105,105l31.318-79.922
		C138.828,92.191,134.462,83.754,126.567,81.249z"/>
	<path style="fill:#FFC5AD;" d="M421.004,242.009v105c0,5.099-0.3,10.199-0.901,15h-74.099c-2.999,0-5.7-0.901-8.401-2.401
		c-24.598-16.199-53.099-24.6-81.599-24.6s-57.001,8.401-81.599,24.6c-2.701,1.5-5.402,2.401-8.401,2.401H91.905
		c-0.601-4.801-0.901-9.901-0.901-15v-105l45.901-30h254.099L421.004,242.009z"/>
	<path style="fill:#FFAC8C;" d="M421.004,242.009v105c0,5.099-0.3,10.199-0.901,15h-74.099c-2.999,0-5.7-0.901-8.401-2.401
		c-24.598-16.199-53.099-24.6-81.599-24.6V212.009h135L421.004,242.009z"/>
	<path style="fill:#FD4E26;" d="M309.105,400.107c-14.101,14.101-33.001,21.901-53.101,21.901v-30.3c11.7,0,23.401-4.501,31.8-12.9
		c6-5.7,15.3-5.7,21.301,0C314.805,384.809,314.805,394.109,309.105,400.107z"/>
	<path style="fill:#57555C;" d="M420.103,150.009c0,0-15.599,19.499-23.699,30H112.305l-20.4-30
		c5.999-68.701,54.598-125.4,119.099-143.701c0,0,39,33.6,45,35.7c0.3,0,0.601,0,0.601,0c4.199,0,44.399-35.7,44.399-35.7
		C365.505,24.609,414.105,81.308,420.103,150.009z"/>
	<path style="fill:#3C3A41;" d="M396.404,180.009h-140.4V42.008c0.3,0,0.601,0,0.601,0c4.199,0,44.399-35.7,44.399-35.7
		c64.501,18.301,113.101,75,119.099,143.701C420.103,150.009,404.505,169.508,396.404,180.009z"/>
	<g>
		<path style="fill:#FCBF29;" d="M420.103,150.009H301.004V6.308c-14.399-4.199-29.399-6.299-45-6.299s-30.601,2.1-45,6.299v143.701
			H91.905c-0.601,4.799-0.901,9.899-0.901,15v77h330v-77C421.004,159.907,420.704,154.808,420.103,150.009z"/>
	</g>
	<path style="fill:#FE9923;" d="M421.004,165.009v77h-165v-242c15.601,0,30.601,2.1,45,6.299v143.701h119.099
		C420.704,154.808,421.004,159.907,421.004,165.009z"/>
	<g>
		<circle style="fill:#57555C;" cx="196.004" cy="287.009" r="15"/>
	</g>
	<g>
		<g>
			<g>
				<circle style="fill:#3C3A41;" cx="316.004" cy="287.009" r="15"/>
			</g>
		</g>
	</g>
</g>
<g>
</g>
<g>
</g>
<g>
</g>
<g>
</g>
<g>
</g>
<g>
</g>
<g>
</g>
<g>
</g>
<g>
</g>
<g>
</g>
<g>
</g>
<g>
</g>
<g>
</g>
<g>
</g>
<g>
</g>
</svg>
