<?xml version="1.0" encoding="iso-8859-1"?>
<!-- Generator: Adobe Illustrator 19.0.0, SVG Export Plug-In . SVG Version: 6.00 Build 0)  -->
<svg version="1.1" id="Layer_1" xmlns="http://www.w3.org/2000/svg" xmlns:xlink="http://www.w3.org/1999/xlink" x="0px" y="0px"
	 viewBox="0 0 512 512" style="enable-background:new 0 0 512 512;" xml:space="preserve">
<g>
	<g>
		<path style="fill:#FF9870;" d="M106,331H91c-33.091,0-60-26.909-60-60s26.909-60,60-60h15c8.291,0,15,6.709,15,15v90
			C121,324.291,114.291,331,106,331z"/>
	</g>
	<g>
		<path style="fill:#F28155;" d="M421,331h-15c-8.291,0-15-6.709-15-15v-90c0-8.291,6.709-15,15-15h15c33.091,0,60,26.909,60,60
			S454.091,331,421,331z M421,301h0.293H421z"/>
	</g>
	<path style="fill:#FFC5AD;" d="M421,181v165c0,85.8-66,157.599-150,165.099L256,494.9l-1.8-1.8c0,0-12.299,17.999-13.2,17.999
		C157,503.599,91,431.8,91,346V226c0-36,11.4-70.201,32.999-99c3.301-4.2,8.401-6.601,13.5-6L256,134.2l112.2,12.299L421,181z"/>
	<path style="fill:#FFAC8C;" d="M421,181v165c0,85.8-66,157.599-150,165.099L256,494.9V134.2l112.2,12.299L421,181z"/>
	<g>
		<path style="fill:#57555C;" d="M256,0H76c-8.401,0-15,6.599-15,15c0,90.901,74.099,166,165,166h195v-15
			C421,75.099,346.901,0,256,0z"/>
	</g>
	<path style="fill:#3C3A41;" d="M421,166v15H256V0C346.901,0,421,75.099,421,166z"/>
	<g>
		<path style="fill:#FD6244;" d="M309.101,400.101C295,414.2,276.099,422,256,422s-39-7.8-53.101-21.899c-5.7-6-5.7-15.3,0-21.301
			c6-5.7,15.3-5.7,21.301,0c8.399,8.401,20.099,12.9,31.8,12.9s23.401-4.499,31.8-12.9c6-5.7,15.3-5.7,21.301,0
			C314.801,384.8,314.801,394.1,309.101,400.101z"/>
	</g>
	<g>
		<path style="fill:#57555C;" d="M271,467v44.099c-4.799,0.601-9.901,0.901-15,0.901s-10.201-0.3-15-0.901V467
			c0-8.401,6.599-15,15-15S271,458.599,271,467z"/>
	</g>
	<path style="fill:#57555C;" d="M166,361c-41.353,0-75-33.647-75-75s33.647-75,75-75s75,33.647,75,75S207.353,361,166,361z"/>
	<path style="fill:#F0EDEA;" d="M166,331c-24.814,0-45-20.186-45-45s20.186-45,45-45s45,20.186,45,45S190.814,331,166,331z"/>
	<path style="fill:#3C3A41;" d="M346,361c-41.353,0-75-33.647-75-75s33.647-75,75-75s75,33.647,75,75S387.353,361,346,361z"/>
	<path style="fill:#E8E4D9;" d="M346,331c-24.814,0-45-20.186-45-45s20.186-45,45-45s45,20.186,45,45S370.814,331,346,331z"/>
	<g>
		<path style="fill:#57555C;" d="M301,286c0,8.401-6.599,15-15,15h-60c-8.401,0-15-6.599-15-15s6.599-15,15-15h60
			C294.401,271,301,277.599,301,286z"/>
	</g>
	<path style="fill:#3C3A41;" d="M271,467v44.099c-4.799,0.601-9.901,0.901-15,0.901v-60C264.401,452,271,458.599,271,467z"/>
	<path style="fill:#3C3A41;" d="M286,301h-30v-30h30c8.401,0,15,6.599,15,15S294.401,301,286,301z"/>
	<path style="fill:#FD4E26;" d="M309.101,378.8c5.7,6,5.7,15.3,0,21.301C295,414.2,276.099,422,256,422v-30.3
		c11.7,0,23.401-4.499,31.8-12.9C293.8,373.1,303.1,373.1,309.101,378.8z"/>
</g>
<g>
</g>
<g>
</g>
<g>
</g>
<g>
</g>
<g>
</g>
<g>
</g>
<g>
</g>
<g>
</g>
<g>
</g>
<g>
</g>
<g>
</g>
<g>
</g>
<g>
</g>
<g>
</g>
<g>
</g>
</svg>
