<?xml version="1.0" encoding="iso-8859-1"?>
<!-- Generator: Adobe Illustrator 19.0.0, SVG Export Plug-In . SVG Version: 6.00 Build 0)  -->
<svg version="1.1" id="Layer_1" xmlns="http://www.w3.org/2000/svg" xmlns:xlink="http://www.w3.org/1999/xlink" x="0px" y="0px"
	 viewBox="0 0 512 512" style="enable-background:new 0 0 512 512;" xml:space="preserve">
<g>
	<path style="fill:#E8E4D9;" d="M151,0c-21.855,0-41.631,12.026-52.075,30.542C63.578,25.62,31,54.258,31,90
		c0,10.576,2.856,20.903,8.188,30C33.856,129.097,31,139.424,31,150c0,33.091,26.909,61,60,61c6.855,0,13.579-2.157,20.01-4.413
		c7.808-2.769,11.909-11.338,9.155-19.146L196.747,72.48c8.262-0.439,14.604-7.515,14.15-15.791C209.169,24.902,182.86,0,151,0z"/>
	<path style="fill:#D9D5CB;" d="M477.016,90c0-35.742-32.563-64.438-67.925-59.458C398.646,12.026,378.871,0,357.016,0
		c-31.26,0-56.953,23.452-59.751,54.536c-0.747,8.247,5.347,15.542,13.594,16.289l80.874,119.355
		c-1.963,8.042,2.974,17.157,11.03,19.12c4.629,1.128,9.419,1.699,14.253,1.699c33.091,0,60-27.909,60-61
		c0-10.576-2.856-20.903-8.188-30C474.159,110.903,477.016,100.576,477.016,90z"/>
	<path style="fill:#883F2E;" d="M106,242H91c-33.091,0-60,26.909-60,60s26.909,60,60,60h6.606c8.291,0,15-6.709,15-15L121,257
		C121,248.709,114.291,242,106,242z"/>
	<path style="fill:#6D3326;" d="M421,242h-15c-8.291,0-15,6.709-15,15l8.394,90c0,8.291,6.709,15,15,15H421
		c33.091,0,60-26.909,60-60S454.091,242,421,242z"/>
	<g>
		<path style="fill:#A44F3E;" d="M422.8,290.9l-1.8-6V196c0-43.801-17.1-85.501-48.3-117.001C341.499,48.1,299.801,31,256,31
			c-90.901,0-165,74.099-165,165v88.9l-1.8,6c-15,52.8-4.799,108.3,28.5,152.1c32.999,43.799,83.399,69,138.3,69
			s105.3-25.201,138.3-69C427.599,399.2,437.8,343.7,422.8,290.9z"/>
	</g>
	<path style="fill:#883F2E;" d="M394.3,443c-32.999,43.799-83.399,69-138.3,69V31c43.801,0,85.499,17.1,116.7,47.999
		C403.9,110.499,421,152.199,421,196v88.9l1.8,6C437.8,343.7,427.599,399.2,394.3,443z"/>
	<g>
		<path style="fill:#990405;" d="M309.101,400.099C295,414.2,276.099,422,256,422s-39-7.8-53.101-21.901
			c-5.7-5.999-5.7-15.298,0-21.299c6-5.7,15.3-5.7,21.301,0c8.399,8.399,20.099,12.9,31.8,12.9s23.401-4.501,31.8-12.9
			c6-5.7,15.3-5.7,21.301,0C314.801,384.8,314.801,394.1,309.101,400.099z"/>
	</g>
	<path style="fill:#FCBF29;" d="M166,362c-41.353,0-75-33.647-75-75s33.647-75,75-75s75,33.647,75,75S207.353,362,166,362z"/>
	<path style="fill:#57555C;" d="M166,332c-24.814,0-45-20.186-45-45s20.186-45,45-45s45,20.186,45,45S190.814,332,166,332z"/>
	<path style="fill:#FE9923;" d="M346,362c-41.353,0-75-33.647-75-75s33.647-75,75-75s75,33.647,75,75S387.353,362,346,362z"/>
	<path style="fill:#3C3A41;" d="M346,332c-24.814,0-45-20.186-45-45s20.186-45,45-45s45,20.186,45,45S370.814,332,346,332z"/>
	<g>
		<g>
			<path style="fill:#FCBF29;" d="M301,287c0,8.399-6.599,15-15,15h-60c-8.401,0-15-6.601-15-15c0-8.401,6.599-15,15-15h60
				C294.401,272,301,278.599,301,287z"/>
		</g>
	</g>
	<g>
		<path style="fill:#883F2E;" d="M331,166c0,8.399-6.599,15-15,15H196c-8.401,0-15-6.601-15-15c0-8.401,6.599-15,15-15h120
			C324.401,151,331,157.599,331,166z"/>
	</g>
	<path style="fill:#FE9923;" d="M286,302h-30v-30h30c8.401,0,15,6.599,15,15C301,295.399,294.401,302,286,302z"/>
	<path style="fill:#590602;" d="M309.101,378.8c5.7,6,5.7,15.3,0,21.299C295,414.2,276.099,422,256,422v-30.3
		c11.7,0,23.401-4.501,31.8-12.9C293.8,373.1,303.1,373.1,309.101,378.8z"/>
	<path style="fill:#6D3326;" d="M331,166c0,8.399-6.599,15-15,15h-60v-30h60C324.401,151,331,157.599,331,166z"/>
</g>
<g>
</g>
<g>
</g>
<g>
</g>
<g>
</g>
<g>
</g>
<g>
</g>
<g>
</g>
<g>
</g>
<g>
</g>
<g>
</g>
<g>
</g>
<g>
</g>
<g>
</g>
<g>
</g>
<g>
</g>
</svg>
