<?xml version="1.0" encoding="iso-8859-1"?>
<!-- Generator: Adobe Illustrator 19.0.0, SVG Export Plug-In . SVG Version: 6.00 Build 0)  -->
<svg version="1.1" id="Layer_1" xmlns="http://www.w3.org/2000/svg" xmlns:xlink="http://www.w3.org/1999/xlink" x="0px" y="0px"
	 viewBox="0 0 512 512" style="enable-background:new 0 0 512 512;" xml:space="preserve">
<g>
	<g>
		<path style="fill:#EB9C8D;" d="M418.1,347.312c-2.401-16.8-6.301-33.6-12.001-50.101c-9.3-28.2-14.099-58.9-14.099-88.6v-43.599
			c0-8.401-6.599-15-15-15H135c-8.401,0-15,6.599-15,15v43.599c0,29.7-4.799,60.399-14.099,88.6
			c-2.871,8.31-14.001,47.801-12.001,55.801c17.1,75.899,84.101,129,162.1,129s145-53.101,162.1-129c0.3-1.201,0.3-2.1,0.3-3.301
			v-0.3C418.4,348.811,418.4,347.91,418.1,347.312z"/>
	</g>
	<path style="fill:#D78878;" d="M418.1,347.312c0.3,0.599,0.3,1.5,0.3,2.098v0.3c0,1.201,0,2.1-0.3,3.301
		c-17.1,75.899-84.101,129-162.1,129v-332h121c8.401,0,15,6.599,15,15v43.599c0,29.7,4.799,60.399,14.099,88.6
		C411.799,313.712,415.699,330.512,418.1,347.312z"/>
	<g>
		<path style="fill:#57555C;" d="M425.3,66.611c-2.699-4.2-7.2-6.599-12.299-6.599H99c-5.099,0-9.6,2.399-12.299,6.599
			c-3.001,4.2-3.6,9.3-1.5,14.101l35.999,90c2.1,5.7,7.8,9.3,13.801,9.3h242c6,0,11.7-3.6,13.801-9.3l35.999-90
			C428.899,75.91,428.301,70.811,425.3,66.611z"/>
	</g>
	<path style="fill:#3C3A41;" d="M426.799,80.712l-35.999,90c-2.1,5.7-7.8,9.3-13.801,9.3H256v-120h157
		c5.099,0,9.6,2.399,12.299,6.599C428.301,70.811,428.899,75.91,426.799,80.712z"/>
	<g>
		<circle style="fill:#3C3A41;" cx="196" cy="257.011" r="15"/>
	</g>
	<g>
		<circle style="fill:#2B292C;" cx="316" cy="257.011" r="15"/>
	</g>
	<g>
		<path style="fill:#CA6E59;" d="M309.101,370.11C295,384.211,276.099,392.011,256,392.011s-39-7.8-53.101-21.901
			c-5.7-5.999-5.7-15.298,0-21.299c6-5.7,15.3-5.7,21.301,0c8.399,8.399,20.099,12.9,31.8,12.9s23.401-4.501,31.8-12.9
			c6-5.7,15.3-5.7,21.301,0C314.801,354.812,314.801,364.112,309.101,370.11z"/>
	</g>
	<path style="fill:#FD3C65;" d="M443.301,39.612l-16.501,41.1c-2.098,5.7-7.798,9.3-13.799,9.3H99c-6,0-11.7-3.6-13.799-9.3
		l-12.601-31.5l12.601-49.2h341.598L443.301,39.612z"/>
	<path style="fill:#A44F3E;" d="M309.101,370.11C295,384.211,276.099,392.011,256,392.011v-30.3c11.7,0,23.401-4.501,31.8-12.9
		c6-5.7,15.3-5.7,21.301,0C314.801,354.812,314.801,364.112,309.101,370.11z"/>
	<path style="fill:#E50027;" d="M443.301,39.612l-16.501,41.1c-2.098,5.7-7.798,9.3-13.799,9.3H256v-90h170.799L443.301,39.612z"/>
	<g>
		<path style="fill:#E8E4D9;" d="M148.801,159.311l-27.601-69.3l-35.999-90H75c-8.951,0-15,7.419-15,15v112.8
			c0,41.699-9.901,85.399-28.5,122.599C10.8,291.51,0,338.012,0,384.211c0,38.101,18.9,73.5,50.7,94.799l45.899,30.601
			c11.752,6.525,23.401-1.41,23.401-12.599V394.41c0-29.69,4.922-59.491,14.099-87.599c10.501-31.5,15.901-65.2,15.901-98.2v-43.599
			C150,163.212,149.7,161.111,148.801,159.311z"/>
	</g>
	<g>
		<path style="fill:#D9D5CB;" d="M480.5,250.41c-18.6-37.2-28.5-80.9-28.5-122.599v-112.8c0-7.581-6.049-15-15-15h-10.201
			l-35.999,90l-27.601,69.3c-0.899,1.8-1.199,3.9-1.199,5.7v43.599c0,32.999,5.4,66.7,15.901,98.2
			C386.792,334.045,392,364.538,392,394.41v102.601c0,11.03,11.469,19.225,23.401,12.599L461.3,479.01
			c31.8-21.299,50.7-56.699,50.7-94.799C512,338.012,501.2,291.51,480.5,250.41z"/>
	</g>
	<g>
		<path style="fill:#FEDB41;" d="M267.1,5.111c-2.699-3.3-6.899-5.099-11.1-5.099s-8.401,1.8-11.1,5.099
			c-1.5,1.5-33.9,38.401-33.9,84.901s32.401,83.399,33.9,84.899c2.699,3.301,6.899,5.101,11.1,5.101s8.401-1.8,11.1-5.101
			c1.5-1.5,33.9-38.399,33.9-84.899S268.599,6.611,267.1,5.111z"/>
	</g>
	<path style="fill:#FCBF29;" d="M267.1,174.91c-2.699,3.301-6.899,5.101-11.1,5.101v-180c4.2,0,8.401,1.8,11.1,5.099
		c1.5,1.5,33.9,38.401,33.9,84.901S268.599,173.41,267.1,174.91z"/>
</g>
<g>
</g>
<g>
</g>
<g>
</g>
<g>
</g>
<g>
</g>
<g>
</g>
<g>
</g>
<g>
</g>
<g>
</g>
<g>
</g>
<g>
</g>
<g>
</g>
<g>
</g>
<g>
</g>
<g>
</g>
</svg>
