<?xml version="1.0" encoding="iso-8859-1"?>
<!-- Generator: Adobe Illustrator 19.0.0, SVG Export Plug-In . SVG Version: 6.00 Build 0)  -->
<svg version="1.1" id="Layer_1" xmlns="http://www.w3.org/2000/svg" xmlns:xlink="http://www.w3.org/1999/xlink" x="0px" y="0px"
	 viewBox="0 0 512 512" style="enable-background:new 0 0 512 512;" xml:space="preserve">
<g>
	<g>
		<path style="fill:#FF9870;" d="M106,362H91c-33.091,0-60-26.909-60-60s26.909-60,60-60h15c8.291,0,15,6.709,15,15v90
			C121,355.291,114.291,362,106,362z"/>
	</g>
	<g>
		<path style="fill:#FFC5AD;" d="M406,180H106c-8.401,0-15,6.599-15,15v152c0,90.899,74.099,165,165,165s165-74.101,165-165V195
			C421,186.599,414.401,180,406,180z"/>
	</g>
	<g>
		<path style="fill:#F28155;" d="M481,302c0,33.091-26.909,60-60,60h-15c-8.291,0-15-6.709-15-15v-90c0-8.291,6.709-15,15-15h15
			C454.091,242,481,268.909,481,302z"/>
	</g>
	<path style="fill:#FFAC8C;" d="M421,195v152c0,90.899-74.099,165-165,165V180h150C414.401,180,421,186.599,421,195z"/>
	<g>
		<path style="fill:#FD6244;" d="M309.101,400.099C295,414.2,276.099,422,256,422s-39-7.8-53.101-21.901
			c-5.7-5.999-5.7-15.298,0-21.299c6-5.7,15.3-5.7,21.301,0c8.399,8.399,20.099,12.9,31.8,12.9s23.401-4.501,31.8-12.9
			c6-5.7,15.3-5.7,21.301,0C314.801,384.8,314.801,394.1,309.101,400.099z"/>
	</g>
	<g>
		<circle style="fill:#57555C;" cx="196" cy="287" r="15"/>
	</g>
	<g>
		<g>
			<g>
				<circle style="fill:#3C3A41;" cx="316" cy="287" r="15"/>
			</g>
		</g>
	</g>
	<path style="fill:#FD4E26;" d="M309.101,378.8c5.7,6,5.7,15.3,0,21.299C295,414.2,276.099,422,256,422v-30.3
		c11.7,0,23.401-4.501,31.8-12.9C293.8,373.1,303.1,373.1,309.101,378.8z"/>
	<g>
		<g>
			<path style="fill:#A24F3D;" d="M256,0C148.599,0,61,87.599,61,195c0,8.399,6.599,15,15,15h360c8.401,0,15-6.601,15-15
				C451,87.599,363.401,0,256,0z"/>
		</g>
	</g>
	<path style="fill:#8B432D;" d="M451,195c0,8.399-6.599,15-15,15H256V0C363.401,0,451,87.599,451,195z"/>
	<g>
		<path style="fill:#B35C4B;" d="M256,0c-61.5,0-109.2,93.6-104.7,210H256c95.7,0,104.7,0,104.7,0C365.2,93.6,317.5,0,256,0z"/>
	</g>
	<path style="fill:#A24F3D;" d="M360.7,210c0,0-9,0-104.7,0V0C317.5,0,365.2,93.6,360.7,210z"/>
</g>
<g>
</g>
<g>
</g>
<g>
</g>
<g>
</g>
<g>
</g>
<g>
</g>
<g>
</g>
<g>
</g>
<g>
</g>
<g>
</g>
<g>
</g>
<g>
</g>
<g>
</g>
<g>
</g>
<g>
</g>
</svg>
