<?xml version="1.0" encoding="iso-8859-1"?>
<!-- Generator: Adobe Illustrator 19.0.0, SVG Export Plug-In . SVG Version: 6.00 Build 0)  -->
<svg version="1.1" id="Layer_1" xmlns="http://www.w3.org/2000/svg" xmlns:xlink="http://www.w3.org/1999/xlink" x="0px" y="0px"
	 viewBox="0 0 512 512" style="enable-background:new 0 0 512 512;" xml:space="preserve">
<g>
	<path style="fill:#57555C;" d="M451,253.4V225c0-107.401-87.599-195-195-195S61,117.599,61,225v32c0,0.599-0.3,0.899-0.3,1.199
		L31,225C31,100.8,131.8,0,256,0s225,100.8,225,225L451,253.4z"/>
	<path style="fill:#3C3A41;" d="M451,253.4V225c0-107.401-87.599-195-195-195V0c124.2,0,225,100.8,225,225L451,253.4z"/>
	<g>
		<path style="fill:#7986E8;" d="M76,362c-24.814,0-45-20.186-45-45v-92c0-24.814,20.186-45,45-45s45,20.186,45,45v92
			C121,341.814,100.814,362,76,362z"/>
	</g>
	<g>
		<path style="fill:#6E77E5;" d="M436,362c-24.814,0-45-20.186-45-45v-92c0-24.814,20.186-45,45-45s45,20.186,45,45v92
			C481,341.814,460.814,362,436,362z"/>
	</g>
	<path style="fill:#FFC5AD;" d="M421,225v115.699c0,87.599-65.4,162.599-148.801,170.7C266.8,511.7,261.4,512,256,512
		c-41.4,0-80.099-15-111-42.9c-34.2-31.201-54-75.901-54-122.1V225c0-5.101,0.3-10.201,0.901-15l39.3-30H166
		c32.999,0,63.9-9.6,90-26.7c18.9-12.299,35.4-28.5,47.999-48.3l42.902-17.1c0,0,0.298,0,0.298,0.3
		c9.001,5.7,17.401,11.999,25.501,19.799C403.9,139.499,421,181.199,421,225z"/>
	<path style="fill:#FFAC8C;" d="M421,225v115.699c0,87.599-65.4,162.599-148.801,170.7C266.8,511.7,261.4,512,256,512V153.3
		c18.9-12.299,35.4-28.5,47.999-48.3l42.902-17.1c0,0,0.298,0,0.298,0.3c9.001,5.7,17.401,11.999,25.501,19.799
		C403.9,139.499,421,181.199,421,225z"/>
	<g>
		<g>
			<path style="fill:#B35C4B;" d="M256,60c-77.999,0-146.1,55.199-161.4,131.4l-0.3,0.3v0.298c-1.199,5.7-2.1,11.7-2.399,18.001H166
				c32.1,0,62.999-7.5,90-21.901c36.599-18.898,66.599-49.199,85.499-88.2l5.7-11.699l0.3-0.601C320.799,69.6,288.701,60,256,60z"/>
		</g>
	</g>
	<path style="fill:#A24F3D;" d="M256,188.099V60c32.701,0,64.799,9.6,91.5,27.599l-0.3,0.601l-5.7,11.699
		C322.599,138.9,292.599,169.2,256,188.099z"/>
	<path style="fill:#FD6244;" d="M309.101,400.099C295,414.2,276.099,422,256,422s-39-7.8-53.101-21.901
		c-5.7-5.999-5.7-15.298,0-21.299c6-5.7,15.3-5.7,21.301,0c8.399,8.399,20.099,12.9,31.8,12.9s23.401-4.501,31.8-12.9
		c6-5.7,15.3-5.7,21.301,0C314.801,384.8,314.801,394.1,309.101,400.099z"/>
	<path style="fill:#57555C;" d="M406,242H106c-8.401,0-15,6.599-15,15v15c0,49.499,40.499,90,90,90
		c31.199,0,58.801-16.201,75-40.501c16.199,24.3,43.801,40.501,75,40.501c49.501,0,90-40.501,90-90v-15
		C421,248.599,414.401,242,406,242z"/>
	<path style="fill:#3C3A41;" d="M421,257v15c0,49.499-40.499,90-90,90c-31.199,0-58.801-16.201-75-40.501V242h150
		C414.401,242,421,248.599,421,257z"/>
	<path style="fill:#FD4E26;" d="M309.101,400.099C295,414.2,276.099,422,256,422v-30.3c11.7,0,23.401-4.501,31.8-12.9
		c6-5.7,15.3-5.7,21.301,0C314.801,384.8,314.801,394.1,309.101,400.099z"/>
	<path style="fill:#7986E8;" d="M181,332c33.091,0,60-26.909,60-60H121C121,305.091,147.909,332,181,332z"/>
	<path style="fill:#6E77E5;" d="M271,272c0,33.091,26.909,60,60,60s60-26.909,60-60H271z"/>
</g>
<g>
</g>
<g>
</g>
<g>
</g>
<g>
</g>
<g>
</g>
<g>
</g>
<g>
</g>
<g>
</g>
<g>
</g>
<g>
</g>
<g>
</g>
<g>
</g>
<g>
</g>
<g>
</g>
<g>
</g>
</svg>
