<?xml version="1.0" encoding="iso-8859-1"?>
<!-- Generator: Adobe Illustrator 19.0.0, SVG Export Plug-In . SVG Version: 6.00 Build 0)  -->
<svg version="1.1" id="Layer_1" xmlns="http://www.w3.org/2000/svg" xmlns:xlink="http://www.w3.org/1999/xlink" x="0px" y="0px"
	 viewBox="0 0 512 512" style="enable-background:new 0 0 512 512;" xml:space="preserve">
<g>
	<g>
		<path style="fill:#D9D5CB;" d="M256,0C166.3,0,93.999,57.299,91,130.8c0,3.9,1.5,8.101,4.2,10.8C98.2,144.6,102.1,146.4,106,146.4
			h300c3.9,0,7.8-1.8,10.8-4.801c2.701-2.699,4.2-6.899,4.2-10.8C418.001,57.299,345.7,0,256,0z"/>
	</g>
	<path style="fill:#CCC8BF;" d="M421,130.8c0,3.9-1.5,8.101-4.2,10.8C413.8,144.6,409.9,146.4,406,146.4H256V0
		C345.7,0,418.001,57.299,421,130.8z"/>
	<g>
		<g>
			<path style="fill:#E8E4D9;" d="M256,91C112.899,91,0,150.399,0,226c0,25.8,12.9,50.4,37.8,71.7c2.699,2.399,6,3.6,9.6,3.6
				h417.199c3.6,0,6.901-1.201,9.6-3.6C499.1,276.4,512,251.8,512,226C512,150.399,399.101,91,256,91z"/>
		</g>
	</g>
	<path style="fill:#D9D5CB;" d="M512,226c0,25.8-12.9,50.4-37.8,71.7c-2.699,2.399-6,3.6-9.6,3.6H256V91
		C399.101,91,512,150.399,512,226z"/>
	<g>
		<g>
			<path style="fill:#FF9870;" d="M121,346c0,8.291-6.709,15-15,15H91c-33.091,0-61-26.909-61-60s27.909-60,61-60h15
				c8.291,0,15,6.709,15,15V346z"/>
		</g>
	</g>
	<g>
		<g>
			<path style="fill:#F28155;" d="M482,301c0,33.091-27.909,60-61,60h-15c-8.291,0-15-6.709-15-15v-90c0-8.291,6.709-15,15-15h15
				C454.091,241,482,267.909,482,301z"/>
		</g>
	</g>
	<path style="fill:#FFC5AD;" d="M421,226v120c0,90.899-74.099,166-165,166S91,436.899,91,346v-15l26.7-30h15.3
		c47.699,0,91.5-19.501,122.999-52.2c12.9-13.2,23.699-28.801,32.1-46.201l38.101-15c49.799,8.701,84.3,24,85.8,24.6
		C417.4,214.6,421,220,421,226z"/>
	<path style="fill:#FFAC8C;" d="M421,226v120c0,90.899-74.099,166-165,166V248.8c12.9-13.2,23.699-28.801,32.1-46.201l38.101-15
		c49.799,8.701,84.3,24,85.8,24.6C417.4,214.6,421,220,421,226z"/>
	<g>
		<path style="fill:#FD6244;" d="M309.101,399.099C295,413.2,276.099,421,256,421s-39-7.8-53.101-21.901
			c-5.7-5.999-5.7-15.298,0-21.299c6-5.7,15.3-5.7,21.301,0c8.399,8.399,20.099,12.9,31.8,12.9s23.401-4.501,31.8-12.9
			c6-5.7,15.3-5.7,21.301,0C314.801,383.8,314.801,393.1,309.101,399.099z"/>
	</g>
	<g>
		<g>
			<g>
				<circle style="fill:#3C3A41;" cx="316" cy="286" r="15"/>
			</g>
		</g>
	</g>
	<path style="fill:#A24F3D;" d="M326.201,187.599c-12.902,42.001-37.5,77.1-70.201,101.7C221.8,316,178.9,331,133.001,331H91V226
		c0-6,3.6-11.4,9-13.801C102.7,211,171.099,181,256,181c17.1,0,33.6,1.199,50.4,3.6h1.8
		C314.5,185.499,320.501,186.4,326.201,187.599z"/>
	<path style="fill:#FD4E26;" d="M309.101,377.8c5.7,6,5.7,15.3,0,21.299C295,413.2,276.099,421,256,421v-30.3
		c11.7,0,23.401-4.501,31.8-12.9C293.8,372.1,303.1,372.1,309.101,377.8z"/>
	<path style="fill:#8B432D;" d="M308.2,184.6c6.301,0.899,12.301,1.8,18.001,2.999c-12.902,42.001-37.5,77.1-70.201,101.7V181
		c17.1,0,33.6,1.199,50.4,3.6H308.2z"/>
</g>
<g>
</g>
<g>
</g>
<g>
</g>
<g>
</g>
<g>
</g>
<g>
</g>
<g>
</g>
<g>
</g>
<g>
</g>
<g>
</g>
<g>
</g>
<g>
</g>
<g>
</g>
<g>
</g>
<g>
</g>
</svg>
