<?xml version="1.0" encoding="iso-8859-1"?>
<!-- Generator: Adobe Illustrator 19.0.0, SVG Export Plug-In . SVG Version: 6.00 Build 0)  -->
<svg version="1.1" id="Layer_1" xmlns="http://www.w3.org/2000/svg" xmlns:xlink="http://www.w3.org/1999/xlink" x="0px" y="0px"
	 viewBox="0 0 512 512" style="enable-background:new 0 0 512 512;" xml:space="preserve">
<g>
	<g>
		<path style="fill:#FF9870;" d="M106,361H91c-33.091,0-60-26.909-60-60s26.909-60,60-60h15c8.291,0,15,6.709,15,15v90
			C121,354.291,114.291,361,106,361z"/>
	</g>
	<g>
		<path style="fill:#F28155;" d="M421,361h-15c-8.291,0-15-6.709-15-15v-90c0-8.291,6.709-15,15-15h15c33.091,0,60,26.909,60,60
			S454.091,361,421,361z M421,331h0.293H421z"/>
	</g>
	<path style="fill:#FEA832;" d="M421,165v91l-39.6-49.501c-6.599-16.8-16.5-33.699-30-47.199C325.901,134.099,292,120,256,120
		c-50.7,0-96.599,27.9-120,72.9c-6.301,12.299-10.499,26.199-12.599,39.699L91,256v-91C91,74.099,165.099,0,256,0
		c43.801,0,85.499,17.1,116.7,47.999C403.9,79.499,421,121.199,421,165z"/>
	<path style="fill:#FE9923;" d="M421,165v91l-39.6-49.501c-6.599-16.8-16.5-33.699-30-47.199C325.901,134.099,292,120,256,120V0
		c43.801,0,85.499,17.1,116.7,47.999C403.9,79.499,421,121.199,421,165z"/>
	<path style="fill:#FEDB41;" d="M421,256v90c0,2.1-0.3,4.2-0.3,6.299l-39.3-48.6C362.199,246.099,315.099,200.7,256,185.7
		c-14.399-3.9-29.399-5.7-45-5.7c-24.3,0-47.401,4.799-69,14.099l-32.401-15C137.8,124.2,193.9,90,256,90
		c43.801,0,85.499,17.1,116.7,47.999C403.9,169.499,421,212.199,421,256z"/>
	<path style="fill:#FCBF29;" d="M421,256v90c0,2.1-0.3,4.2-0.3,6.299l-39.3-48.6C362.199,246.099,315.099,200.7,256,185.7V90
		c43.801,0,85.499,17.1,116.7,47.999C403.9,169.499,421,212.199,421,256z"/>
	<g>
		<g>
			<path style="fill:#FFC5AD;" d="M256,154.799C241.601,151.8,226.601,150,211,150c-33.3,0-66,7.8-95.099,22.5
				c-2.701,1.5-5.101,3.9-6.301,6.599C97.301,202.5,91,228.999,91,256v90c0,90.899,74.099,166,165,166
				c88.2,0,160.8-70,164.7-159.101v-0.601c0-0.298,0-0.298,0-0.599C416.499,254.5,347.5,174.6,256,154.799z"/>
		</g>
	</g>
	<path style="fill:#FFAC8C;" d="M420.7,351.7c0,0.3,0,0.3,0,0.599v0.601C416.8,442,344.2,512,256,512V154.799
		C347.5,174.6,416.499,254.5,420.7,351.7z"/>
	<g>
		<path style="fill:#FD6244;" d="M309.101,399.099C295,413.2,276.099,421,256,421s-39-7.8-53.101-21.901
			c-5.7-5.999-5.7-15.298,0-21.299c6-5.7,15.3-5.7,21.301,0c8.399,8.399,20.099,12.9,31.8,12.9s23.401-4.501,31.8-12.9
			c6-5.7,15.3-5.7,21.301,0C314.801,383.8,314.801,393.1,309.101,399.099z"/>
	</g>
	<g>
		<circle style="fill:#57555C;" cx="196" cy="286" r="15"/>
	</g>
	<g>
		<circle style="fill:#3C3A41;" cx="316" cy="286" r="15"/>
	</g>
	<path style="fill:#FD4E26;" d="M309.101,377.8c5.7,6,5.7,15.3,0,21.299C295,413.2,276.099,421,256,421v-30.3
		c11.7,0,23.401-4.501,31.8-12.9C293.8,372.1,303.1,372.1,309.101,377.8z"/>
</g>
<g>
</g>
<g>
</g>
<g>
</g>
<g>
</g>
<g>
</g>
<g>
</g>
<g>
</g>
<g>
</g>
<g>
</g>
<g>
</g>
<g>
</g>
<g>
</g>
<g>
</g>
<g>
</g>
<g>
</g>
</svg>
