<?xml version="1.0" encoding="iso-8859-1"?>
<!-- Generator: Adobe Illustrator 19.0.0, SVG Export Plug-In . SVG Version: 6.00 Build 0)  -->
<svg version="1.1" id="Layer_1" xmlns="http://www.w3.org/2000/svg" xmlns:xlink="http://www.w3.org/1999/xlink" x="0px" y="0px"
	 viewBox="0 0 512 512" style="enable-background:new 0 0 512 512;" xml:space="preserve">
<g>
	<g>
		<path style="fill:#FEA832;" d="M256,0C165.099,0,91,75.099,91,166c0,8.399,6.599,15,15,15h300c8.401,0,15-6.601,15-15
			C421,75.099,346.901,0,256,0z"/>
	</g>
	<path style="fill:#FE9923;" d="M421,166c0,8.399-6.599,15-15,15H256V0C346.901,0,421,75.099,421,166z"/>
	<g>
		<path style="fill:#FEDB41;" d="M256,0c-48.6,0-75,85.899-75,166c0,8.399,6.599,15,15,15h120c8.401,0,15-6.601,15-15
			C331,85.899,304.6,0,256,0z"/>
	</g>
	<path style="fill:#FCBF29;" d="M331,166c0,8.399-6.599,15-15,15h-60V0C304.6,0,331,85.899,331,166z"/>
	<g>
		<g>
			<path style="fill:#F28155;" d="M421,361h-15c-8.291,0-15-6.709-15-15v-90c0-8.291,6.709-15,15-15h15c33.091,0,60,26.909,60,60
				S454.091,361,421,361z"/>
		</g>
	</g>
	<g>
		<g>
			<path style="fill:#FF9870;" d="M106,361H91c-33.091,0-60-26.909-60-60s26.909-60,60-60h15c8.291,0,15,6.709,15,15v90
				C121,354.291,114.291,361,106,361z"/>
		</g>
	</g>
	<g>
		<path style="fill:#FFC5AD;" d="M406,211H106c-8.401,0-15,6.599-15,15v120c0,90.899,74.099,166,165,166s165-75.101,165-166V226
			C421,217.599,414.401,211,406,211z"/>
	</g>
	<path style="fill:#FFAC8C;" d="M421,226v120c0,90.899-74.099,166-165,166V211h150C414.401,211,421,217.599,421,226z"/>
	<g>
		<path style="fill:#FD6244;" d="M309.101,399.099C295,413.2,276.099,421,256,421s-39-7.8-53.101-21.901
			c-5.7-5.999-5.7-15.298,0-21.299c6-5.7,15.3-5.7,21.301,0c8.399,8.399,20.099,12.9,31.8,12.9s23.401-4.501,31.8-12.9
			c6-5.7,15.3-5.7,21.301,0C314.801,383.8,314.801,393.1,309.101,399.099z"/>
	</g>
	<g>
		<circle style="fill:#57555C;" cx="196" cy="286" r="15"/>
	</g>
	<g>
		<g>
			<circle style="fill:#3C3A41;" cx="316" cy="286" r="15"/>
		</g>
	</g>
	<g>
		<g>
			<path style="fill:#B35C4B;" d="M406,151H106c-41.4,0-75,33.6-75,75c0,8.399,6.599,15,15,15h420c8.401,0,15-6.601,15-15
				C481,184.6,447.4,151,406,151z"/>
		</g>
	</g>
	<path style="fill:#FD4E26;" d="M309.101,377.8c5.7,6,5.7,15.3,0,21.299C295,413.2,276.099,421,256,421v-30.3
		c11.7,0,23.401-4.501,31.8-12.9C293.8,372.1,303.1,372.1,309.101,377.8z"/>
	<path style="fill:#A24F3D;" d="M481,226c0,8.399-6.599,15-15,15H256v-90h150C447.4,151,481,184.6,481,226z"/>
</g>
<g>
</g>
<g>
</g>
<g>
</g>
<g>
</g>
<g>
</g>
<g>
</g>
<g>
</g>
<g>
</g>
<g>
</g>
<g>
</g>
<g>
</g>
<g>
</g>
<g>
</g>
<g>
</g>
<g>
</g>
</svg>
