<?xml version="1.0" encoding="iso-8859-1"?>
<!-- Generator: Adobe Illustrator 19.0.0, SVG Export Plug-In . SVG Version: 6.00 Build 0)  -->
<svg version="1.1" id="Layer_1" xmlns="http://www.w3.org/2000/svg" xmlns:xlink="http://www.w3.org/1999/xlink" x="0px" y="0px"
	 viewBox="0 0 512 512" style="enable-background:new 0 0 512 512;" xml:space="preserve">
<g>
	<g>
		<g>
			<g>
				<g>
					<path style="fill:#FF9870;" d="M106,361H91c-33.091,0-60-26.909-60-60s26.909-60,60-60h15c8.291,0,15,6.709,15,15v90
						C121,354.291,114.291,361,106,361z"/>
				</g>
			</g>
		</g>
	</g>
	<g>
		<g>
			<g>
				<g>
					<path style="fill:#F28155;" d="M481,301c0,33.091-26.909,60-60,60h-15c-8.291,0-15-6.709-15-15v-90c0-8.291,6.709-15,15-15h15
						C454.091,241,481,267.909,481,301z M421,331h0.293H421z"/>
				</g>
			</g>
		</g>
	</g>
	<path style="fill:#FFC5AD;" d="M421,221.499v118.2c0,9.001-0.901,17.401-2.1,25.501L365.799,376L256,332.199l-122.999,49.2
		L92.8,365.501C92.199,359.2,91,352.599,91,346V221.499c0-8.399,6.599-15,15-15h300C414.401,206.499,421,213.1,421,221.499z"/>
	<path style="fill:#FFAC8C;" d="M421,221.499v118.2c0,9.001-0.901,17.401-2.1,25.501L365.799,376L256,332.199v-125.7h150
		C414.401,206.499,421,213.1,421,221.499z"/>
	<g>
		<g>
			<g>
				<g>
					<path style="fill:#A24F3D;" d="M433.299,182.701L401.8,56.1C393.401,23.101,363.999,0,329.801,0c-11.4,0-22.8,2.701-33.001,7.8
						L256,28.2L215.2,7.8C205,2.701,193.599,0,182.199,0c-34.199,0-63.6,23.101-71.999,56.1L79.3,180.601
						c-2.399,9.3,4.501,18.6,14.401,18.6L256,200.099l162.599,1.201c0.3,0,0.3,0,0.3,0C428.5,201.301,435.7,192.299,433.299,182.701
						z"/>
				</g>
			</g>
		</g>
	</g>
	<g>
		<path style="fill:#B35C4B;" d="M507.201,145.901c-11.102-22.2-38.101-31.201-60.3-20.101l-21.101,9.901
			C406,145.901,383.5,151,361.3,151H150.7c-22.2,0-44.7-5.099-64.499-15.3l-21.101-9.901c-22.2-11.1-49.199-2.098-60.3,20.101
			c-11.1,22.2-2.098,49.199,20.101,60.3c30,15,67.299,34.799,125.799,34.799H361.3c58.5,0,95.799-19.799,125.799-34.799
			C509.299,195.099,518.301,168.1,507.201,145.901z"/>
	</g>
	<path style="fill:#8B432D;" d="M418.9,201.301c0,0,0,0-0.3,0L256,200.099V28.2l40.8-20.4C307,2.701,318.401,0,329.801,0
		c34.199,0,63.6,23.101,71.999,56.1l31.5,126.601C435.7,192.299,428.5,201.301,418.9,201.301z"/>
	<path style="fill:#A24F3D;" d="M487.099,206.201c-30,15-67.299,34.799-125.799,34.799H256v-90h105.3c22.2,0,44.7-5.099,64.499-15.3
		l21.101-9.901c22.2-11.1,49.199-2.098,60.3,20.101C518.301,168.1,509.299,195.099,487.099,206.201z"/>
	<g>
		<path style="fill:#FD3C65;" d="M261.7,302.199c-1.8-0.599-3.9-1.199-5.7-1.199s-3.9,0.601-5.7,1.199
			C103.001,361,91.901,365.2,91.901,365.2C102.1,449.2,172.301,512,256,512h0.3c84.3,0,150.899-64.9,162.599-146.8L261.7,302.199z"
			/>
	</g>
	<path style="fill:#FD003A;" d="M261.7,302.199L418.9,365.2C407.199,447.1,340.6,512,256.3,512H256V301
		C257.8,301,259.9,301.601,261.7,302.199z"/>
	<g>
		<circle style="fill:#57555C;" cx="196" cy="286" r="15"/>
	</g>
	<g>
		<g>
			<g>
				<circle style="fill:#3C3A41;" cx="316" cy="286" r="15"/>
			</g>
		</g>
	</g>
</g>
<g>
</g>
<g>
</g>
<g>
</g>
<g>
</g>
<g>
</g>
<g>
</g>
<g>
</g>
<g>
</g>
<g>
</g>
<g>
</g>
<g>
</g>
<g>
</g>
<g>
</g>
<g>
</g>
<g>
</g>
</svg>
