<?xml version="1.0" encoding="iso-8859-1"?>
<!-- Generator: Adobe Illustrator 19.0.0, SVG Export Plug-In . SVG Version: 6.00 Build 0)  -->
<svg version="1.1" id="Layer_1" xmlns="http://www.w3.org/2000/svg" xmlns:xlink="http://www.w3.org/1999/xlink" x="0px" y="0px"
	 viewBox="0 0 512 512" style="enable-background:new 0 0 512 512;" xml:space="preserve">
<g>
	<g>
		<g>
			<path style="fill:#E8E4D9;" d="M382.053,309.2c-2.1-1.199-4.501-1.8-7.2-1.8H62.252c-14.099,0-38.699,24.3-38.699,54.6
				c0,33.9,27.599,60,59.7,60h0.3c0,41.999,42.299,71.1,81.301,56.1c9.6,20.099,30.298,33.9,53.699,33.9s44.099-13.801,53.699-33.9
				c39.001,15,81.301-14.101,81.301-56.1h0.3c32.999-0.3,59.7-27.001,59.7-60C413.552,339.8,401.552,319.699,382.053,309.2z"/>
		</g>
	</g>
	<path style="fill:#FD3C65;" d="M348.753,139.799H88.352l25.501-127.798c1.5-6.901,7.5-12.001,14.7-12.001h180
		c7.2,0,13.2,5.099,14.7,12.001L348.753,139.799z"/>
	<path style="fill:#FFC5AD;" d="M383.552,174.6v122.298h-330V174.6c0-8.101,6.599-15,15-15h300
		C376.953,159.6,383.552,166.5,383.552,174.6z"/>
	<path style="fill:#E50027;" d="M431.072,93.794L317.927,3.281l-17.699,24.278l112.094,89.672
		c6.448,5.151,15.874,4.136,21.094-2.344C438.587,108.413,437.532,98.979,431.072,93.794z"/>
	<path style="fill:#D9D5CB;" d="M413.552,362c0,32.999-26.7,59.7-59.7,60h-0.3c0,41.999-42.299,71.1-81.301,56.1
		c-9.6,20.099-30.298,33.9-53.699,33.9V307.4h156.301c2.699,0,5.099,0.601,7.2,1.8C401.552,319.699,413.552,339.8,413.552,362z"/>
	<path style="fill:#FD003A;" d="M348.753,139.799H218.552V0h90c7.2,0,13.2,5.099,14.7,12.001L348.753,139.799z"/>
	<path style="fill:#FFAC8C;" d="M383.552,174.6v122.298h-165V159.6h150C376.953,159.6,383.552,166.5,383.552,174.6z"/>
	<g>
		<g>
			<path style="fill:#F0EDEA;" d="M323.552,90c-19.799,0-38.699,8.101-52.5,21.899c-13.801-13.799-33.3-20.7-52.5-20.7
				s-38.699,6.901-52.5,20.7C152.252,98.101,133.352,90,113.552,90c-41.4,0-75,33.6-75,75s33.6,75,75,75
				c19.799,0,38.699-8.101,52.5-21.901c13.801,13.801,33.3,20.7,52.5,20.7s38.699-6.899,52.5-20.7
				c13.801,13.801,32.701,21.901,52.5,21.901c41.4,0,75-33.6,75-75S364.953,90,323.552,90z"/>
		</g>
	</g>
	<path style="fill:#E8E4D9;" d="M271.052,218.099c-13.801,13.801-33.3,20.7-52.5,20.7V91.199c19.2,0,38.699,6.901,52.5,20.7
		C284.853,98.101,303.753,90,323.552,90c41.4,0,75,33.6,75,75s-33.6,75-75,75C303.753,240,284.853,231.899,271.052,218.099z"/>
	<g>
		<g>
			<path style="fill:#E8E4D9;" d="M428.552,210c-33.091,0-60-26.909-60-60s26.909-60,60-60s60,26.909,60,60S461.643,210,428.552,210
				z"/>
		</g>
	</g>
	<path style="fill:#F0EDEA;" d="M393.753,272.899L328.652,294.5c-9.899,3.3-20.7,0.899-27.9-6.601
		c-13.2-13.2-31.5-19.199-49.799-15.899c-12.9,1.8-24,8.099-32.401,17.399c-8.401-9.3-19.501-15.599-32.401-17.399
		c-18.3-3.3-36.599,2.699-49.799,15.899c-7.2,7.5-18.001,9.901-27.9,6.601l-65.101-21.601c-13.499-4.799-25.199,10.501-17.399,22.5
		l19.799,29.7c21,31.201,55.8,48.9,91.8,48.9c33.9,0,59.401-14.099,81-35.7c22.5,22.202,47.999,35.7,81,35.7
		c36,0,70.8-17.699,91.8-48.9l19.799-29.7C418.952,283.4,407.252,268.1,393.753,272.899z"/>
	<path style="fill:#E8E4D9;" d="M411.152,295.399l-19.799,29.7c-21,31.201-55.8,48.9-91.8,48.9c-33.001,0-58.5-13.499-81-35.7v-48.9
		c8.401-9.3,19.501-15.599,32.401-17.399c18.3-3.3,36.599,2.699,49.799,15.899c7.2,7.5,18.001,9.901,27.9,6.601l65.101-21.601
		C407.252,268.1,418.952,283.4,411.152,295.399z"/>
</g>
<g>
</g>
<g>
</g>
<g>
</g>
<g>
</g>
<g>
</g>
<g>
</g>
<g>
</g>
<g>
</g>
<g>
</g>
<g>
</g>
<g>
</g>
<g>
</g>
<g>
</g>
<g>
</g>
<g>
</g>
</svg>
