<?xml version="1.0" encoding="iso-8859-1"?>
<!-- Generator: Adobe Illustrator 19.0.0, SVG Export Plug-In . SVG Version: 6.00 Build 0)  -->
<svg version="1.1" id="Layer_1" xmlns="http://www.w3.org/2000/svg" xmlns:xlink="http://www.w3.org/1999/xlink" x="0px" y="0px"
	 viewBox="0 0 512 512" style="enable-background:new 0 0 512 512;" xml:space="preserve">
<g>
	<path style="fill:#57555C;" d="M481,270l-27.599,47.8L481,362v15c0,24.899-20.099,45-45,45s-45-20.101-45-45v-15l24.3-48.8L391,270
		v-30h-15c-39.901,0-94.2-23.701-120-60.601C230.2,216.299,175.901,240,136,240h-15v30l-21.899,55.099L121,362v15
		c0,24.899-20.099,45-45,45s-45-20.101-45-45v-15l35.7-37.5L31,270v-45c0-26.4,4.501-51.601,13.2-75l26.1-13.2L57.4,120
		C94.9,48.6,169.9,0,256,0c47.999,0,93.6,15,132.001,43.2l58.2,61.8c0.599,0.599,1.199,1.5,1.8,2.399
		C469.6,143.099,481,183.6,481,225V270z"/>
	<g>
		<path style="fill:#FD3C65;" d="M121,362H31v-92h90V362z"/>
	</g>
	<path style="fill:#3C3A41;" d="M481,270l-27.599,47.8L481,362v15c0,24.899-20.099,45-45,45s-45-20.101-45-45v-15l24.3-48.8L391,270
		v-30h-15c-39.901,0-94.2-23.701-120-60.601V0c47.999,0,93.6,15,132.001,43.2l58.2,61.8c0.599,0.599,1.199,1.5,1.8,2.399
		C469.6,143.099,481,183.6,481,225V270z"/>
	<g>
		<path style="fill:#A24F3D;" d="M88.993,504.5C86.313,509.144,81.361,512,76,512h-0.015c-5.376,0-10.327-2.886-12.993-7.544
			l-27.466-47.915C32.274,449.363,31,443.27,31,437c0-24.814,20.186-45,45-45s45,20.186,45,45c0,7.339-1.816,14.619-5.244,21.079
			L88.993,504.5z"/>
	</g>
	<g>
		<path style="fill:#8B432D;" d="M448.993,504.5c-2.681,4.644-7.632,7.5-12.993,7.5h-0.015c-5.376,0-10.327-2.886-12.993-7.544
			l-27.466-47.915C392.274,449.363,391,443.27,391,437c0-24.814,20.186-45,45-45s45,20.186,45,45c0,7.339-1.816,14.619-5.244,21.079
			L448.993,504.5z"/>
	</g>
	<g>
		<path style="fill:#FD003A;" d="M481,362h-90v-92h90V362z"/>
	</g>
	<g>
		<g>
			<g>
				<g>
					<path style="fill:#FFC5AD;" d="M406,210h-30c-45,0-105-37.2-105-75c0-8.401-6.599-15-15-15s-15,6.599-15,15
						c0,37.8-60,75-105,75h-30c-8.401,0-15,6.599-15,15v122c0,43.799,17.1,85.499,48.3,116.999C170.501,494.9,212.199,512,256,512
						c90.901,0,165-74.101,165-165V225C421,216.599,414.401,210,406,210z"/>
				</g>
			</g>
		</g>
	</g>
	<path style="fill:#FFAC8C;" d="M421,225v122c0,90.899-74.099,165-165,165V120c8.401,0,15,6.599,15,15c0,37.8,60,75,105,75h30
		C414.401,210,421,216.599,421,225z"/>
	<g>
		<circle style="fill:#787780;" cx="196" cy="285" r="15"/>
	</g>
	<g>
		<g>
			<circle style="fill:#57555C;" cx="316" cy="285" r="15"/>
		</g>
	</g>
	<g>
		<path style="fill:#FD3C65;" d="M309.101,400.099C295,414.2,276.099,422,256,422s-39-7.8-53.101-21.901
			c-5.7-5.999-5.7-15.298,0-21.299c6-5.7,15.3-5.7,21.301,0c8.399,8.399,20.099,12.9,31.8,12.9s23.401-4.501,31.8-12.9
			c6-5.7,15.3-5.7,21.301,0C314.801,384.8,314.801,394.1,309.101,400.099z"/>
	</g>
	<path style="fill:#FD003A;" d="M309.101,378.8c5.7,6,5.7,15.3,0,21.299C295,414.2,276.099,422,256,422v-30.3
		c11.7,0,23.401-4.501,31.8-12.9C293.8,373.1,303.1,373.1,309.101,378.8z"/>
	<g>
		<path style="fill:#FD3C65;" d="M398.5,135c0,8.399-6.599,15-15,15H44.2c3.3-10.501,7.8-20.4,13.2-30h326.1
			C391.901,120,398.5,126.599,398.5,135z"/>
	</g>
	<path style="fill:#FD003A;" d="M398.5,135c0,8.399-6.599,15-15,15H256v-30h127.5C391.901,120,398.5,126.599,398.5,135z"/>
	<g>
		<path style="fill:#FCBF29;" d="M406,180c-4.277,0-8.335-1.816-11.191-5.01C393.432,173.452,361,136.611,361,90
			s32.432-83.452,33.809-84.99c5.713-6.387,16.67-6.387,22.383,0C418.568,6.548,451,43.389,451,90s-32.432,83.452-33.809,84.99
			C414.335,178.184,410.277,180,406,180z"/>
	</g>
</g>
<g>
</g>
<g>
</g>
<g>
</g>
<g>
</g>
<g>
</g>
<g>
</g>
<g>
</g>
<g>
</g>
<g>
</g>
<g>
</g>
<g>
</g>
<g>
</g>
<g>
</g>
<g>
</g>
<g>
</g>
</svg>
