<?xml version="1.0" encoding="iso-8859-1"?>
<!-- Generator: Adobe Illustrator 19.0.0, SVG Export Plug-In . SVG Version: 6.00 Build 0)  -->
<svg version="1.1" id="Layer_1" xmlns="http://www.w3.org/2000/svg" xmlns:xlink="http://www.w3.org/1999/xlink" x="0px" y="0px"
	 viewBox="0 0 512 512" style="enable-background:new 0 0 512 512;" xml:space="preserve">
<g>
	<g>
		<g>
			<g>
				<g>
					<path style="fill:#FF9870;" d="M121,347c0,8.291-6.709,15-15,15H91c-33.091,0-60-26.909-60-60s26.909-60,60-60h15
						c8.291,0,15,6.709,15,15V347z"/>
				</g>
			</g>
		</g>
	</g>
	<g>
		<g>
			<g>
				<g>
					<path style="fill:#F28155;" d="M481,302c0,33.091-26.909,60-60,60h-15c-8.291,0-15-6.709-15-15v-90c0-8.291,6.709-15,15-15h15
						C454.091,242,481,268.909,481,302z M421,332h0.293H421z"/>
				</g>
			</g>
		</g>
	</g>
	<path style="fill:#FFC5AD;" d="M421,272v75c0,90.899-74.099,165-165,165S91,437.899,91,347v-76.5l31.5-31.8
		c5.7-2.1,10.8-5.402,15-9.901c8.701-8.401,13.5-21.801,13.5-33.8c0-8.401,6.599-15,15-15h180c8.401,0,15,6.599,15,15
		c0,21.299,15,41,34.799,45.799L421,272z"/>
	<path style="fill:#FFAC8C;" d="M421,272v75c0,90.899-74.099,165-165,165V180h90c8.401,0,15,6.599,15,15
		c0,21.299,15,41,34.799,45.799L421,272z"/>
	<g>
		<path style="fill:#FD6244;" d="M309.101,400.099C295,414.2,276.099,422,256,422s-39-7.8-53.101-21.901
			c-5.7-5.999-5.7-15.298,0-21.299c6-5.7,15.3-5.7,21.301,0c8.399,8.399,20.099,12.9,31.8,12.9s23.401-4.501,31.8-12.9
			c6-5.7,15.3-5.7,21.301,0C314.801,384.8,314.801,394.1,309.101,400.099z"/>
	</g>
	<g>
		<circle style="fill:#57555C;" cx="196" cy="287" r="15"/>
	</g>
	<g>
		<g>
			<circle style="fill:#3C3A41;" cx="316" cy="287" r="15"/>
		</g>
	</g>
	<path style="fill:#57555C;" d="M120.467,180L91,195v75.565c25.732,4.921,50.726-3.033,67.764-20.508
		C173.104,236.097,181,215.259,181,195v-15H120.467z"/>
	<path style="fill:#3C3A41;" d="M331,180v15c0,41.353,33.647,77,75,77h15v-77l-30.798-15H331z"/>
	<path style="fill:#FD4E26;" d="M309.101,400.099C295,414.2,276.099,422,256,422v-30.3c11.7,0,23.401-4.501,31.8-12.9
		c6-5.7,15.3-5.7,21.301,0C314.801,384.8,314.801,394.1,309.101,400.099z"/>
	<g>
		<g>
			<path style="fill:#F0EDEA;" d="M422.5,26.7C408.401,9.6,387.4,0,365.2,0H146.8C98.5,0,64.6,44.7,73.001,87.299L91,195h330
				l15-89.7C441.099,75.3,445,53.099,422.5,26.7z"/>
		</g>
	</g>
	<path style="fill:#E8E4D9;" d="M436,105.3L421,195H256V0h109.2c22.2,0,43.2,9.6,57.299,26.7C445,53.099,441.099,75.3,436,105.3z"/>
	<path style="fill:#FD003A;" d="M301,105c0,8.399-6.599,15-15,15h-15v15c0,8.399-6.599,15-15,15s-15-6.601-15-15v-15h-15
		c-8.401,0-15-6.601-15-15c0-8.401,6.599-15,15-15h15V75c0-8.401,6.599-15,15-15s15,6.599,15,15v15h15
		C294.401,90,301,96.599,301,105z"/>
	<path style="fill:#E50027;" d="M256,150V60c8.401,0,15,6.599,15,15v15h15c8.401,0,15,6.599,15,15c0,8.399-6.599,15-15,15h-15v15
		C271,143.399,264.401,150,256,150z"/>
</g>
<g>
</g>
<g>
</g>
<g>
</g>
<g>
</g>
<g>
</g>
<g>
</g>
<g>
</g>
<g>
</g>
<g>
</g>
<g>
</g>
<g>
</g>
<g>
</g>
<g>
</g>
<g>
</g>
<g>
</g>
</svg>
