<?xml version="1.0" encoding="iso-8859-1"?>
<!-- Generator: Adobe Illustrator 19.0.0, SVG Export Plug-In . SVG Version: 6.00 Build 0)  -->
<svg version="1.1" id="Layer_1" xmlns="http://www.w3.org/2000/svg" xmlns:xlink="http://www.w3.org/1999/xlink" x="0px" y="0px"
	 viewBox="0 0 512 512" style="enable-background:new 0 0 512 512;" xml:space="preserve">
<g>
	<g>
		<g>
			<path style="fill:#FFC5AD;" d="M408.083,395.3c-11.1-17.999-17.1-39-17.1-60.601V225c0-8.401-6.599-15-15-15h-240
				c-8.401,0-15,6.599-15,15v109.699c0,21.601-6,42.601-17.1,60.601c-2.401,3.9-2.699,9-0.899,13.5
				C128.182,471.499,188.182,512,255.983,512s127.8-40.501,152.999-103.2C410.782,404.299,410.483,399.2,408.083,395.3z"/>
		</g>
	</g>
	<path style="fill:#FFAC8C;" d="M408.982,408.8C383.783,471.499,323.783,512,255.983,512V210h120c8.401,0,15,6.599,15,15v109.699
		c0,21.601,6,42.601,17.1,60.601C410.483,399.2,410.782,404.299,408.982,408.8z"/>
	<g>
		<path style="fill:#FD6244;" d="M309.083,400.099C294.982,414.2,276.082,422,255.983,422s-39-7.8-53.101-21.901
			c-5.7-5.999-5.7-15.298,0-21.299c6-5.7,15.3-5.7,21.301,0c8.399,8.399,20.099,12.9,31.8,12.9c11.7,0,23.401-4.501,31.8-12.9
			c6-5.7,15.3-5.7,21.301,0C314.783,384.8,314.783,394.1,309.083,400.099z"/>
	</g>
	<path style="fill:#2B292C;" d="M450.983,274.695V195l-90,24.609v115.086c0,27.217,7.412,53.599,21.343,76.113
		c5.786,9.653,13.037,19.043,22.031,28.374c18.036,17.096,45.216,17.096,63.252,0l0.278-0.278c17.593-17.593,17.593-46.216,0-63.809
		C458.644,365.853,450.983,351.907,450.983,274.695z"/>
	<path style="fill:#3C3A41;" d="M124.733,228.281L60.983,195v139.695c0,14.927-6.167,29.648-16.904,40.4
		c-17.593,17.593-17.593,46.216,0.278,64.087c17.31,16.408,44.336,17.958,63.735-0.483c8.511-8.848,15.762-18.237,21.445-27.715
		c14.033-22.69,21.445-49.072,21.445-76.289V214.788L124.733,228.281z"/>
	<path style="fill:#FD4E26;" d="M309.083,378.8c5.7,6,5.7,15.3,0,21.299C294.982,414.2,276.082,422,255.983,422v-30.3
		c11.7,0,23.401-4.501,31.8-12.9C293.783,373.1,303.083,373.1,309.083,378.8z"/>
	<g>
		<path style="fill:#57555C;" d="M375.983,0h-240c-41.4,0-75,33.6-75,75v120c0,24.899,20.099,45,45,45h300c24.901,0,45-20.101,45-45
			V75C450.983,33.6,417.383,0,375.983,0z"/>
	</g>
	<path style="fill:#3C3A41;" d="M450.983,75v120c0,24.899-20.099,45-45,45h-150V0h120C417.383,0,450.983,33.6,450.983,75z"/>
	<g>
		<g>
			<circle style="fill:#3C3A41;" cx="315.983" cy="287" r="15"/>
		</g>
	</g>
	<g>
		<circle style="fill:#57555C;" cx="195.983" cy="287" r="15"/>
	</g>
	<g>
		<path style="fill:#FD3C65;" d="M313.882,92.999L282.983,88.5l-13.5-27.601c-2.701-5.099-8.101-7.5-13.5-7.5
			c-5.4,0-10.8,2.401-13.5,7.5l-13.5,27.601l-30.899,4.499c-12.001,1.8-17.1,16.8-8.101,25.501l22.2,21.599l-5.4,30.601
			c-2.1,12.299,10.8,21.599,21.901,15.899l27.299-14.399l27.299,14.399c11.102,5.7,24.001-3.6,21.901-15.899l-5.4-30.601
			l22.2-21.599C330.983,109.799,325.883,94.799,313.882,92.999z"/>
	</g>
	<path style="fill:#FD003A;" d="M321.983,118.5l-22.2,21.599l5.4,30.601c2.1,12.299-10.8,21.599-21.901,15.899L255.983,172.2V53.399
		c5.4,0,10.8,2.401,13.5,7.5l13.5,27.601l30.899,4.499C325.883,94.799,330.983,109.799,321.983,118.5z"/>
</g>
<g>
</g>
<g>
</g>
<g>
</g>
<g>
</g>
<g>
</g>
<g>
</g>
<g>
</g>
<g>
</g>
<g>
</g>
<g>
</g>
<g>
</g>
<g>
</g>
<g>
</g>
<g>
</g>
<g>
</g>
</svg>
