<?xml version="1.0" encoding="iso-8859-1"?>
<!-- Generator: Adobe Illustrator 19.0.0, SVG Export Plug-In . SVG Version: 6.00 Build 0)  -->
<svg version="1.1" id="Layer_1" xmlns="http://www.w3.org/2000/svg" xmlns:xlink="http://www.w3.org/1999/xlink" x="0px" y="0px"
	 viewBox="0 0 512 512" style="enable-background:new 0 0 512 512;" xml:space="preserve">
<g>
	<g>
		<g>
			<path style="fill:#FF9870;" d="M121,347c0,8.291-6.709,15-15,15H91c-33.091,0-60-26.909-60-60s26.909-60,60-60h15
				c8.291,0,15,6.709,15,15V347z"/>
		</g>
	</g>
	<g>
		<g>
			<g>
				<g>
					<path style="fill:#F28155;" d="M481,302c0,33.091-26.909,60-60,60h-15c-8.291,0-15-6.709-15-15v-90c0-8.291,6.709-15,15-15h15
						C454.091,242,481,268.909,481,302z M421,332h0.293H421z"/>
				</g>
			</g>
		</g>
	</g>
	<path style="fill:#FFC5AD;" d="M421,210v137c0,90.899-74.099,165-165,165S91,437.899,91,347V210c1.8,0.3,3.3,0.599,3.3,0.599
		l44.7-30.599h219.6L421,210z"/>
	<path style="fill:#FFAC8C;" d="M421,210v137c0,90.899-74.099,165-165,165V180h102.599L421,210z"/>
	<g>
		<path style="fill:#1689FC;" d="M503.599,121.5l-241-120C260.501,0.599,258.401,0,256,0s-4.501,0.599-6.599,1.5l-241,120
			C3.3,124.2,0,129.3,0,135s3.3,10.8,8.401,13.5l96.999,47.999c3.6,1.8,7.5,2.1,11.4,0.601c3.6-1.201,6.901-3.9,8.701-7.5L145.3,150
			h221.4l19.799,39.6c1.8,3.6,5.101,6.299,8.701,7.5c1.5,0.599,3.3,0.899,4.799,0.899c2.401,0,4.501-0.601,6.601-1.5l96.999-47.999
			C508.7,145.8,512,140.7,512,135S508.7,124.2,503.599,121.5z"/>
	</g>
	<path style="fill:#FE9923;" d="M482,257c0,8.291,6.709,15,15,15s15-6.709,15-15V135l-30,0.866V257z"/>
	<path style="fill:#136EF1;" d="M512,135c0,5.7-3.3,10.8-8.401,13.5L406.601,196.5c-2.1,0.899-4.2,1.5-6.601,1.5
		c-1.5,0-3.3-0.3-4.799-0.899c-3.6-1.201-6.901-3.9-8.701-7.5L366.7,150H256V0c2.401,0,4.501,0.599,6.599,1.5l241,120
		C508.7,124.2,512,129.3,512,135z"/>
	<g>
		<path style="fill:#17ACE8;" d="M419.801,189l-1.201-2.401l-29.099-58.2C386.8,123.3,381.7,120,376,120H136
			c-5.7,0-10.8,3.3-13.5,8.399l-29.099,58.2L92.199,189C91.3,190.8,91,192.9,91,195v15h330v-15C421,192.9,420.7,190.8,419.801,189z"
			/>
	</g>
	<path style="fill:#1689FC;" d="M421,195v15H256v-90h120c5.7,0,10.8,3.3,13.5,8.399l29.099,58.2l1.201,2.401
		C420.7,190.8,421,192.9,421,195z"/>
	<path style="fill:#57555C;" d="M241,287c0,41.353-33.647,75-75,75h-30c-24.814,0-45-20.186-45-45v-30c0-24.814,20.186-45,45-45h60
		C220.814,242,241,262.186,241,287z"/>
	<path style="fill:#F0EDEA;" d="M136,332c-8.276,0-15-6.724-15-15v-30c0-8.276,6.724-15,15-15h60c8.276,0,15,6.724,15,15
		c0,24.814-20.186,45-45,45H136z"/>
	<path style="fill:#3C3A41;" d="M421,317c0,24.814-20.186,45-45,45h-30c-41.353,0-75-33.647-75-75c0-24.814,20.186-45,45-45h60
		c24.814,0,45,20.186,45,45V317z"/>
	<path style="fill:#E8E4D9;" d="M346,332c-24.814,0-45-20.186-45-45c0-8.276,6.724-15,15-15h60c8.276,0,15,6.724,15,15v30
		c0,8.276-6.724,15-15,15H346z"/>
	<g>
		<path style="fill:#57555C;" d="M301,287c0,8.399-6.599,15-15,15h-60c-8.401,0-15-6.601-15-15c0-8.401,6.599-15,15-15h60
			C294.401,272,301,278.599,301,287z"/>
	</g>
	<g>
		<path style="fill:#FD6244;" d="M309.101,400.099C295,414.2,276.099,422,256,422s-39-7.8-53.101-21.901
			c-5.7-5.999-5.7-15.298,0-21.299c6-5.7,15.3-5.7,21.301,0c8.399,8.399,20.099,12.9,31.8,12.9s23.401-4.501,31.8-12.9
			c6-5.7,15.3-5.7,21.301,0C314.801,384.8,314.801,394.1,309.101,400.099z"/>
	</g>
	<path style="fill:#3C3A41;" d="M286,302h-30v-30h30c8.401,0,15,6.599,15,15C301,295.399,294.401,302,286,302z"/>
	<path style="fill:#FD4E26;" d="M309.101,378.8c5.7,6,5.7,15.3,0,21.299C295,414.2,276.099,422,256,422v-30.3
		c11.7,0,23.401-4.501,31.8-12.9C293.8,373.1,303.1,373.1,309.101,378.8z"/>
</g>
<g>
</g>
<g>
</g>
<g>
</g>
<g>
</g>
<g>
</g>
<g>
</g>
<g>
</g>
<g>
</g>
<g>
</g>
<g>
</g>
<g>
</g>
<g>
</g>
<g>
</g>
<g>
</g>
<g>
</g>
</svg>
