<?xml version="1.0" encoding="iso-8859-1"?>
<!-- Generator: Adobe Illustrator 19.0.0, SVG Export Plug-In . SVG Version: 6.00 Build 0)  -->
<svg version="1.1" id="Layer_1" xmlns="http://www.w3.org/2000/svg" xmlns:xlink="http://www.w3.org/1999/xlink" x="0px" y="0px"
	 viewBox="0 0 512 512" style="enable-background:new 0 0 512 512;" xml:space="preserve">
<g>
	<g>
		<path style="fill:#FF9870;" d="M91,361H76c-33.091,0-60-26.909-60-60s26.909-60,60-60h15c8.291,0,15,6.709,15,15v90
			C106,354.291,99.291,361,91,361z"/>
	</g>
	<g>
		<g>
			<g>
				<g>
					<path style="fill:#FFC5AD;" d="M361,151c-24.901,0-45,20.099-45,45v15H136c-12.9,0-25.8-4.2-36-12.001
						c-4.499-3.3-10.499-3.9-15.599-1.5C79.3,200.2,76,205.3,76,211v135c0,90.899,74.099,166,165,166s165-75.101,165-166V196
						C406,171.099,385.901,151,361,151z"/>
				</g>
			</g>
		</g>
	</g>
	<g>
		<g>
			<g>
				<g>
					<path style="fill:#8B432D;" d="M436,331h-45c-8.291,0-15-6.709-15-15V196c0-57.891-47.109-105-105-105h-19.497
						c-6.255,0-11.851-3.882-14.048-9.727c-2.197-5.859-0.527-12.451,4.175-16.567c35.405-30.908,86.807-41.309,129.097-27.568
						C427.606,54.481,466,106.293,466,166c0,16.948-3.135,33.56-9.17,48.94C479.945,223.568,496,245.453,496,271
						C496,304.091,469.091,331,436,331z"/>
				</g>
			</g>
		</g>
	</g>
	<path style="fill:#10BB67;" d="M401.005,3.823c-5.684-5.098-14.326-5.098-20.01,0C379.56,5.112,346,35.61,346,75
		s33.56,69.888,34.995,71.177l52.083-91.357C424.942,25.642,402.094,4.808,401.005,3.823z"/>
	<g>
		<g>
			<path style="fill:#32D736;" d="M391,150c-8.291,0-15-6.709-15-15c0-57.891,47.109-105,105-105c8.291,0,15,6.709,15,15
				C496,102.891,448.891,150,391,150z"/>
		</g>
	</g>
	<path style="fill:#FFAC8C;" d="M406,196v150c0,90.899-74.099,166-165,166V211h75v-15c0-24.901,20.099-45,45-45S406,171.099,406,196
		z"/>
	<g>
		<g>
			<path style="fill:#B35C4B;" d="M406,196c0-16.5-13.5-30-30-30s-30,13.5-30,30v30c0,8.399-6.599,15-15,15H136
				c-19.501,0-38.699-6.301-54-18.001C59.2,205.6,46,179.5,46,151c0-49.501,40.499-90,90-90h135C345.399,61,406,121.599,406,196z"/>
		</g>
	</g>
	<path style="fill:#A24F3D;" d="M406,196c0-16.5-13.5-30-30-30s-30,13.5-30,30v30c0,8.399-6.599,15-15,15h-90V61h30
		C345.399,61,406,121.599,406,196z"/>
	<g>
		<path style="fill:#FD6244;" d="M294.101,399.099C280,413.2,261.099,421,241,421s-39-7.8-53.101-21.901
			c-5.7-5.999-5.7-15.298,0-21.299c6-5.7,15.3-5.7,21.301,0c8.399,8.399,20.099,12.9,31.8,12.9s23.401-4.501,31.8-12.9
			c6-5.7,15.3-5.7,21.301,0C299.801,383.8,299.801,393.1,294.101,399.099z"/>
	</g>
	<g>
		<circle style="fill:#57555C;" cx="181" cy="286" r="15"/>
	</g>
	<g>
		<g>
			<g>
				<circle style="fill:#3C3A41;" cx="301" cy="286" r="15"/>
			</g>
		</g>
	</g>
	<path style="fill:#FD4E26;" d="M294.101,377.8c5.7,6,5.7,15.3,0,21.299C280,413.2,261.099,421,241,421v-30.3
		c11.7,0,23.401-4.501,31.8-12.9C278.8,372.1,288.1,372.1,294.101,377.8z"/>
</g>
<g>
</g>
<g>
</g>
<g>
</g>
<g>
</g>
<g>
</g>
<g>
</g>
<g>
</g>
<g>
</g>
<g>
</g>
<g>
</g>
<g>
</g>
<g>
</g>
<g>
</g>
<g>
</g>
<g>
</g>
</svg>
