<?xml version="1.0" encoding="iso-8859-1"?>
<!-- Generator: Adobe Illustrator 19.0.0, SVG Export Plug-In . SVG Version: 6.00 Build 0)  -->
<svg version="1.1" id="Layer_1" xmlns="http://www.w3.org/2000/svg" xmlns:xlink="http://www.w3.org/1999/xlink" x="0px" y="0px"
	 viewBox="0 0 512 512" style="enable-background:new 0 0 512 512;" xml:space="preserve">
<g>
	<g>
		<path style="fill:#FF9870;" d="M121,285c0,8.291-6.709,15-15,15H91c-33.091,0-60-26.909-60-60s26.909-60,60-60h15
			c8.291,0,15,6.709,15,15V285z"/>
	</g>
	<g>
		<path style="fill:#F28155;" d="M481,240c0,33.091-26.909,60-60,60h-15c-8.291,0-15-6.709-15-15v-90c0-8.291,6.709-15,15-15h15
			C454.091,180,481,206.909,481,240z M421,270h0.293H421z"/>
	</g>
	<path style="fill:#FFC5AD;" d="M421,210v137c0,90.899-74.099,165-165,165S91,437.899,91,347V210l32.401-30h264L421,210z"/>
	<path style="fill:#FFAC8C;" d="M421,210v137c0,90.899-74.099,165-165,165V180h131.4L421,210z"/>
	<polygon style="fill:#FCBF29;" points="421,75 421,210 91,210 91,75 138.701,51.899 181,85.8 223.299,51.899 288.701,51.899 
		331,85.8 373.299,51.899 	"/>
	<polygon style="fill:#FE9923;" points="421,75 421,210 256,210 256,51.899 288.701,51.899 331,85.8 373.299,51.899 	"/>
	<g>
		<g>
			<path style="fill:#FCBF29;" d="M406,90c-25.14,0-45-20.591-45-45c0-24.814,20.186-45,45-45s45,20.186,45,45S430.814,90,406,90z"
				/>
		</g>
	</g>
	<g>
		<path style="fill:#FEDB41;" d="M256,0c-24.901,0-45,20.099-45,45c0,24.3,19.799,45,45,45c25.499,0,45-21,45-45
			C301,20.099,280.901,0,256,0z"/>
	</g>
	<g>
		<path style="fill:#FEDB41;" d="M106,90c-24.814,0-45-20.186-45-45S81.186,0,106,0s45,20.186,45,45C151,69.002,131.567,90,106,90z"
			/>
	</g>
	<g>
		<path style="fill:#FD003A;" d="M309.101,141.899L266.499,99.6C263.8,96.599,259.9,95.4,256,95.4s-7.8,1.199-10.499,4.2
			l-42.601,42.299c-5.7,6-5.7,15.3,0,21.301l42.601,42.299C248.2,208.5,252.1,210,256,210s7.8-1.5,10.499-4.501l42.601-42.299
			C314.801,157.2,314.801,147.9,309.101,141.899z"/>
	</g>
	<path style="fill:#FCBF29;" d="M256,90V0c24.901,0,45,20.099,45,45C301,69,281.499,90,256,90z"/>
	<path style="fill:#E50027;" d="M266.499,205.499C263.8,208.5,259.9,210,256,210V95.4c3.9,0,7.8,1.199,10.499,4.2l42.601,42.299
		c5.7,6,5.7,15.3,0,21.301L266.499,205.499z"/>
	<g>
		<path style="fill:#FD6244;" d="M309.101,398.899c-18.9-7.2-28.2-17.999-42.601-32.401C263.8,363.5,259.9,362,256,362
			s-7.8,1.5-10.499,4.499C231.099,380.9,221.8,391.7,202.899,398.899c-9.3,3.6-12.9,15-6.899,23.101c14.099,18.9,36,30,60,30
			s45.901-11.1,60-30C322,413.899,318.401,402.499,309.101,398.899z"/>
	</g>
	<path style="fill:#FD3C65;" d="M316,422c-14.099,18.9-36,30-60,30v-90c3.9,0,7.8,1.5,10.499,4.499
		c14.401,14.401,23.701,25.201,42.601,32.401C318.401,402.499,322,413.899,316,422z"/>
	<path style="fill:#F0EDEA;" d="M448.001,338c-3.9-5.101-10.501-7.202-16.8-5.101L366.099,354.5c-8.699,2.699-20.7,0.599-28.2-6.601
		c-12.9-13.2-30.899-18.9-49.199-16.199c-12.902,2.1-24.001,8.399-32.701,17.699c-8.699-9.3-19.799-15.599-32.701-17.699
		c-18.3-2.701-36.299,2.999-49.199,16.199c-7.5,7.2-19.2,9.3-28.2,6.601l-65.101-21.601C67,328.4,55.6,343.7,63.401,355.399
		l19.799,29.7c21,31.201,55.8,49.2,91.5,49.2c29.401,0,56.1-11.1,81.301-36c22.8,22.8,48.6,35.7,81,35.7
		c36.299,0,71.1-17.699,91.8-48.9l19.799-29.7C451.901,349.999,451.901,343.1,448.001,338z"/>
	<path style="fill:#E8E4D9;" d="M448.599,355.399l-19.799,29.7c-20.7,31.201-55.501,48.9-91.8,48.9c-32.401,0-58.2-12.9-81-35.7
		v-48.9c8.699-9.3,19.799-15.599,32.701-17.699c18.3-2.701,36.299,2.999,49.199,16.199c7.5,7.2,19.501,9.3,28.2,6.601l65.101-21.601
		c6.299-2.1,12.9,0,16.8,5.101C451.901,343.1,451.901,349.999,448.599,355.399z"/>
	<g>
		<circle style="fill:#57555C;" cx="196" cy="255" r="15"/>
	</g>
	<g>
		<g>
			<g>
				<circle style="fill:#3C3A41;" cx="316" cy="255" r="15"/>
			</g>
		</g>
	</g>
</g>
<g>
</g>
<g>
</g>
<g>
</g>
<g>
</g>
<g>
</g>
<g>
</g>
<g>
</g>
<g>
</g>
<g>
</g>
<g>
</g>
<g>
</g>
<g>
</g>
<g>
</g>
<g>
</g>
<g>
</g>
</svg>
